<svg xmlns="http://www.w3.org/2000/svg" xmlns:xlink="http://www.w3.org/1999/xlink" contentStyleType="text/css" data-diagram-type="CLASS" height="924.5833px" preserveAspectRatio="none" style="width:2865px;height:924px;background:#FFFFFF;" version="1.1" viewBox="0 0 2865 924" width="2865.625px" zoomAndPan="magnify"><?plantuml 1.2026.3?><defs/><g><!--class Adres--><g class="entity" data-qualified-name="Adres" data-source-line="21" id="ent0002"><rect fill="#E8F5E9" height="59.2391" rx="4.375" ry="4.375" style="stroke:#2E7D32;stroke-width:0.7292;" width="225.5375" x="946.4496" y="228.3061"/><text fill="#000000" font-family="sans-serif" font-size="17.5" font-style="italic" lengthAdjust="spacing" textLength="222.6208" x="947.9079" y="252.5167">&#171;adressen-en-gebouwen&#187;</text><text fill="#000000" font-family="sans-serif" font-size="20.4167" font-style="italic" lengthAdjust="spacing" textLength="57.073" x="1030.6819" y="275.9469">Adres</text></g><!--class Binnenlandsadres--><g class="entity" data-qualified-name="Binnenlandsadres" data-source-line="22" id="ent0003"><rect fill="#E8F5E9" height="59.2391" rx="4.375" ry="4.375" style="stroke:#2E7D32;stroke-width:0.7292;" width="225.5375" x="1702.2481" y="453.6955"/><text fill="#000000" font-family="sans-serif" font-size="17.5" font-style="italic" lengthAdjust="spacing" textLength="222.6208" x="1703.7065" y="477.9061">&#171;adressen-en-gebouwen&#187;</text><text fill="#000000" font-family="sans-serif" font-size="20.4167" lengthAdjust="spacing" textLength="174.399" x="1727.8174" y="501.3363">Binnenlandsadres</text></g><!--class Buitenlandsadres--><g class="entity" data-qualified-name="Buitenlandsadres" data-source-line="23" id="ent0004"><rect fill="#E8F5E9" height="59.2391" rx="4.375" ry="4.375" style="stroke:#2E7D32;stroke-width:0.7292;" width="225.5375" x="667.8398" y="453.6955"/><text fill="#000000" font-family="sans-serif" font-size="17.5" font-style="italic" lengthAdjust="spacing" textLength="222.6208" x="669.2981" y="477.9061">&#171;adressen-en-gebouwen&#187;</text><text fill="#000000" font-family="sans-serif" font-size="20.4167" lengthAdjust="spacing" textLength="169.3646" x="695.9262" y="501.3363">Buitenlandsadres</text></g><!--class Postadres--><g class="entity" data-qualified-name="Postadres" data-source-line="24" id="ent0005"><rect fill="#E8F5E9" height="59.2391" rx="4.375" ry="4.375" style="stroke:#2E7D32;stroke-width:0.7292;" width="225.5375" x="1192.8398" y="453.6955"/><text fill="#000000" font-family="sans-serif" font-size="17.5" font-style="italic" lengthAdjust="spacing" textLength="222.6208" x="1194.2981" y="477.9061">&#171;adressen-en-gebouwen&#187;</text><text fill="#000000" font-family="sans-serif" font-size="20.4167" lengthAdjust="spacing" textLength="96.1318" x="1257.5426" y="501.3363">Postadres</text></g><!--class Locatie--><g class="entity" data-qualified-name="Locatie" data-source-line="25" id="ent0006"><rect fill="#E8F5E9" height="59.2391" rx="4.375" ry="4.375" style="stroke:#2E7D32;stroke-width:0.7292;" width="225.5375" x="1447.5439" y="453.6955"/><text fill="#000000" font-family="sans-serif" font-size="17.5" font-style="italic" lengthAdjust="spacing" textLength="222.6208" x="1449.0023" y="477.9061">&#171;adressen-en-gebouwen&#187;</text><text fill="#000000" font-family="sans-serif" font-size="20.4167" lengthAdjust="spacing" textLength="70.0726" x="1525.2764" y="501.3363">Locatie</text></g><!--class VerblijfplaatsOnbekend--><g class="entity" data-qualified-name="VerblijfplaatsOnbekend" data-source-line="26" id="ent0007"><rect fill="#E8F5E9" height="59.2391" rx="4.375" ry="4.375" style="stroke:#2E7D32;stroke-width:0.7292;" width="241.1292" x="922.5439" y="453.6955"/><text fill="#000000" font-family="sans-serif" font-size="17.5" font-style="italic" lengthAdjust="spacing" textLength="222.6208" x="931.7981" y="477.9061">&#171;adressen-en-gebouwen&#187;</text><text fill="#000000" font-family="sans-serif" font-size="20.4167" lengthAdjust="spacing" textLength="232.3792" x="926.9189" y="501.3363">VerblijfplaatsOnbekend</text></g><!--class Nummeraanduiding--><g class="entity" data-qualified-name="Nummeraanduiding" data-source-line="36" id="ent0013"><rect fill="#E8F5E9" height="59.2391" rx="4.375" ry="4.375" style="stroke:#2E7D32;stroke-width:0.7292;" width="225.5375" x="1781.0451" y="228.3061"/><text fill="#000000" font-family="sans-serif" font-size="17.5" font-style="italic" lengthAdjust="spacing" textLength="222.6208" x="1782.5035" y="252.5167">&#171;adressen-en-gebouwen&#187;</text><text fill="#000000" font-family="sans-serif" font-size="20.4167" lengthAdjust="spacing" textLength="196.4008" x="1795.6135" y="275.9469">Nummeraanduiding</text></g><!--class AdresseerbaarObject--><g class="entity" data-qualified-name="AdresseerbaarObject" data-source-line="37" id="ent0014"><rect fill="#E8F5E9" height="59.2391" rx="4.375" ry="4.375" style="stroke:#2E7D32;stroke-width:0.7292;" width="225.5375" x="1781.0451" y="17.5"/><text fill="#000000" font-family="sans-serif" font-size="17.5" font-style="italic" lengthAdjust="spacing" textLength="222.6208" x="1782.5035" y="41.7106">&#171;adressen-en-gebouwen&#187;</text><text fill="#000000" font-family="sans-serif" font-size="20.4167" font-style="italic" lengthAdjust="spacing" textLength="206.7287" x="1790.4495" y="65.1408">AdresseerbaarObject</text></g><!--class Verblijfsobject--><g class="entity" data-qualified-name="Verblijfsobject" data-source-line="38" id="ent0015"><rect fill="#E8F5E9" height="59.2391" rx="4.375" ry="4.375" style="stroke:#2E7D32;stroke-width:0.7292;" width="225.5375" x="17.5" y="228.3061"/><text fill="#000000" font-family="sans-serif" font-size="17.5" font-style="italic" lengthAdjust="spacing" textLength="222.6208" x="18.9583" y="252.5167">&#171;adressen-en-gebouwen&#187;</text><text fill="#000000" font-family="sans-serif" font-size="20.4167" lengthAdjust="spacing" textLength="142.9266" x="58.8054" y="275.9469">Verblijfsobject</text></g><!--class Ligplaats--><g class="entity" data-qualified-name="Ligplaats" data-source-line="39" id="ent0016"><rect fill="#E8F5E9" height="59.2391" rx="4.375" ry="4.375" style="stroke:#2E7D32;stroke-width:0.7292;" width="225.5375" x="691.7454" y="228.3061"/><text fill="#000000" font-family="sans-serif" font-size="17.5" font-style="italic" lengthAdjust="spacing" textLength="222.6208" x="693.2037" y="252.5167">&#171;adressen-en-gebouwen&#187;</text><text fill="#000000" font-family="sans-serif" font-size="20.4167" lengthAdjust="spacing" textLength="88.8643" x="760.082" y="275.9469">Ligplaats</text></g><!--class Standplaats--><g class="entity" data-qualified-name="Standplaats" data-source-line="40" id="ent0017"><rect fill="#E8F5E9" height="59.2391" rx="4.375" ry="4.375" style="stroke:#2E7D32;stroke-width:0.7292;" width="225.5375" x="2580.3636" y="228.3061"/><text fill="#000000" font-family="sans-serif" font-size="17.5" font-style="italic" lengthAdjust="spacing" textLength="222.6208" x="2581.8219" y="252.5167">&#171;adressen-en-gebouwen&#187;</text><text fill="#000000" font-family="sans-serif" font-size="20.4167" lengthAdjust="spacing" textLength="114.774" x="2635.7454" y="275.9469">Standplaats</text></g><!--class Pand--><g class="entity" data-qualified-name="Pand" data-source-line="41" id="ent0018"><rect fill="#E8F5E9" height="59.2391" rx="4.375" ry="4.375" style="stroke:#2E7D32;stroke-width:0.7292;" width="225.5375" x="17.5" y="453.6955"/><text fill="#000000" font-family="sans-serif" font-size="17.5" font-style="italic" lengthAdjust="spacing" textLength="222.6208" x="18.9583" y="477.9061">&#171;adressen-en-gebouwen&#187;</text><text fill="#000000" font-family="sans-serif" font-size="20.4167" lengthAdjust="spacing" textLength="48.0809" x="106.2283" y="501.3363">Pand</text></g><!--class OpenbareRuimte--><g class="entity" data-qualified-name="OpenbareRuimte" data-source-line="53" id="ent0025"><rect fill="#E8F5E9" height="59.2391" rx="4.375" ry="4.375" style="stroke:#2E7D32;stroke-width:0.7292;" width="225.5375" x="1956.9523" y="453.6955"/><text fill="#000000" font-family="sans-serif" font-size="17.5" font-style="italic" lengthAdjust="spacing" textLength="222.6208" x="1958.4106" y="477.9061">&#171;adressen-en-gebouwen&#187;</text><text fill="#000000" font-family="sans-serif" font-size="20.4167" lengthAdjust="spacing" textLength="166.1646" x="1986.6388" y="501.3363">OpenbareRuimte</text></g><!--class Woonplaats--><g class="entity" data-qualified-name="Woonplaats" data-source-line="54" id="ent0026"><rect fill="#E8F5E9" height="59.2391" rx="4.375" ry="4.375" style="stroke:#2E7D32;stroke-width:0.7292;" width="225.5375" x="2199.4603" y="649.9182"/><text fill="#000000" font-family="sans-serif" font-size="17.5" font-style="italic" lengthAdjust="spacing" textLength="222.6208" x="2200.9186" y="674.1288">&#171;adressen-en-gebouwen&#187;</text><text fill="#000000" font-family="sans-serif" font-size="20.4167" lengthAdjust="spacing" textLength="114.5646" x="2254.9467" y="697.559">Woonplaats</text></g><!--class Gemeente--><g class="entity" data-qualified-name="Gemeente" data-source-line="55" id="ent0027"><rect fill="#E8F5E9" height="59.2391" rx="4.375" ry="4.375" style="stroke:#2E7D32;stroke-width:0.7292;" width="225.5375" x="2237.0499" y="846.141"/><text fill="#000000" font-family="sans-serif" font-size="17.5" font-style="italic" lengthAdjust="spacing" textLength="222.6208" x="2238.5082" y="870.3516">&#171;adressen-en-gebouwen&#187;</text><text fill="#000000" font-family="sans-serif" font-size="20.4167" lengthAdjust="spacing" textLength="99.621" x="2300.0081" y="893.7817">Gemeente</text></g><!--class Wijk--><g class="entity" data-qualified-name="Wijk" data-source-line="56" id="ent0028"><rect fill="#E8F5E9" height="59.2391" rx="4.375" ry="4.375" style="stroke:#2E7D32;stroke-width:0.7292;" width="225.5375" x="2619.1873" y="453.6955"/><text fill="#000000" font-family="sans-serif" font-size="17.5" font-style="italic" lengthAdjust="spacing" textLength="222.6208" x="2620.6457" y="477.9061">&#171;adressen-en-gebouwen&#187;</text><text fill="#000000" font-family="sans-serif" font-size="20.4167" lengthAdjust="spacing" textLength="41.5112" x="2711.2005" y="501.3363">Wijk</text></g><!--class Buurt--><g class="entity" data-qualified-name="Buurt" data-source-line="57" id="ent0029"><rect fill="#E8F5E9" height="59.2391" rx="4.375" ry="4.375" style="stroke:#2E7D32;stroke-width:0.7292;" width="225.5375" x="2325.6594" y="228.3061"/><text fill="#000000" font-family="sans-serif" font-size="17.5" font-style="italic" lengthAdjust="spacing" textLength="222.6208" x="2327.1177" y="252.5167">&#171;adressen-en-gebouwen&#187;</text><text fill="#000000" font-family="sans-serif" font-size="20.4167" lengthAdjust="spacing" textLength="53.0754" x="2411.8905" y="275.9469">Buurt</text></g><g class="entity" data-qualified-name="GMN36" data-source-line="68" id="ent0037"><path d="M272.2042,458.0705 L272.2042,508.5596 A4.375,4.375 0 0 0 276.5792,512.9346 L634.2981,512.9346 A4.375,4.375 0 0 0 638.6731,508.5596 L638.6731,468.2788 L624.0898,453.6955 L276.5792,453.6955 A4.375,4.375 0 0 0 272.2042,458.0705" fill="#FFFCD8" style="stroke:#181818;stroke-width:0.7292;"/><path d="M624.0898,453.6955 L624.0898,466.0913 A2.1875,2.1875 0 0 0 626.2773,468.2788 L638.6731,468.2788 L624.0898,453.6955" fill="#FFFCD8" style="stroke:#181818;stroke-width:1.4583;"/><text fill="#000000" font-family="sans-serif" font-size="18.9583" lengthAdjust="spacing" textLength="335.8439" x="280.9542" y="479.316">Functionele rol (woon, bezoek, post)</text><text fill="#000000" font-family="sans-serif" font-size="18.9583" lengthAdjust="spacing" textLength="306.49" x="280.9542" y="501.6439">in relatie-label, niet als attribuut.</text></g><g class="entity" data-qualified-name="GMN39" data-source-line="73" id="ent0040"><path d="M1893.9694,654.2932 L1893.9694,704.7823 A4.375,4.375 0 0 0 1898.3444,709.1573 L2165.9186,709.1573 A4.375,4.375 0 0 0 2170.2936,704.7823 L2170.2936,664.5015 L2155.7103,649.9182 L1898.3444,649.9182 A4.375,4.375 0 0 0 1893.9694,654.2932" fill="#FFFCD8" style="stroke:#181818;stroke-width:0.7292;"/><path d="M2155.7103,649.9182 L2155.7103,662.314 A2.1875,2.1875 0 0 0 2157.8978,664.5015 L2170.2936,664.5015 L2155.7103,649.9182" fill="#FFFCD8" style="stroke:#181818;stroke-width:1.4583;"/><text fill="#000000" font-family="sans-serif" font-size="18.9583" lengthAdjust="spacing" textLength="244.3663" x="1902.7194" y="675.5387">Geometrie kan Lijn (straat)</text><text fill="#000000" font-family="sans-serif" font-size="18.9583" lengthAdjust="spacing" textLength="245.6993" x="1902.7194" y="697.8666">of Vlak (plein/gebied) zijn.</text></g><g class="entity" data-qualified-name="GMN42" data-source-line="78" id="ent0043"><path d="M2211.6565,458.0705 L2211.6565,508.5596 A4.375,4.375 0 0 0 2216.0315,512.9346 L2585.6457,512.9346 A4.375,4.375 0 0 0 2590.0207,508.5596 L2590.0207,468.2788 L2575.4373,453.6955 L2216.0315,453.6955 A4.375,4.375 0 0 0 2211.6565,458.0705" fill="#FFFCD8" style="stroke:#181818;stroke-width:0.7292;"/><path d="M2575.4373,453.6955 L2575.4373,466.0913 A2.1875,2.1875 0 0 0 2577.6248,468.2788 L2590.0207,468.2788 L2575.4373,453.6955" fill="#FFFCD8" style="stroke:#181818;stroke-width:1.4583;"/><text fill="#000000" font-family="sans-serif" font-size="18.9583" lengthAdjust="spacing" textLength="277.821" x="2220.4065" y="479.316">BAG-formeel kent geen Buurt;</text><text fill="#000000" font-family="sans-serif" font-size="18.9583" lengthAdjust="spacing" textLength="347.7392" x="2220.4065" y="501.6439">Wijk/Buurt-bron = CBS, niet HC-BAG.</text></g><line style="stroke:#444444;stroke-width:1.4583;" x1="1139.7675" x2="1139.7675" y1="287.5452" y2="327.373"/><line style="stroke:#444444;stroke-width:1.4583;" x1="1139.7675" x2="1777.4273" y1="327.373" y2="327.373"/><line style="stroke:#444444;stroke-width:1.4583;" x1="1777.4273" x2="1777.4273" y1="327.373" y2="453.6955"/><polygon fill="#FFFFFF" points="1139.7675,287.5452,1129.5591,315.2535,1149.9758,315.2535,1139.7675,287.5452" style="stroke:#444444;stroke-width:1.4583;"/><line style="stroke:#444444;stroke-width:1.4583;" x1="1010.8889" x2="1010.8889" y1="287.5452" y2="341.9564"/><line style="stroke:#444444;stroke-width:1.4583;" x1="1010.8889" x2="780.6085" y1="341.9564" y2="341.9564"/><line style="stroke:#444444;stroke-width:1.4583;" x1="780.6085" x2="780.6085" y1="341.9564" y2="453.6955"/><polygon fill="#FFFFFF" points="1010.8889,287.5452,1000.6805,315.2535,1021.0972,315.2535,1010.8889,287.5452" style="stroke:#444444;stroke-width:1.4583;"/><line style="stroke:#444444;stroke-width:1.4583;" x1="1075.3282" x2="1075.3282" y1="287.5452" y2="356.5397"/><line style="stroke:#444444;stroke-width:1.4583;" x1="1075.3282" x2="1305.6085" y1="356.5397" y2="356.5397"/><line style="stroke:#444444;stroke-width:1.4583;" x1="1305.6085" x2="1305.6085" y1="356.5397" y2="453.6955"/><polygon fill="#FFFFFF" points="1075.3282,287.5452,1065.1198,315.2535,1085.5365,315.2535,1075.3282,287.5452" style="stroke:#444444;stroke-width:1.4583;"/><line style="stroke:#444444;stroke-width:1.4583;" x1="1107.5478" x2="1107.5478" y1="287.5452" y2="341.9564"/><line style="stroke:#444444;stroke-width:1.4583;" x1="1107.5478" x2="1560.3127" y1="341.9564" y2="341.9564"/><line style="stroke:#444444;stroke-width:1.4583;" x1="1560.3127" x2="1560.3127" y1="341.9564" y2="453.6955"/><polygon fill="#FFFFFF" points="1107.5478,287.5452,1097.3395,315.2535,1117.7561,315.2535,1107.5478,287.5452" style="stroke:#444444;stroke-width:1.4583;"/><line style="stroke:#444444;stroke-width:1.4583;" x1="1043.1085" x2="1043.1085" y1="287.5452" y2="453.6955"/><polygon fill="#FFFFFF" points="1043.1085,287.5452,1032.9002,315.2535,1053.3169,315.2535,1043.1085,287.5452" style="stroke:#444444;stroke-width:1.4583;"/><line style="stroke:#444444;stroke-width:1.4583;" x1="1818.6347" x2="1818.6347" y1="76.7391" y2="116.567"/><line style="stroke:#444444;stroke-width:1.4583;" x1="1818.6347" x2="130.2688" y1="116.567" y2="116.567"/><line style="stroke:#444444;stroke-width:1.4583;" x1="130.2688" x2="130.2688" y1="116.567" y2="228.3061"/><polygon fill="#FFFFFF" points="1818.6347,76.7391,1808.4264,104.4474,1828.843,104.4474,1818.6347,76.7391" style="stroke:#444444;stroke-width:1.4583;"/><line style="stroke:#444444;stroke-width:1.4583;" x1="1856.2243" x2="1856.2243" y1="76.7391" y2="131.1503"/><line style="stroke:#444444;stroke-width:1.4583;" x1="1856.2243" x2="804.5142" y1="131.1503" y2="131.1503"/><line style="stroke:#444444;stroke-width:1.4583;" x1="804.5142" x2="804.5142" y1="131.1503" y2="228.3061"/><polygon fill="#FFFFFF" points="1856.2243,76.7391,1846.016,104.4474,1866.4326,104.4474,1856.2243,76.7391" style="stroke:#444444;stroke-width:1.4583;"/><line style="stroke:#444444;stroke-width:1.4583;" x1="1968.9931" x2="1968.9931" y1="76.7391" y2="116.567"/><line style="stroke:#444444;stroke-width:1.4583;" x1="1968.9931" x2="2693.1323" y1="116.567" y2="116.567"/><line style="stroke:#444444;stroke-width:1.4583;" x1="2693.1323" x2="2693.1323" y1="116.567" y2="228.3061"/><polygon fill="#FFFFFF" points="1968.9931,76.7391,1958.7847,104.4474,1979.2014,104.4474,1968.9931,76.7391" style="stroke:#444444;stroke-width:1.4583;"/><line style="stroke:#444444;stroke-width:1.4583;" x1="1856.2243" x2="1856.2243" y1="287.5452" y2="413.8676"/><line style="stroke:#444444;stroke-width:1.4583;" x1="1856.2243" x2="1852.6065" y1="413.8676" y2="413.8676"/><line style="stroke:#444444;stroke-width:1.4583;" x1="1852.6065" x2="1852.6065" y1="413.8676" y2="453.6955"/><polygon fill="#444444" points="1852.6065,453.6955,1858.4398,440.5705,1852.6065,446.4038,1846.7731,440.5705,1852.6065,453.6955" style="stroke:#444444;stroke-width:1.4583;"/><text fill="#333333" font-family="sans-serif" font-size="18.9583" lengthAdjust="spacing" textLength="54.0053" x="1796.3856" y="392.3686">vormt</text><text fill="#333333" font-family="sans-serif" font-size="18.9583" lengthAdjust="spacing" textLength="11.9878" x="1860.5993" y="308.7907">1</text><text fill="#333333" font-family="sans-serif" font-size="18.9583" lengthAdjust="spacing" textLength="11.9878" x="1856.9815" y="446.7798">1</text><line style="stroke:#444444;stroke-width:1.4583;" x1="1893.8139" x2="1893.8139" y1="76.7391" y2="228.3061"/><polygon fill="#444444" points="1893.8139,228.3061,1899.6472,215.1811,1893.8139,221.0144,1887.9806,215.1811,1893.8139,228.3061" style="stroke:#444444;stroke-width:1.4583;"/><text fill="#333333" font-family="sans-serif" font-size="18.9583" lengthAdjust="spacing" textLength="46.9515" x="1841.0291" y="166.9792">heeft</text><text fill="#333333" font-family="sans-serif" font-size="18.9583" lengthAdjust="spacing" textLength="11.9878" x="1898.1889" y="97.9846">1</text><text fill="#333333" font-family="sans-serif" font-size="18.9583" lengthAdjust="spacing" textLength="33.1215" x="1898.1889" y="221.3904">1..*</text><line style="stroke:#444444;stroke-width:1.4583;" x1="130.2688" x2="130.2688" y1="287.5452" y2="453.6955"/><polygon fill="#444444" points="130.2688,453.6955,136.1021,440.5705,130.2688,446.4038,124.4354,440.5705,130.2688,453.6955" style="stroke:#444444;stroke-width:1.4583;"/><text fill="#333333" font-family="sans-serif" font-size="18.9583" lengthAdjust="spacing" textLength="17.2458" x="107.1896" y="392.3686">in</text><text fill="#333333" font-family="sans-serif" font-size="18.9583" lengthAdjust="spacing" textLength="33.1215" x="134.6438" y="308.7907">1..*</text><text fill="#333333" font-family="sans-serif" font-size="18.9583" lengthAdjust="spacing" textLength="33.1215" x="134.6438" y="446.7798">1..*</text><line style="stroke:#444444;stroke-width:1.4583;" x1="1931.4035" x2="1931.4035" y1="287.5452" y2="327.373"/><line style="stroke:#444444;stroke-width:1.4583;" x1="1931.4035" x2="2069.7211" y1="327.373" y2="327.373"/><line style="stroke:#444444;stroke-width:1.4583;" x1="2069.7211" x2="2069.7211" y1="327.373" y2="453.6955"/><polygon fill="#444444" points="2069.7211,453.6955,2075.5544,440.5705,2069.7211,446.4038,2063.8877,440.5705,2069.7211,453.6955" style="stroke:#444444;stroke-width:1.4583;"/><text fill="#333333" font-family="sans-serif" font-size="18.9583" lengthAdjust="spacing" textLength="17.2458" x="2046.6419" y="392.3686">in</text><text fill="#333333" font-family="sans-serif" font-size="18.9583" lengthAdjust="spacing" textLength="9.1367" x="1935.7785" y="308.7907">*</text><text fill="#333333" font-family="sans-serif" font-size="18.9583" lengthAdjust="spacing" textLength="11.9878" x="2074.0961" y="446.7798">1</text><line style="stroke:#444444;stroke-width:1.4583;" x1="2107.3107" x2="2107.3107" y1="512.9346" y2="552.7625"/><line style="stroke:#444444;stroke-width:1.4583;" x1="2107.3107" x2="2312.229" y1="552.7625" y2="552.7625"/><line style="stroke:#444444;stroke-width:1.4583;" x1="2312.229" x2="2312.229" y1="552.7625" y2="649.9182"/><polygon fill="#444444" points="2312.229,649.9182,2318.0624,636.7932,2312.229,642.6265,2306.3957,636.7932,2312.229,649.9182" style="stroke:#444444;stroke-width:1.4583;"/><text fill="#333333" font-family="sans-serif" font-size="18.9583" lengthAdjust="spacing" textLength="17.2458" x="2289.1499" y="588.5913">in</text><text fill="#333333" font-family="sans-serif" font-size="18.9583" lengthAdjust="spacing" textLength="9.1367" x="2111.6857" y="534.1801">*</text><text fill="#333333" font-family="sans-serif" font-size="18.9583" lengthAdjust="spacing" textLength="11.9878" x="2316.604" y="643.0025">1</text><line style="stroke:#444444;stroke-width:1.4583;" x1="2312.229" x2="2312.229" y1="709.1573" y2="846.141"/><polygon fill="#444444" points="2312.229,846.141,2318.0624,833.016,2312.229,838.8493,2306.3957,833.016,2312.229,846.141" style="stroke:#444444;stroke-width:1.4583;"/><text fill="#333333" font-family="sans-serif" font-size="18.9583" lengthAdjust="spacing" textLength="17.2458" x="2289.1499" y="784.814">in</text><text fill="#333333" font-family="sans-serif" font-size="18.9583" lengthAdjust="spacing" textLength="9.1367" x="2316.604" y="730.4028">*</text><text fill="#333333" font-family="sans-serif" font-size="18.9583" lengthAdjust="spacing" textLength="11.9878" x="2316.604" y="839.2253">1</text><line style="stroke:#444444;stroke-width:1.4583;" x1="2731.9561" x2="2731.9561" y1="512.9346" y2="806.3131"/><line style="stroke:#444444;stroke-width:1.4583;" x1="2731.9561" x2="2387.4082" y1="806.3131" y2="806.3131"/><line style="stroke:#444444;stroke-width:1.4583;" x1="2387.4082" x2="2387.4082" y1="806.3131" y2="846.141"/><polygon fill="#444444" points="2387.4082,846.141,2393.2415,833.016,2387.4082,838.8493,2381.5749,833.016,2387.4082,846.141" style="stroke:#444444;stroke-width:1.4583;"/><text fill="#333333" font-family="sans-serif" font-size="18.9583" lengthAdjust="spacing" textLength="17.2458" x="2739.2477" y="686.7027">in</text><text fill="#333333" font-family="sans-serif" font-size="18.9583" lengthAdjust="spacing" textLength="9.1367" x="2736.3311" y="534.1801">*</text><text fill="#333333" font-family="sans-serif" font-size="18.9583" lengthAdjust="spacing" textLength="11.9878" x="2391.7832" y="839.2253">1</text><line style="stroke:#444444;stroke-width:1.4583;" x1="2476.0177" x2="2476.0177" y1="287.5452" y2="327.373"/><line style="stroke:#444444;stroke-width:1.4583;" x1="2476.0177" x2="2731.9561" y1="327.373" y2="327.373"/><line style="stroke:#444444;stroke-width:1.4583;" x1="2731.9561" x2="2731.9561" y1="327.373" y2="453.6955"/><polygon fill="#444444" points="2731.9561,453.6955,2737.7894,440.5705,2731.9561,446.4038,2726.1227,440.5705,2731.9561,453.6955" style="stroke:#444444;stroke-width:1.4583;"/><text fill="#333333" font-family="sans-serif" font-size="18.9583" lengthAdjust="spacing" textLength="17.2458" x="2708.877" y="392.3686">in</text><text fill="#333333" font-family="sans-serif" font-size="18.9583" lengthAdjust="spacing" textLength="9.1367" x="2480.3927" y="308.7907">*</text><text fill="#333333" font-family="sans-serif" font-size="18.9583" lengthAdjust="spacing" textLength="11.9878" x="2736.3311" y="446.7798">1</text><line style="stroke:#444444;stroke-width:1.4583;" x1="1931.4035" x2="1931.4035" y1="76.7391" y2="131.1503"/><line style="stroke:#444444;stroke-width:1.4583;" x1="1931.4035" x2="2438.4282" y1="131.1503" y2="131.1503"/><line style="stroke:#444444;stroke-width:1.4583;" x1="2438.4282" x2="2438.4282" y1="131.1503" y2="228.3061"/><polygon fill="#444444" points="2438.4282,228.3061,2444.2615,215.1811,2438.4282,221.0144,2432.5948,215.1811,2438.4282,228.3061" style="stroke:#444444;stroke-width:1.4583;"/><text fill="#333333" font-family="sans-serif" font-size="18.9583" lengthAdjust="spacing" textLength="53.1167" x="2379.4782" y="166.9792">ligt in</text><text fill="#333333" font-family="sans-serif" font-size="18.9583" lengthAdjust="spacing" textLength="9.1367" x="1935.7785" y="97.9846">*</text><text fill="#333333" font-family="sans-serif" font-size="18.9583" lengthAdjust="spacing" textLength="11.9878" x="2442.8032" y="221.3904">1</text><line style="stroke:#444444;stroke-width:1.4583;stroke-dasharray:10.2083,10.2083;" x1="978.6692" x2="978.6692" y1="287.5452" y2="327.373"/><line style="stroke:#444444;stroke-width:1.4583;stroke-dasharray:10.2083,10.2083;" x1="978.6692" x2="455.4386" y1="327.373" y2="327.373"/><line style="stroke:#444444;stroke-width:1.4583;stroke-dasharray:10.2083,10.2083;" x1="455.4386" x2="455.4386" y1="327.373" y2="453.6955"/><line style="stroke:#444444;stroke-width:1.4583;stroke-dasharray:10.2083,10.2083;" x1="2032.1315" x2="2032.1315" y1="512.9346" y2="649.9182"/><line style="stroke:#444444;stroke-width:1.4583;stroke-dasharray:10.2083,10.2083;" x1="2400.8386" x2="2400.8386" y1="287.5452" y2="453.6955"/><?plantuml-src bLLjJzim4FwUNt7hlW0YCDusrZ6aqgam2G4Q4ljyIQwf6yUER8SADlxxx2G2DsbBvbQASlUSxvxdSlQ7Gc6Q8t1yagK1ubaGw8o90XNca1GC3eu_UPQOezOZOnIBIaC_OodksJE13z4pJEI2YHIco3Lv7YLBaOob4gJWisSVkqqlCCxI1i6bWe-JaVjrO58bf1h8IRKyo4WfkMYSnzLgEoTIc0PmL2qFS2CDTSkOJCO_JeCPImWeBymJv9H7f7HjYfcAEGLjYSxEC56aDOdG_bEAPBaWSNuEVmA0JWuwdPxGL-VnsHtIb-Jeq5gl2ArrNTHBO6HAPcP5TPjZf8t2sDHrmCYL0UlAiVWQTi648C5H91fxHfJC_5_4dTIc9_HQncWOlGzy81LnDfyM7D7eMn5HHY9P7_SI18qYVyEmmth9r-Bd-rwP-CQcPj-qkhfWkM4raPiopqcXJLUon0tF1kghMgp9va9Kjz6ShAUtS5hs3BXcQKtZVUYziJJwWk-mJx_Qz7nr6mhhWQ-bhuTu9GT1fnU3Wm64uNdrx4pA41wbobUdVmlSsziPT9iyX1dHr0JjRZHuBxIIQGXChFnwRWiI4IhwLRBSz1YRtrAAlWswf9n8zDgLpRC-1qUfpCQET_NVUTE_HRMIf6NpuHxJ2kgz-x1NaZN84LdlhXaiPN41bM_bL-0XwzWXS9QQgfl2NZgWM3ep8AVrB5kf9gM83PE2k7LA3biBM_SkHFGiATk5mXv0snR612ZYxjW9EKR4Tq4mCc3lNS3waYxDNk1EH9UcIHP9OsJkiYthPlUx99cJZIF8KDYvcGlOScSDLjbin0F73BOAJapiswOnIhRXsS8s9AaOkxjjT1bExQGGSR37e87KIbfxlrctat2_UWiZ9GLyX_75VSFdQXpQQ2_7Fm00?></g></svg>