<svg xmlns="http://www.w3.org/2000/svg" xmlns:xlink="http://www.w3.org/1999/xlink" contentStyleType="text/css" data-diagram-type="CLASS" height="714.5833px" preserveAspectRatio="none" style="width:1330px;height:714px;background:#FFFFFF;" version="1.1" viewBox="0 0 1330 714" width="1330px" zoomAndPan="magnify"><?plantuml 1.2026.3?><defs/><g><!--class Partij--><g class="entity" data-qualified-name="Partij" data-source-line="35" id="ent0002"><rect fill="#F3E5F5" height="59.2391" rx="4.375" ry="4.375" style="stroke:#6A1B9A;stroke-width:0.7292;" width="103.3366" x="121.5173" y="213.7227"/><text fill="#000000" font-family="sans-serif" font-size="17.5" font-style="italic" lengthAdjust="spacing" textLength="100.4199" x="122.9757" y="237.9333">&#171;algemeen&#187;</text><text fill="#000000" font-family="sans-serif" font-size="20.4167" font-style="italic" lengthAdjust="spacing" textLength="50.6628" x="147.8542" y="261.3635">Partij</text></g><!--class AdresseerbaarObject--><g class="entity" data-qualified-name="AdresseerbaarObject" data-source-line="36" id="ent0003"><rect fill="#E8F5E9" height="59.2391" rx="4.375" ry="4.375" style="stroke:#2E7D32;stroke-width:0.7292;" width="225.5375" x="1006.1076" y="439.1121"/><text fill="#000000" font-family="sans-serif" font-size="17.5" font-style="italic" lengthAdjust="spacing" textLength="222.6208" x="1007.5659" y="463.3228">&#171;adressen-en-gebouwen&#187;</text><text fill="#000000" font-family="sans-serif" font-size="20.4167" font-style="italic" lengthAdjust="spacing" textLength="206.7287" x="1015.512" y="486.7529">AdresseerbaarObject</text></g><!--class Perceel--><g class="entity" data-qualified-name="Perceel" data-source-line="37" id="ent0004"><rect fill="#FDE8D6" height="59.2391" rx="4.375" ry="4.375" style="stroke:#A04000;stroke-width:0.7292;" width="179.7196" x="358.0379" y="439.1121"/><text fill="#000000" font-family="sans-serif" font-size="17.5" font-style="italic" lengthAdjust="spacing" textLength="176.803" x="359.4963" y="463.3228">&#171;onroerende-zaken&#187;</text><text fill="#000000" font-family="sans-serif" font-size="20.4167" lengthAdjust="spacing" textLength="70.1225" x="412.8365" y="486.7529">Perceel</text></g><!--class WOZObject--><g class="entity" data-qualified-name="WOZObject" data-source-line="40" id="ent0005"><rect fill="#FCE4EC" height="59.2391" rx="4.375" ry="4.375" style="stroke:#AD1457;stroke-width:0.7292;" width="250.5827" x="397.7812" y="213.7227"/><text fill="#000000" font-family="sans-serif" font-size="17.5" font-style="italic" lengthAdjust="spacing" textLength="247.666" x="399.2395" y="237.9333">&#171;waarde-onroerende-zaken&#187;</text><text fill="#000000" font-family="sans-serif" font-size="20.4167" lengthAdjust="spacing" textLength="110.0586" x="468.0433" y="261.3635">WOZObject</text></g><!--class WOZDeelobject--><g class="entity" data-qualified-name="WOZDeelobject" data-source-line="41" id="ent0006"><rect fill="#FCE4EC" height="59.2391" rx="4.375" ry="4.375" style="stroke:#AD1457;stroke-width:0.7292;" width="250.5827" x="605.2837" y="439.1121"/><text fill="#000000" font-family="sans-serif" font-size="17.5" font-style="italic" lengthAdjust="spacing" textLength="247.666" x="606.742" y="463.3228">&#171;waarde-onroerende-zaken&#187;</text><text fill="#000000" font-family="sans-serif" font-size="20.4167" lengthAdjust="spacing" textLength="150.6826" x="655.2337" y="486.7529">WOZDeelobject</text></g><!--class WOZWaarde--><g class="entity" data-qualified-name="WOZWaarde" data-source-line="42" id="ent0007"><rect fill="#FCE4EC" height="59.2391" rx="4.375" ry="4.375" style="stroke:#AD1457;stroke-width:0.7292;" width="250.5827" x="647.0475" y="635.3349"/><text fill="#000000" font-family="sans-serif" font-size="17.5" font-style="italic" lengthAdjust="spacing" textLength="247.666" x="648.5058" y="659.5455">&#171;waarde-onroerende-zaken&#187;</text><text fill="#000000" font-family="sans-serif" font-size="20.4167" lengthAdjust="spacing" textLength="118.2631" x="713.2072" y="682.9757">WOZWaarde</text></g><!--class Belanghebbende--><g class="entity" data-qualified-name="Belanghebbende" data-source-line="43" id="ent0008"><rect fill="#FCE4EC" height="59.2391" rx="4.375" ry="4.375" style="stroke:#AD1457;stroke-width:0.7292;" width="250.5827" x="89.6581" y="17.5"/><text fill="#000000" font-family="sans-serif" font-size="17.5" font-style="italic" lengthAdjust="spacing" textLength="247.666" x="91.1164" y="41.7106">&#171;waarde-onroerende-zaken&#187;</text><text fill="#000000" font-family="sans-serif" font-size="20.4167" lengthAdjust="spacing" textLength="163.7122" x="133.0933" y="65.1408">Belanghebbende</text></g><g class="entity" data-qualified-name="GMN16" data-source-line="55" id="ent0017"><path d="M926.7968,639.7099 L926.7968,667.8711 A4.375,4.375 0 0 0 931.1718,672.2461 L1306.5809,672.2461 A4.375,4.375 0 0 0 1310.9559,667.8711 L1310.9559,649.9182 L1296.3725,635.3349 L931.1718,635.3349 A4.375,4.375 0 0 0 926.7968,639.7099" fill="#FFFCD8" style="stroke:#181818;stroke-width:0.7292;"/><path d="M1296.3725,635.3349 L1296.3725,647.7307 A2.1875,2.1875 0 0 0 1298.56,649.9182 L1310.9559,649.9182 L1296.3725,635.3349" fill="#FFFCD8" style="stroke:#181818;stroke-width:1.4583;"/><text fill="#000000" font-family="sans-serif" font-size="18.9583" lengthAdjust="spacing" textLength="353.534" x="935.5468" y="660.9554">Uit deelmodel Adressen en gebouwen.</text></g><g class="entity" data-qualified-name="GMN19" data-source-line="59" id="ent0020"><path d="M277.9147,639.7099 L277.9147,667.8711 A4.375,4.375 0 0 0 282.2897,672.2461 L613.5058,672.2461 A4.375,4.375 0 0 0 617.8808,667.8711 L617.8808,649.9182 L603.2975,635.3349 L282.2897,635.3349 A4.375,4.375 0 0 0 277.9147,639.7099" fill="#FFFCD8" style="stroke:#181818;stroke-width:0.7292;"/><path d="M603.2975,635.3349 L603.2975,647.7307 A2.1875,2.1875 0 0 0 605.485,649.9182 L617.8808,649.9182 L603.2975,635.3349" fill="#FFFCD8" style="stroke:#181818;stroke-width:1.4583;"/><text fill="#000000" font-family="sans-serif" font-size="18.9583" lengthAdjust="spacing" textLength="309.3411" x="286.6647" y="660.9554">Uit deelmodel Onroerende zaken.</text></g><g class="entity" data-qualified-name="GMN22" data-source-line="63" id="ent0023"><path d="M17.5,443.4871 L17.5,471.6484 A4.375,4.375 0 0 0 21.875,476.0234 L324.4963,476.0234 A4.375,4.375 0 0 0 328.8713,471.6484 L328.8713,453.6955 L314.2879,439.1121 L21.875,439.1121 A4.375,4.375 0 0 0 17.5,443.4871" fill="#FFFCD8" style="stroke:#181818;stroke-width:0.7292;"/><path d="M314.2879,439.1121 L314.2879,451.508 A2.1875,2.1875 0 0 0 316.4754,453.6955 L328.8713,453.6955 L314.2879,439.1121" fill="#FFFCD8" style="stroke:#181818;stroke-width:1.4583;"/><text fill="#000000" font-family="sans-serif" font-size="18.9583" lengthAdjust="spacing" textLength="280.7463" x="26.25" y="464.7327">Supertype uit het hoofdmodel.</text></g><line style="stroke:#444444;stroke-width:1.4583;" x1="498.0143" x2="498.0143" y1="272.9618" y2="341.9564"/><line style="stroke:#444444;stroke-width:1.4583;" x1="498.0143" x2="730.575" y1="341.9564" y2="341.9564"/><line style="stroke:#444444;stroke-width:1.4583;" x1="730.575" x2="730.575" y1="341.9564" y2="439.1121"/><polygon fill="#444444" points="730.575,439.1121,736.4084,425.9871,730.575,431.8205,724.7417,425.9871,730.575,439.1121" style="stroke:#444444;stroke-width:1.4583;"/><text fill="#333333" font-family="sans-serif" font-size="18.9583" lengthAdjust="spacing" textLength="49.8675" x="674.8743" y="377.7852">bevat</text><text fill="#333333" font-family="sans-serif" font-size="18.9583" lengthAdjust="spacing" textLength="11.9878" x="502.3893" y="294.2074">1</text><text fill="#333333" font-family="sans-serif" font-size="18.9583" lengthAdjust="spacing" textLength="33.1215" x="734.95" y="432.1965">0..*</text><line style="stroke:#444444;stroke-width:1.4583;" x1="548.1308" x2="548.1308" y1="272.9618" y2="327.373"/><line style="stroke:#444444;stroke-width:1.4583;" x1="548.1308" x2="934.2824" y1="327.373" y2="327.373"/><line style="stroke:#444444;stroke-width:1.4583;" x1="934.2824" x2="934.2824" y1="327.373" y2="595.507"/><line style="stroke:#444444;stroke-width:1.4583;" x1="934.2824" x2="814.1026" y1="595.507" y2="595.507"/><line style="stroke:#444444;stroke-width:1.4583;" x1="814.1026" x2="814.1026" y1="595.507" y2="635.3349"/><polygon fill="#444444" points="814.1026,635.3349,819.9359,622.2099,814.1026,628.0432,808.2693,622.2099,814.1026,635.3349" style="stroke:#444444;stroke-width:1.4583;"/><text fill="#333333" font-family="sans-serif" font-size="18.9583" lengthAdjust="spacing" textLength="40.4994" x="887.9497" y="475.8966">kent</text><text fill="#333333" font-family="sans-serif" font-size="18.9583" lengthAdjust="spacing" textLength="11.9878" x="552.5058" y="294.2074">1</text><text fill="#333333" font-family="sans-serif" font-size="18.9583" lengthAdjust="spacing" textLength="33.1215" x="818.4776" y="628.4192">1..*</text><line style="stroke:#444444;stroke-width:1.4583;" x1="730.575" x2="730.575" y1="498.3512" y2="635.3349"/><polygon fill="#444444" points="730.575,635.3349,736.4084,622.2099,730.575,628.0432,724.7417,622.2099,730.575,635.3349" style="stroke:#444444;stroke-width:1.4583;"/><text fill="#333333" font-family="sans-serif" font-size="18.9583" lengthAdjust="spacing" textLength="40.4994" x="684.2423" y="574.008">kent</text><text fill="#333333" font-family="sans-serif" font-size="18.9583" lengthAdjust="spacing" textLength="11.9878" x="734.95" y="519.5968">1</text><text fill="#333333" font-family="sans-serif" font-size="18.9583" lengthAdjust="spacing" textLength="33.1215" x="734.95" y="628.4192">0..*</text><line style="stroke:#444444;stroke-width:1.4583;" x1="598.2474" x2="598.2474" y1="272.9618" y2="312.7897"/><line style="stroke:#444444;stroke-width:1.4583;" x1="598.2474" x2="1118.8763" y1="312.7897" y2="312.7897"/><line style="stroke:#444444;stroke-width:1.4583;" x1="1118.8763" x2="1118.8763" y1="312.7897" y2="439.1121"/><polygon fill="#444444" points="1118.8763,439.1121,1124.7097,425.9871,1118.8763,431.8205,1113.043,425.9871,1118.8763,439.1121" style="stroke:#444444;stroke-width:1.4583;"/><text fill="#333333" font-family="sans-serif" font-size="18.9583" lengthAdjust="spacing" textLength="79.5824" x="1033.4606" y="377.7852">refereert</text><text fill="#333333" font-family="sans-serif" font-size="18.9583" lengthAdjust="spacing" textLength="11.9878" x="602.6224" y="294.2074">1</text><text fill="#333333" font-family="sans-serif" font-size="18.9583" lengthAdjust="spacing" textLength="33.1215" x="1123.2513" y="432.1965">1..*</text><line style="stroke:#444444;stroke-width:1.4583;" x1="447.8977" x2="447.8977" y1="272.9618" y2="439.1121"/><polygon fill="#444444" points="447.8977,439.1121,453.7311,425.9871,447.8977,431.8205,442.0644,425.9871,447.8977,439.1121" style="stroke:#444444;stroke-width:1.4583;"/><text fill="#333333" font-family="sans-serif" font-size="18.9583" lengthAdjust="spacing" textLength="59.4484" x="382.616" y="377.7852">ligt op</text><text fill="#333333" font-family="sans-serif" font-size="18.9583" lengthAdjust="spacing" textLength="33.1215" x="452.2727" y="294.2074">0..*</text><text fill="#333333" font-family="sans-serif" font-size="18.9583" lengthAdjust="spacing" textLength="33.1215" x="452.2727" y="432.1965">1..*</text><line style="stroke:#444444;stroke-width:1.4583;" x1="256.7132" x2="256.7132" y1="76.7391" y2="116.567"/><line style="stroke:#444444;stroke-width:1.4583;" x1="256.7132" x2="523.0726" y1="116.567" y2="116.567"/><line style="stroke:#444444;stroke-width:1.4583;" x1="523.0726" x2="523.0726" y1="116.567" y2="213.7227"/><polygon fill="#444444" points="523.0726,213.7227,528.9059,200.5977,523.0726,206.4311,517.2392,200.5977,523.0726,213.7227" style="stroke:#444444;stroke-width:1.4583;"/><text fill="#333333" font-family="sans-serif" font-size="18.9583" lengthAdjust="spacing" textLength="32.0477" x="530.3642" y="152.3958">van</text><text fill="#333333" font-family="sans-serif" font-size="18.9583" lengthAdjust="spacing" textLength="9.1367" x="261.0882" y="97.9846">*</text><text fill="#333333" font-family="sans-serif" font-size="18.9583" lengthAdjust="spacing" textLength="11.9878" x="527.4476" y="206.807">1</text><line style="stroke:#444444;stroke-width:1.4583;" x1="173.1856" x2="173.1856" y1="76.7391" y2="213.7227"/><polygon fill="#444444" points="173.1856,213.7227,179.019,200.5977,173.1856,206.4311,167.3523,200.5977,173.1856,213.7227" style="stroke:#444444;stroke-width:1.4583;"/><text fill="#333333" font-family="sans-serif" font-size="18.9583" lengthAdjust="spacing" textLength="15.1444" x="152.2078" y="152.3958">is</text><text fill="#333333" font-family="sans-serif" font-size="18.9583" lengthAdjust="spacing" textLength="9.1367" x="177.5606" y="97.9846">*</text><text fill="#333333" font-family="sans-serif" font-size="18.9583" lengthAdjust="spacing" textLength="11.9878" x="177.5606" y="206.807">1</text><line style="stroke:#444444;stroke-width:1.4583;stroke-dasharray:10.2083,10.2083;" x1="1118.8763" x2="1118.8763" y1="498.3512" y2="635.3349"/><line style="stroke:#444444;stroke-width:1.4583;stroke-dasharray:10.2083,10.2083;" x1="447.8977" x2="447.8977" y1="498.3512" y2="635.3349"/><line style="stroke:#444444;stroke-width:1.4583;stroke-dasharray:10.2083,10.2083;" x1="173.1856" x2="173.1856" y1="272.9618" y2="439.1121"/><?plantuml-src bLHBRvj04BxlhvZIMoLREBOJ1qMM74TMUwahHLMatWPsmCImYvObbbFvltTvsDq2Hka2bvdlCG_WKwOmIX4IFCf20oLxnl9zB39Kc0BFOfZCN2iI99ZdAwrLx1UQlWLIFCVl13Oato6NXrX446AIavLHiX1yBPKW1RTMV5sAFcAmZnf48XLytgpAgmEJYfDg8FFgM92LKlBG96VLQIStKkW6CAsE1VWkDNNBs6pMJmksYpa1fPa-GagfJoglGq6iWeHOUqGF3vX4b1A9vH9-Cu2ERZYbUJWlCtP7jpZnxz54lnAQw3NMgSUFAyfp4YDpH-JBud3TcnRXdExRtZTqnwStrxqRLe-t54gI8i5fz8xxWPuvBVXjsnVTcUkw0ptNh1xV0wBH6NtOFg0P1HrxFfdDxmRiQzQ9ePzhXO6ktU47AXs_WhtfDcHLxuIKRmhT-gzaCjSsnHfLKW5H0dr3PKpBYFJEV3vbVpNXPVlhednr7ZRwoSZB_sAyLA0FeHyfGH7joFVBz23bnDZVsfs90wFH4XntFFxYjChqmAStr7tmoHdUrEY14Q-G5hyhta7tw_RjpmD5eMc5r3_4MjhYdXVfGH976cJ6MhDnBdZ7Mg87RoY6eCrhvq6SCoRC7mjygRLCGOPzzPhD_8mrS5DAAhcffy48CFVvxHipOmEbM4UoQQCZixqi5Ag53abK5Hk5vo8pKpjc18NHsf5vf0nv9MZn_m00?></g></svg>