<svg xmlns="http://www.w3.org/2000/svg" xmlns:xlink="http://www.w3.org/1999/xlink" contentStyleType="text/css" data-diagram-type="CLASS" height="797.7083px" preserveAspectRatio="none" style="width:1149px;height:797px;background:#FFFFFF;" version="1.1" viewBox="0 0 1149 797" width="1149.1667px" zoomAndPan="magnify"><?plantuml 1.2026.3?><defs/><g><!--class Partij--><g class="entity" data-qualified-name="Partij" data-source-line="25" id="ent0002"><rect fill="#F3E5F5" height="59.2391" rx="4.375" ry="4.375" style="stroke:#6A1B9A;stroke-width:0.7292;" width="103.3366" x="828.6797" y="17.5"/><text fill="#000000" font-family="sans-serif" font-size="17.5" font-style="italic" lengthAdjust="spacing" textLength="100.4199" x="830.138" y="41.7106">&#171;algemeen&#187;</text><text fill="#000000" font-family="sans-serif" font-size="20.4167" font-style="italic" lengthAdjust="spacing" textLength="50.6628" x="855.0166" y="65.1408">Partij</text></g><!--class NatuurlijkPersoon--><g class="entity" data-qualified-name="NatuurlijkPersoon" data-source-line="28" id="ent0003"><rect fill="#E8F0FE" height="59.2391" rx="4.375" ry="4.375" style="stroke:#1967D2;stroke-width:0.7292;" width="185.5615" x="756.6403" y="220.5117"/><text fill="#000000" font-family="sans-serif" font-size="17.5" font-style="italic" lengthAdjust="spacing" textLength="97.4036" x="800.7193" y="244.7223">&#171;personen&#187;</text><text fill="#000000" font-family="sans-serif" font-size="20.4167" lengthAdjust="spacing" textLength="176.8115" x="761.0153" y="268.1525">NatuurlijkPersoon</text></g><!--class IngeschrevenPersoon--><g class="entity" data-qualified-name="IngeschrevenPersoon" data-source-line="29" id="ent0004"><rect fill="#E8F0FE" height="59.2391" rx="4.375" ry="4.375" style="stroke:#1967D2;stroke-width:0.7292;" width="218.4595" x="740.1913" y="344.873"/><text fill="#000000" font-family="sans-serif" font-size="17.5" font-style="italic" lengthAdjust="spacing" textLength="97.4036" x="800.7193" y="369.0837">&#171;personen&#187;</text><text fill="#000000" font-family="sans-serif" font-size="20.4167" lengthAdjust="spacing" textLength="209.7095" x="744.5663" y="392.5138">IngeschrevenPersoon</text></g><!--class Ingezetene--><g class="entity" data-qualified-name="Ingezetene" data-source-line="30" id="ent0005"><rect fill="#E8F0FE" height="59.2391" rx="4.375" ry="4.375" style="stroke:#1967D2;stroke-width:0.7292;" width="117.5425" x="175.7235" y="586.8068"/><text fill="#000000" font-family="sans-serif" font-size="17.5" font-style="italic" lengthAdjust="spacing" textLength="97.4036" x="185.7929" y="611.0175">&#171;personen&#187;</text><text fill="#000000" font-family="sans-serif" font-size="20.4167" lengthAdjust="spacing" textLength="108.7925" x="180.0985" y="634.4476">Ingezetene</text></g><!--class NietIngezetene--><g class="entity" data-qualified-name="NietIngezetene" data-source-line="31" id="ent0006"><rect fill="#E8F0FE" height="59.2391" rx="4.375" ry="4.375" style="stroke:#1967D2;stroke-width:0.7292;" width="157.5385" x="848.6731" y="586.8068"/><text fill="#000000" font-family="sans-serif" font-size="17.5" font-style="italic" lengthAdjust="spacing" textLength="97.4036" x="878.7405" y="611.0175">&#171;personen&#187;</text><text fill="#000000" font-family="sans-serif" font-size="20.4167" lengthAdjust="spacing" textLength="148.7885" x="853.0481" y="634.4476">NietIngezetene</text></g><!--class Immigratie--><g class="entity" data-qualified-name="Immigratie" data-source-line="35" id="ent0007"><rect fill="#E8F0FE" height="59.2391" rx="4.375" ry="4.375" style="stroke:#1967D2;stroke-width:0.7292;" width="115.9275" x="481.0848" y="599.4291"/><text fill="#000000" font-family="sans-serif" font-size="17.5" font-style="italic" lengthAdjust="spacing" textLength="97.4036" x="490.3468" y="623.6397">&#171;personen&#187;</text><text fill="#000000" font-family="sans-serif" font-size="20.4167" lengthAdjust="spacing" textLength="107.1775" x="485.4598" y="647.0699">Immigratie</text></g><!--class Nationaliteit--><g class="entity" data-qualified-name="Nationaliteit" data-source-line="36" id="ent0008"><rect fill="#E8F0FE" height="59.2391" rx="4.375" ry="4.375" style="stroke:#1967D2;stroke-width:0.7292;" width="129.4855" x="322.4327" y="599.4291"/><text fill="#000000" font-family="sans-serif" font-size="17.5" font-style="italic" lengthAdjust="spacing" textLength="97.4036" x="338.4736" y="623.6397">&#171;personen&#187;</text><text fill="#000000" font-family="sans-serif" font-size="20.4167" lengthAdjust="spacing" textLength="120.7355" x="326.8077" y="647.0699">Nationaliteit</text></g><!--class Huwelijk--><g class="entity" data-qualified-name="Huwelijk" data-source-line="37" id="ent0009"><rect fill="#E8F0FE" height="59.2391" rx="4.375" ry="4.375" style="stroke:#1967D2;stroke-width:0.7292;" width="100.3202" x="699.1928" y="17.5"/><text fill="#000000" font-family="sans-serif" font-size="17.5" font-style="italic" lengthAdjust="spacing" textLength="97.4036" x="700.6511" y="41.7106">&#171;personen&#187;</text><text fill="#000000" font-family="sans-serif" font-size="20.4167" lengthAdjust="spacing" textLength="84.7272" x="706.9893" y="65.1408">Huwelijk</text></g><!--class Verblijfstitel--><g class="entity" data-qualified-name="Verblijfstitel" data-source-line="38" id="ent0010"><rect fill="#E8F0FE" height="59.2391" rx="4.375" ry="4.375" style="stroke:#1967D2;stroke-width:0.7292;" width="129.0568" x="17.5" y="599.4291"/><text fill="#000000" font-family="sans-serif" font-size="17.5" font-style="italic" lengthAdjust="spacing" textLength="97.4036" x="33.3266" y="623.6397">&#171;personen&#187;</text><text fill="#000000" font-family="sans-serif" font-size="20.4167" lengthAdjust="spacing" textLength="120.3068" x="21.875" y="647.0699">Verblijfstitel</text></g><!--class Gezagsverhouding--><g class="entity" data-qualified-name="Gezagsverhouding" data-source-line="39" id="ent0011"><rect fill="#E8F0FE" height="59.2391" rx="4.375" ry="4.375" style="stroke:#1967D2;stroke-width:0.7292;" width="193.3274" x="626.179" y="599.4291"/><text fill="#000000" font-family="sans-serif" font-size="17.5" font-style="italic" lengthAdjust="spacing" textLength="97.4036" x="674.1409" y="623.6397">&#171;personen&#187;</text><text fill="#000000" font-family="sans-serif" font-size="20.4167" lengthAdjust="spacing" textLength="184.5774" x="630.554" y="647.0699">Gezagsverhouding</text></g><g class="entity" data-qualified-name="GMN22" data-source-line="55" id="ent0023"><path d="M35.6483,721.3765 L35.6483,771.8656 A4.375,4.375 0 0 0 40.0233,776.2406 L428.9661,776.2406 A4.375,4.375 0 0 0 433.3411,771.8656 L433.3411,731.5849 L418.7578,717.0015 L40.0233,717.0015 A4.375,4.375 0 0 0 35.6483,721.3765" fill="#FFFCD8" style="stroke:#181818;stroke-width:0.7292;"/><path d="M418.7578,717.0015 L418.7578,729.3974 A2.1875,2.1875 0 0 0 420.9453,731.5849 L433.3411,731.5849 L418.7578,717.0015" fill="#FFFCD8" style="stroke:#181818;stroke-width:1.4583;"/><text fill="#000000" font-family="sans-serif" font-size="18.9583" lengthAdjust="spacing" textLength="258.3073" x="44.3983" y="742.6221">BRP-GBA &#8212; woont op Adres</text><text fill="#000000" font-family="sans-serif" font-size="18.9583" lengthAdjust="spacing" textLength="367.0678" x="44.3983" y="764.95">(zie deelmodel Adressen en gebouwen).</text></g><g class="entity" data-qualified-name="GMN25" data-source-line="60" id="ent0026"><path d="M726.5594,721.3765 L726.5594,749.5378 A4.375,4.375 0 0 0 730.9344,753.9128 L1123.9502,753.9128 A4.375,4.375 0 0 0 1128.3252,749.5378 L1128.3252,731.5849 L1113.7419,717.0015 L730.9344,717.0015 A4.375,4.375 0 0 0 726.5594,721.3765" fill="#FFFCD8" style="stroke:#181818;stroke-width:0.7292;"/><path d="M1113.7419,717.0015 L1113.7419,729.3974 A2.1875,2.1875 0 0 0 1115.9294,731.5849 L1128.3252,731.5849 L1113.7419,717.0015" fill="#FFFCD8" style="stroke:#181818;stroke-width:1.4583;"/><text fill="#000000" font-family="sans-serif" font-size="18.9583" lengthAdjust="spacing" textLength="371.1408" x="735.3094" y="742.6221">BRP-RNI &#8212; typisch op Buitenlandsadres.</text></g><g class="entity" data-qualified-name="GMN28" data-source-line="64" id="ent0029"><path d="M275.1959,209.3477 L275.1959,282.1647 A4.375,4.375 0 0 0 279.5709,286.5397 L596.0684,286.5397 A4.375,4.375 0 0 0 600.4434,282.1647 L600.4434,219.5561 L585.8601,204.9727 L279.5709,204.9727 A4.375,4.375 0 0 0 275.1959,209.3477" fill="#FFFCD8" style="stroke:#181818;stroke-width:0.7292;"/><path d="M585.8601,204.9727 L585.8601,217.3686 A2.1875,2.1875 0 0 0 588.0476,219.5561 L600.4434,219.5561 L585.8601,204.9727" fill="#FFFCD8" style="stroke:#181818;stroke-width:1.4583;"/><text fill="#000000" font-family="sans-serif" font-size="18.9583" lengthAdjust="spacing" textLength="270.2581" x="283.9459" y="230.5933">Tussen 2 NatuurlijkPersonen.</text><text fill="#000000" font-family="sans-serif" font-size="18.9583" lengthAdjust="spacing" textLength="294.6225" x="283.9459" y="252.9211">Incl. geregistreerd partnerschap</text><text fill="#000000" font-family="sans-serif" font-size="18.9583" lengthAdjust="spacing" textLength="190.0184" x="283.9459" y="275.249">via soortVerbintenis.</text></g><line style="stroke:#444444;stroke-width:1.4583;" x1="880.348" x2="880.348" y1="76.7391" y2="220.5117"/><polygon fill="#FFFFFF" points="880.348,76.7391,870.1397,104.4474,890.5563,104.4474,880.348,76.7391" style="stroke:#444444;stroke-width:1.4583;"/><line style="stroke:#444444;stroke-width:1.4583;" x1="849.4211" x2="849.4211" y1="279.7508" y2="344.873"/><polygon fill="#FFFFFF" points="849.4211,279.7508,839.2127,307.4591,859.6294,307.4591,849.4211,279.7508" style="stroke:#444444;stroke-width:1.4583;"/><line style="stroke:#444444;stroke-width:1.4583;" x1="802.6083" x2="802.6083" y1="404.1121" y2="458.5234"/><line style="stroke:#444444;stroke-width:1.4583;" x1="802.6083" x2="234.4947" y1="458.5234" y2="458.5234"/><line style="stroke:#444444;stroke-width:1.4583;" x1="234.4947" x2="234.4947" y1="458.5234" y2="586.8068"/><polygon fill="#FFFFFF" points="802.6083,404.1121,792.4,431.8205,812.8167,431.8205,802.6083,404.1121" style="stroke:#444444;stroke-width:1.4583;"/><line style="stroke:#444444;stroke-width:1.4583;" x1="927.4423" x2="927.4423" y1="404.1121" y2="586.8068"/><polygon fill="#FFFFFF" points="927.4423,404.1121,917.234,431.8205,937.6507,431.8205,927.4423,404.1121" style="stroke:#444444;stroke-width:1.4583;"/><line style="stroke:#444444;stroke-width:1.4583;" x1="756.6403" x2="742.057" y1="240.258" y2="240.258"/><line style="stroke:#444444;stroke-width:1.4583;" x1="742.057" x2="742.057" y1="240.258" y2="260.0044"/><line style="stroke:#444444;stroke-width:1.4583;" x1="742.057" x2="756.6403" y1="260.0044" y2="260.0044"/><polygon fill="#444444" points="756.6403,260.0044,762.4737,246.8794,756.6403,252.7127,750.807,246.8794,756.6403,260.0044" style="stroke:#444444;stroke-width:1.4583;"/><text fill="#333333" font-family="sans-serif" font-size="18.9583" lengthAdjust="spacing" textLength="103.6969" x="632.5268" y="234.9683">heeftOuder</text><text fill="#333333" font-family="sans-serif" font-size="18.9583" lengthAdjust="spacing" textLength="33.1215" x="706.0188" y="260.2128">0..*</text><text fill="#333333" font-family="sans-serif" font-size="18.9583" lengthAdjust="spacing" textLength="35.9727" x="703.1676" y="282.5407">0..2</text><line style="stroke:#444444;stroke-width:1.4583;" x1="766.073" x2="766.073" y1="76.7391" y2="173.8949"/><line style="stroke:#444444;stroke-width:1.4583;" x1="766.073" x2="818.4942" y1="173.8949" y2="173.8949"/><line style="stroke:#444444;stroke-width:1.4583;" x1="818.4942" x2="818.4942" y1="173.8949" y2="220.5117"/><polygon fill="#444444" points="818.4942,220.5117,824.3275,207.3867,818.4942,213.22,812.6608,207.3867,818.4942,220.5117" style="stroke:#444444;stroke-width:1.4583;"/><text fill="#333333" font-family="sans-serif" font-size="18.9583" lengthAdjust="spacing" textLength="76.9997" x="683.2399" y="152.3958">partners</text><text fill="#333333" font-family="sans-serif" font-size="18.9583" lengthAdjust="spacing" textLength="11.9878" x="770.448" y="97.9846">1</text><text fill="#333333" font-family="sans-serif" font-size="18.9583" lengthAdjust="spacing" textLength="11.9878" x="822.8692" y="206.807">2</text><line style="stroke:#444444;stroke-width:1.4583;" x1="833.8168" x2="833.8168" y1="404.1121" y2="473.1067"/><line style="stroke:#444444;stroke-width:1.4583;" x1="833.8168" x2="387.1754" y1="473.1067" y2="473.1067"/><line style="stroke:#444444;stroke-width:1.4583;" x1="387.1754" x2="387.1754" y1="473.1067" y2="599.4291"/><polygon fill="#444444" points="387.1754,599.4291,393.0087,586.3041,387.1754,592.1375,381.3421,586.3041,387.1754,599.4291" style="stroke:#444444;stroke-width:1.4583;"/><text fill="#333333" font-family="sans-serif" font-size="18.9583" lengthAdjust="spacing" textLength="46.9515" x="334.3906" y="538.1022">heeft</text><text fill="#333333" font-family="sans-serif" font-size="18.9583" lengthAdjust="spacing" textLength="11.9878" x="838.1918" y="425.3577">1</text><text fill="#333333" font-family="sans-serif" font-size="18.9583" lengthAdjust="spacing" textLength="33.1215" x="391.5504" y="592.5134">0..*</text><line style="stroke:#444444;stroke-width:1.4583;" x1="771.3998" x2="771.3998" y1="404.1121" y2="443.94"/><line style="stroke:#444444;stroke-width:1.4583;" x1="771.3998" x2="82.0284" y1="443.94" y2="443.94"/><line style="stroke:#444444;stroke-width:1.4583;" x1="82.0284" x2="82.0284" y1="443.94" y2="599.4291"/><polygon fill="#444444" points="82.0284,599.4291,87.8617,586.3041,82.0284,592.1375,76.1951,586.3041,82.0284,599.4291" style="stroke:#444444;stroke-width:1.4583;"/><text fill="#333333" font-family="sans-serif" font-size="18.9583" lengthAdjust="spacing" textLength="46.9515" x="29.2436" y="538.1022">heeft</text><text fill="#333333" font-family="sans-serif" font-size="18.9583" lengthAdjust="spacing" textLength="11.9878" x="775.7748" y="425.3577">1</text><text fill="#333333" font-family="sans-serif" font-size="18.9583" lengthAdjust="spacing" textLength="35.9727" x="86.4034" y="592.5134">0..1</text><line style="stroke:#444444;stroke-width:1.4583;" x1="896.2338" x2="896.2338" y1="404.1121" y2="502.2734"/><line style="stroke:#444444;stroke-width:1.4583;" x1="896.2338" x2="722.8427" y1="502.2734" y2="502.2734"/><line style="stroke:#444444;stroke-width:1.4583;" x1="722.8427" x2="722.8427" y1="502.2734" y2="599.4291"/><polygon fill="#444444" points="722.8427,599.4291,728.676,586.3041,722.8427,592.1375,717.0094,586.3041,722.8427,599.4291" style="stroke:#444444;stroke-width:1.4583;"/><text fill="#333333" font-family="sans-serif" font-size="18.9583" lengthAdjust="spacing" textLength="55.542" x="661.4674" y="538.1022">gezag</text><text fill="#333333" font-family="sans-serif" font-size="18.9583" lengthAdjust="spacing" textLength="11.9878" x="900.6088" y="425.3577">1</text><text fill="#333333" font-family="sans-serif" font-size="18.9583" lengthAdjust="spacing" textLength="35.9727" x="727.2177" y="592.5134">0..1</text><line style="stroke:#444444;stroke-width:1.4583;" x1="865.0253" x2="865.0253" y1="404.1121" y2="487.69"/><line style="stroke:#444444;stroke-width:1.4583;" x1="865.0253" x2="539.0486" y1="487.69" y2="487.69"/><line style="stroke:#444444;stroke-width:1.4583;" x1="539.0486" x2="539.0486" y1="487.69" y2="599.4291"/><polygon fill="#444444" points="539.0486,599.4291,544.8819,586.3041,539.0486,592.1375,533.2152,586.3041,539.0486,599.4291" style="stroke:#444444;stroke-width:1.4583;"/><text fill="#333333" font-family="sans-serif" font-size="18.9583" lengthAdjust="spacing" textLength="46.9515" x="486.2637" y="538.1022">heeft</text><text fill="#333333" font-family="sans-serif" font-size="18.9583" lengthAdjust="spacing" textLength="11.9878" x="869.4003" y="425.3577">1</text><text fill="#333333" font-family="sans-serif" font-size="18.9583" lengthAdjust="spacing" textLength="35.9727" x="543.4236" y="592.5134">0..1</text><line style="stroke:#444444;stroke-width:1.4583;stroke-dasharray:10.2083,10.2083;" x1="234.4947" x2="234.4947" y1="646.0459" y2="717.0015"/><line style="stroke:#444444;stroke-width:1.4583;stroke-dasharray:10.2083,10.2083;" x1="927.4423" x2="927.4423" y1="646.0459" y2="717.0015"/><line style="stroke:#444444;stroke-width:1.4583;stroke-dasharray:10.2083,10.2083;" x1="732.6329" x2="732.6329" y1="76.7391" y2="116.567"/><line style="stroke:#444444;stroke-width:1.4583;stroke-dasharray:10.2083,10.2083;" x1="732.6329" x2="437.8197" y1="116.567" y2="116.567"/><line style="stroke:#444444;stroke-width:1.4583;stroke-dasharray:10.2083,10.2083;" x1="437.8197" x2="437.8197" y1="116.567" y2="204.9727"/><?plantuml-src bLJBRjim4BppAxRkfIrW8ywhIH0Oi5CuySKDqg9tIbn9Z2bIeAWOSMkW7z4lx9TqASk6eaVJKZe8kxCxmrbIRpBBuvI3ui-cS81gnLY-aZhZbgSWCWdZqwDQ95GypwVEMHaK3XUXqL_a1g4EoHCkp5hg62AkSgnbh2cqk35MeuNpMlp6DvtnS1LN26Kil9rF_TE26IlGLf2pSjKWKslDkagUbgkPd1ljAi19kMg0fN7ObZ6VttowO8aK29XcxXbIJ0Eq-IuKIXigP4sBhg-vYZ55r9C9V6S0hRxH2Pv5PpvJtz4v7mUNdA9to2dQLxLjysKaoUX-Fho8ZY9iyeqlpp-Autw-gchBU90xoqEteuDxRfryXFes6NCcHfVGSBs07Mx9NL5O9HzNzrwVqL1NUe0jT8nvc5XyGlqgS8CEDNRdbn9T7sRRgN2HfZAstCc-ZfGocYlfKBfko5snHh_5xkmtj05beznH2zMDkSKDZ_Cdj8afXBywJU5xltyCXsrFMOVB7jZXAkjqUW_UkTQFUUakw-0T78r67mOm74xAp-D1nmcuWWGnSfyBEd3iuDrWN9NrrD1XTzfVkovrX-8T_SkPLNol5j9dOrR_KTcQu1N4FlGljRKZk6Taclv541ZdJ0ecga-7Rl33_V1sDeNVFt_1clevC1bCXSMSakysr4OWgjG8sa8Ppb43lJ46XkpMxqSCjG1FqI9gZ7X7zh1Sb6JkEPEq5qytAyWXhRWMEVSKVscv7p4r-rgKMewR4wPpFgBqGeTgH38jnf9-DuXM7EOU9ZmZo9FaG1vQvqSbDMcGTUu_?></g></svg>