<svg xmlns="http://www.w3.org/2000/svg" xmlns:xlink="http://www.w3.org/1999/xlink" contentStyleType="text/css" data-diagram-type="CLASS" height="1083.5417px" preserveAspectRatio="none" style="width:1538px;height:1083px;background:#FFFFFF;" version="1.1" viewBox="0 0 1538 1083" width="1538.5417px" zoomAndPan="magnify"><?plantuml 1.2026.3?><defs/><g><!--class Partij--><g class="entity" data-qualified-name="Partij" data-source-line="41" id="ent0002"><rect fill="#F3E5F5" height="59.2391" rx="4.375" ry="4.375" style="stroke:#6A1B9A;stroke-width:0.7292;" width="103.3366" x="142.4885" y="17.5"/><text fill="#000000" font-family="sans-serif" font-size="17.5" font-style="italic" lengthAdjust="spacing" textLength="100.4199" x="143.9468" y="41.7106">&#171;algemeen&#187;</text><text fill="#000000" font-family="sans-serif" font-size="20.4167" font-style="italic" lengthAdjust="spacing" textLength="50.6628" x="168.8253" y="65.1408">Partij</text></g><!--class NatuurlijkPersoon--><g class="entity" data-qualified-name="NatuurlijkPersoon" data-source-line="42" id="ent0003"><rect fill="#E8F0FE" height="59.2391" rx="4.375" ry="4.375" style="stroke:#1967D2;stroke-width:0.7292;" width="185.5615" x="84.1532" y="252.6449"/><text fill="#000000" font-family="sans-serif" font-size="17.5" font-style="italic" lengthAdjust="spacing" textLength="97.4036" x="128.2322" y="276.8555">&#171;personen&#187;</text><text fill="#000000" font-family="sans-serif" font-size="20.4167" lengthAdjust="spacing" textLength="176.8115" x="88.5282" y="300.2856">NatuurlijkPersoon</text></g><!--class NietNatuurlijkPersoon--><g class="entity" data-qualified-name="NietNatuurlijkPersoon" data-source-line="43" id="ent0004"><rect fill="#FFF4E5" height="59.2391" rx="4.375" ry="4.375" style="stroke:#E67E22;stroke-width:0.7292;" width="239.799" x="1061.8012" y="135.0724"/><text fill="#000000" font-family="sans-serif" font-size="17.5" font-style="italic" lengthAdjust="spacing" textLength="236.8823" x="1063.2596" y="159.283">&#171;bedrijven-en-instellingen&#187;</text><text fill="#000000" font-family="sans-serif" font-size="20.4167" lengthAdjust="spacing" textLength="216.8075" x="1073.297" y="182.7132">NietNatuurlijkPersoon</text></g><!--class OnderwijsInstelling--><g class="entity" data-qualified-name="OnderwijsInstelling" data-source-line="46" id="ent0005"><rect fill="#FFF8E1" height="59.2391" rx="4.375" ry="4.375" style="stroke:#B08800;stroke-width:0.7292;" width="199.1892" x="1082.1061" y="252.6449"/><text fill="#000000" font-family="sans-serif" font-size="17.5" font-style="italic" lengthAdjust="spacing" textLength="100.6592" x="1131.3712" y="276.8555">&#171;onderwijs&#187;</text><text fill="#000000" font-family="sans-serif" font-size="20.4167" lengthAdjust="spacing" textLength="190.4392" x="1086.4811" y="300.2856">OnderwijsInstelling</text></g><!--class Opleiding--><g class="entity" data-qualified-name="Opleiding" data-source-line="47" id="ent0006"><rect fill="#FFF8E1" height="59.2391" rx="4.375" ry="4.375" style="stroke:#B08800;stroke-width:0.7292;" width="104.7921" x="948.1474" y="252.6449"/><text fill="#000000" font-family="sans-serif" font-size="17.5" font-style="italic" lengthAdjust="spacing" textLength="100.6592" x="950.2138" y="276.8555">&#171;onderwijs&#187;</text><text fill="#000000" font-family="sans-serif" font-size="20.4167" lengthAdjust="spacing" textLength="96.0421" x="952.5224" y="300.2856">Opleiding</text></g><!--class OpleidingDeelname--><g class="entity" data-qualified-name="OpleidingDeelname" data-source-line="51" id="ent0007"><rect fill="#FFF8E1" height="59.2391" rx="4.375" ry="4.375" style="stroke:#B08800;stroke-width:0.7292;" width="203.1171" x="898.9849" y="492.6176"/><text fill="#000000" font-family="sans-serif" font-size="17.5" font-style="italic" lengthAdjust="spacing" textLength="100.6592" x="950.2138" y="516.8282">&#171;onderwijs&#187;</text><text fill="#000000" font-family="sans-serif" font-size="20.4167" lengthAdjust="spacing" textLength="194.3671" x="903.3599" y="540.2584">OpleidingDeelname</text></g><!--class ModuleInschrijving--><g class="entity" data-qualified-name="ModuleInschrijving" data-source-line="52" id="ent0008"><rect fill="#FFF8E1" height="59.2391" rx="4.375" ry="4.375" style="stroke:#B08800;stroke-width:0.7292;" width="196.0988" x="973.1402" y="703.4237"/><text fill="#000000" font-family="sans-serif" font-size="17.5" font-style="italic" lengthAdjust="spacing" textLength="100.6592" x="1020.86" y="727.6343">&#171;onderwijs&#187;</text><text fill="#000000" font-family="sans-serif" font-size="20.4167" lengthAdjust="spacing" textLength="187.3488" x="977.5152" y="751.0645">ModuleInschrijving</text></g><!--class BeroepspraktijkvormingPeriode--><g class="entity" data-qualified-name="BeroepspraktijkvormingPeriode" data-source-line="53" id="ent0009"><rect fill="#FFF8E1" height="59.2391" rx="4.375" ry="4.375" style="stroke:#B08800;stroke-width:0.7292;" width="318.9976" x="1198.4057" y="703.4237"/><text fill="#000000" font-family="sans-serif" font-size="17.5" font-style="italic" lengthAdjust="spacing" textLength="100.6592" x="1307.5749" y="727.6343">&#171;onderwijs&#187;</text><text fill="#000000" font-family="sans-serif" font-size="20.4167" lengthAdjust="spacing" textLength="310.2476" x="1202.7807" y="751.0645">BeroepspraktijkvormingPeriode</text></g><!--class OpleidingResultaat--><g class="entity" data-qualified-name="OpleidingResultaat" data-source-line="57" id="ent0010"><rect fill="#FFF8E1" height="59.2391" rx="4.375" ry="4.375" style="stroke:#B08800;stroke-width:0.7292;" width="195.8795" x="726.8168" y="703.4237"/><text fill="#000000" font-family="sans-serif" font-size="17.5" font-style="italic" lengthAdjust="spacing" textLength="100.6592" x="774.427" y="727.6343">&#171;onderwijs&#187;</text><text fill="#000000" font-family="sans-serif" font-size="20.4167" lengthAdjust="spacing" textLength="187.1295" x="731.1918" y="751.0645">OpleidingResultaat</text></g><!--class Vooropleiding--><g class="entity" data-qualified-name="Vooropleiding" data-source-line="58" id="ent0011"><rect fill="#FFF8E1" height="59.2391" rx="4.375" ry="4.375" style="stroke:#B08800;stroke-width:0.7292;" width="148.2572" x="750.628" y="840.4073"/><text fill="#000000" font-family="sans-serif" font-size="17.5" font-style="italic" lengthAdjust="spacing" textLength="100.6592" x="774.427" y="864.6179">&#171;onderwijs&#187;</text><text fill="#000000" font-family="sans-serif" font-size="20.4167" lengthAdjust="spacing" textLength="139.5072" x="755.003" y="888.0481">Vooropleiding</text></g><!--class VerzuimMelding--><g class="entity" data-qualified-name="VerzuimMelding" data-source-line="61" id="ent0012"><rect fill="#FFF8E1" height="59.2391" rx="4.375" ry="4.375" style="stroke:#B08800;stroke-width:0.7292;" width="170.1792" x="466.154" y="492.6176"/><text fill="#000000" font-family="sans-serif" font-size="17.5" font-style="italic" lengthAdjust="spacing" textLength="100.6592" x="500.914" y="516.8282">&#171;onderwijs&#187;</text><text fill="#000000" font-family="sans-serif" font-size="20.4167" lengthAdjust="spacing" textLength="161.4292" x="470.529" y="540.2584">VerzuimMelding</text></g><!--class StudieFinanciering--><g class="entity" data-qualified-name="StudieFinanciering" data-source-line="64" id="ent0013"><rect fill="#FCECDA" height="59.2391" rx="4.375" ry="4.375" style="stroke:#B76B2C;stroke-width:0.7292;" width="195.1603" x="17.5" y="492.6176"/><text fill="#000000" font-family="sans-serif" font-size="17.5" font-style="italic" lengthAdjust="spacing" textLength="192.2437" x="18.9583" y="516.8282">&#171;onderwijs-financieel&#187;</text><text fill="#000000" font-family="sans-serif" font-size="20.4167" lengthAdjust="spacing" textLength="182.2845" x="23.9379" y="540.2584">StudieFinanciering</text></g><!--class StudieLening--><g class="entity" data-qualified-name="StudieLening" data-source-line="65" id="ent0014"><rect fill="#FCECDA" height="59.2391" rx="4.375" ry="4.375" style="stroke:#B76B2C;stroke-width:0.7292;" width="195.1603" x="241.827" y="492.6176"/><text fill="#000000" font-family="sans-serif" font-size="17.5" font-style="italic" lengthAdjust="spacing" textLength="192.2437" x="243.2853" y="516.8282">&#171;onderwijs-financieel&#187;</text><text fill="#000000" font-family="sans-serif" font-size="20.4167" lengthAdjust="spacing" textLength="127.664" x="275.5752" y="540.2584">StudieLening</text></g><g class="entity" data-qualified-name="GMN29" data-source-line="85" id="ent0030"><path d="M1131.2686,496.9926 L1131.2686,547.4817 A4.375,4.375 0 0 0 1135.6436,551.8567 L1476.2834,551.8567 A4.375,4.375 0 0 0 1480.6584,547.4817 L1480.6584,507.2009 L1466.075,492.6176 L1135.6436,492.6176 A4.375,4.375 0 0 0 1131.2686,496.9926" fill="#FFFCD8" style="stroke:#181818;stroke-width:0.7292;"/><path d="M1466.075,492.6176 L1466.075,505.0134 A2.1875,2.1875 0 0 0 1468.2625,507.2009 L1480.6584,507.2009 L1466.075,492.6176" fill="#FFFCD8" style="stroke:#181818;stroke-width:1.4583;"/><text fill="#000000" font-family="sans-serif" font-size="18.9583" lengthAdjust="spacing" textLength="318.7648" x="1140.0186" y="518.2381">Subtype van NietNatuurlijkPersoon</text><text fill="#000000" font-family="sans-serif" font-size="18.9583" lengthAdjust="spacing" textLength="253.7528" x="1140.0186" y="540.566">met BRIN en RIO-gegevens.</text></g><g class="entity" data-qualified-name="GMN32" data-source-line="90" id="ent0033"><path d="M928.0519,844.7823 L928.0519,895.2714 A4.375,4.375 0 0 0 932.4269,899.6464 L1209.9524,899.6464 A4.375,4.375 0 0 0 1214.3274,895.2714 L1214.3274,854.9906 L1199.7441,840.4073 L932.4269,840.4073 A4.375,4.375 0 0 0 928.0519,844.7823" fill="#FFFCD8" style="stroke:#181818;stroke-width:0.7292;"/><path d="M1199.7441,840.4073 L1199.7441,852.8031 A2.1875,2.1875 0 0 0 1201.9316,854.9906 L1214.3274,854.9906 L1199.7441,840.4073" fill="#FFFCD8" style="stroke:#181818;stroke-width:1.4583;"/><text fill="#000000" font-family="sans-serif" font-size="18.9583" lengthAdjust="spacing" textLength="127.0708" x="936.8019" y="866.0278">HO-specifiek.</text><text fill="#000000" font-family="sans-serif" font-size="18.9583" lengthAdjust="spacing" textLength="255.6505" x="936.8019" y="888.3557">ECTS per onderwijseenheid.</text></g><g class="entity" data-qualified-name="GMN35" data-source-line="95" id="ent0036"><path d="M1272.4054,844.7823 L1272.4054,895.2714 A4.375,4.375 0 0 0 1276.7804,899.6464 L1439.0286,899.6464 A4.375,4.375 0 0 0 1443.4036,895.2714 L1443.4036,854.9906 L1428.8202,840.4073 L1276.7804,840.4073 A4.375,4.375 0 0 0 1272.4054,844.7823" fill="#FFFCD8" style="stroke:#181818;stroke-width:0.7292;"/><path d="M1428.8202,840.4073 L1428.8202,852.8031 A2.1875,2.1875 0 0 0 1431.0077,854.9906 L1443.4036,854.9906 L1428.8202,840.4073" fill="#FFFCD8" style="stroke:#181818;stroke-width:1.4583;"/><text fill="#000000" font-family="sans-serif" font-size="18.9583" lengthAdjust="spacing" textLength="140.3731" x="1281.1554" y="866.0278">MBO-specifiek.</text><text fill="#000000" font-family="sans-serif" font-size="18.9583" lengthAdjust="spacing" textLength="104.2708" x="1281.1554" y="888.3557">BOL of BBL.</text></g><g class="entity" data-qualified-name="GMN38" data-source-line="100" id="ent0039"><path d="M673.2458,962.3547 L673.2458,1057.4996 A4.375,4.375 0 0 0 677.6208,1061.8746 L971.8923,1061.8746 A4.375,4.375 0 0 0 976.2673,1057.4996 L976.2673,972.5631 L961.684,957.9797 L677.6208,957.9797 A4.375,4.375 0 0 0 673.2458,962.3547" fill="#FFFCD8" style="stroke:#181818;stroke-width:0.7292;"/><path d="M961.684,957.9797 L961.684,970.3756 A2.1875,2.1875 0 0 0 963.8715,972.5631 L976.2673,972.5631 L961.684,957.9797" fill="#FFFCD8" style="stroke:#181818;stroke-width:1.4583;"/><text fill="#000000" font-family="sans-serif" font-size="18.9583" lengthAdjust="spacing" textLength="182.2796" x="681.9958" y="983.6003">Hetzelfde object als</text><text fill="#000000" font-family="sans-serif" font-size="18.9583" lengthAdjust="spacing" textLength="179.7617" x="681.9958" y="1005.9281">OpleidingResultaat,</text><text fill="#000000" font-family="sans-serif" font-size="18.9583" lengthAdjust="spacing" textLength="272.3964" x="681.9958" y="1028.256">in de rol van instroom-bewijs</text><text fill="#000000" font-family="sans-serif" font-size="18.9583" lengthAdjust="spacing" textLength="252.679" x="681.9958" y="1050.5839">bij een volgende deelname.</text></g><g class="entity" data-qualified-name="GMN41" data-source-line="107" id="ent0042"><path d="M184.0594,682.5541 L184.0594,777.699 A4.375,4.375 0 0 0 188.4344,782.074 L490.3799,782.074 A4.375,4.375 0 0 0 494.7549,777.699 L494.7549,692.7625 L480.1716,678.1791 L188.4344,678.1791 A4.375,4.375 0 0 0 184.0594,682.5541" fill="#FFFCD8" style="stroke:#181818;stroke-width:0.7292;"/><path d="M480.1716,678.1791 L480.1716,690.575 A2.1875,2.1875 0 0 0 482.3591,692.7625 L494.7549,692.7625 L480.1716,678.1791" fill="#FFFCD8" style="stroke:#181818;stroke-width:1.4583;"/><text fill="#000000" font-family="sans-serif" font-size="18.9583" lengthAdjust="spacing" textLength="280.0705" x="192.8094" y="703.7996">Geen B2B-koppelvlak bij DUO.</text><text fill="#000000" font-family="sans-serif" font-size="18.9583" lengthAdjust="spacing" textLength="210.7263" x="192.8094" y="726.1275">Inzage via Mijn DUO of</text><text fill="#000000" font-family="sans-serif" font-size="18.9583" lengthAdjust="spacing" textLength="217.9931" x="192.8094" y="748.4554">via een door de student</text><text fill="#000000" font-family="sans-serif" font-size="18.9583" lengthAdjust="spacing" textLength="272.415" x="192.8094" y="770.7833">gemachtigde dienstverlening.</text></g><line style="stroke:#444444;stroke-width:1.4583;" x1="176.934" x2="176.934" y1="76.7391" y2="252.6449"/><polygon fill="#FFFFFF" points="176.934,76.7391,166.7257,104.4474,187.1423,104.4474,176.934,76.7391" style="stroke:#444444;stroke-width:1.4583;"/><line style="stroke:#444444;stroke-width:1.4583;" x1="211.3795" x2="211.3795" y1="76.7391" y2="91.3224"/><line style="stroke:#444444;stroke-width:1.4583;" x1="211.3795" x2="1181.7007" y1="91.3224" y2="91.3224"/><line style="stroke:#444444;stroke-width:1.4583;" x1="1181.7007" x2="1181.7007" y1="91.3224" y2="135.0724"/><polygon fill="#FFFFFF" points="211.3795,76.7391,201.1712,104.4474,221.5879,104.4474,211.3795,76.7391" style="stroke:#444444;stroke-width:1.4583;"/><line style="stroke:#444444;stroke-width:1.4583;" x1="1181.7007" x2="1181.7007" y1="194.3115" y2="252.6449"/><polygon fill="#FFFFFF" points="1181.7007,194.3115,1171.4924,222.0199,1191.9091,222.0199,1181.7007,194.3115" style="stroke:#444444;stroke-width:1.4583;"/><line style="stroke:#444444;stroke-width:1.4583;" x1="824.7566" x2="824.7566" y1="762.6628" y2="840.4073"/><polygon fill="#FFFFFF" points="824.7566,762.6628,814.5482,790.3711,834.9649,790.3711,824.7566,762.6628" style="stroke:#444444;stroke-width:1.4583;"/><line style="stroke:#444444;stroke-width:1.4583;" x1="238.7878" x2="238.7878" y1="311.884" y2="351.7118"/><line style="stroke:#444444;stroke-width:1.4583;" x1="238.7878" x2="913.7854" y1="351.7118" y2="351.7118"/><line style="stroke:#444444;stroke-width:1.4583;" x1="913.7854" x2="913.7854" y1="351.7118" y2="452.7897"/><line style="stroke:#444444;stroke-width:1.4583;" x1="913.7854" x2="949.7641" y1="452.7897" y2="452.7897"/><line style="stroke:#444444;stroke-width:1.4583;" x1="949.7641" x2="949.7641" y1="452.7897" y2="492.6176"/><polygon fill="#444444" points="949.7641,492.6176,955.5975,479.4926,949.7641,485.3259,943.9308,479.4926,949.7641,492.6176" style="stroke:#444444;stroke-width:1.4583;"/><text fill="#333333" font-family="sans-serif" font-size="18.9583" lengthAdjust="spacing" textLength="96.8837" x="811.0683" y="431.2907">deelnemer</text><text fill="#333333" font-family="sans-serif" font-size="18.9583" lengthAdjust="spacing" textLength="11.9878" x="243.1628" y="333.1295">1</text><text fill="#333333" font-family="sans-serif" font-size="18.9583" lengthAdjust="spacing" textLength="33.1215" x="954.1391" y="485.7019">0..*</text><line style="stroke:#444444;stroke-width:1.4583;" x1="1148.5025" x2="1148.5025" y1="311.884" y2="452.7897"/><line style="stroke:#444444;stroke-width:1.4583;" x1="1148.5025" x2="1051.3227" y1="452.7897" y2="452.7897"/><line style="stroke:#444444;stroke-width:1.4583;" x1="1051.3227" x2="1051.3227" y1="452.7897" y2="492.6176"/><polygon fill="#444444" points="1051.3227,492.6176,1057.156,479.4926,1051.3227,485.3259,1045.4893,479.4926,1051.3227,492.6176" style="stroke:#444444;stroke-width:1.4583;"/><text fill="#333333" font-family="sans-serif" font-size="18.9583" lengthAdjust="spacing" textLength="107.7515" x="1034.9177" y="431.2907">bijInstelling</text><text fill="#333333" font-family="sans-serif" font-size="18.9583" lengthAdjust="spacing" textLength="11.9878" x="1152.8775" y="333.1295">1</text><text fill="#333333" font-family="sans-serif" font-size="18.9583" lengthAdjust="spacing" textLength="33.1215" x="1055.6977" y="485.7019">0..*</text><line style="stroke:#444444;stroke-width:1.4583;" x1="1000.5434" x2="1000.5434" y1="311.884" y2="492.6176"/><polygon fill="#444444" points="1000.5434,492.6176,1006.3767,479.4926,1000.5434,485.3259,994.7101,479.4926,1000.5434,492.6176" style="stroke:#444444;stroke-width:1.4583;"/><text fill="#333333" font-family="sans-serif" font-size="18.9583" lengthAdjust="spacing" textLength="61.9663" x="932.7437" y="431.2907">betreft</text><text fill="#333333" font-family="sans-serif" font-size="18.9583" lengthAdjust="spacing" textLength="11.9878" x="1004.9184" y="333.1295">1</text><text fill="#333333" font-family="sans-serif" font-size="18.9583" lengthAdjust="spacing" textLength="33.1215" x="1004.9184" y="485.7019">0..*</text><line style="stroke:#444444;stroke-width:1.4583;" x1="1000.5434" x2="1000.5434" y1="551.8567" y2="606.2679"/><line style="stroke:#444444;stroke-width:1.4583;" x1="1000.5434" x2="1071.1896" y1="606.2679" y2="606.2679"/><line style="stroke:#444444;stroke-width:1.4583;" x1="1071.1896" x2="1071.1896" y1="606.2679" y2="703.4237"/><polygon fill="#444444" points="1071.1896,703.4237,1077.023,690.2987,1071.1896,696.132,1065.3563,690.2987,1071.1896,703.4237" style="stroke:#444444;stroke-width:1.4583;"/><text fill="#333333" font-family="sans-serif" font-size="18.9583" lengthAdjust="spacing" textLength="56.7176" x="1008.6387" y="642.0968">omvat</text><text fill="#333333" font-family="sans-serif" font-size="18.9583" lengthAdjust="spacing" textLength="11.9878" x="1004.9184" y="573.1022">1</text><text fill="#333333" font-family="sans-serif" font-size="18.9583" lengthAdjust="spacing" textLength="33.1215" x="1075.5646" y="696.508">0..*</text><line style="stroke:#444444;stroke-width:1.4583;" x1="1051.3227" x2="1051.3227" y1="551.8567" y2="591.6846"/><line style="stroke:#444444;stroke-width:1.4583;" x1="1051.3227" x2="1357.9045" y1="591.6846" y2="591.6846"/><line style="stroke:#444444;stroke-width:1.4583;" x1="1357.9045" x2="1357.9045" y1="591.6846" y2="703.4237"/><polygon fill="#444444" points="1357.9045,703.4237,1363.7378,690.2987,1357.9045,696.132,1352.0712,690.2987,1357.9045,703.4237" style="stroke:#444444;stroke-width:1.4583;"/><text fill="#333333" font-family="sans-serif" font-size="18.9583" lengthAdjust="spacing" textLength="40.4994" x="1311.5718" y="642.0968">kent</text><text fill="#333333" font-family="sans-serif" font-size="18.9583" lengthAdjust="spacing" textLength="11.9878" x="1055.6977" y="573.1022">1</text><text fill="#333333" font-family="sans-serif" font-size="18.9583" lengthAdjust="spacing" textLength="33.1215" x="1362.2795" y="696.508">0..*</text><line style="stroke:#444444;stroke-width:1.4583;" x1="949.7641" x2="949.7641" y1="551.8567" y2="663.5958"/><line style="stroke:#444444;stroke-width:1.4583;" x1="949.7641" x2="857.4032" y1="663.5958" y2="663.5958"/><line style="stroke:#444444;stroke-width:1.4583;" x1="857.4032" x2="857.4032" y1="663.5958" y2="703.4237"/><polygon fill="#444444" points="857.4032,703.4237,863.2365,690.2987,857.4032,696.132,851.5698,690.2987,857.4032,703.4237" style="stroke:#444444;stroke-width:1.4583;"/><text fill="#333333" font-family="sans-serif" font-size="18.9583" lengthAdjust="spacing" textLength="71.2696" x="872.6612" y="642.0968">leidtTot</text><text fill="#333333" font-family="sans-serif" font-size="18.9583" lengthAdjust="spacing" textLength="35.9727" x="954.1391" y="573.1022">0..1</text><text fill="#333333" font-family="sans-serif" font-size="18.9583" lengthAdjust="spacing" textLength="33.1215" x="861.7782" y="696.508">0..*</text><line style="stroke:#444444;stroke-width:1.4583;" x1="207.8609" x2="207.8609" y1="311.884" y2="366.2952"/><line style="stroke:#444444;stroke-width:1.4583;" x1="207.8609" x2="792.11" y1="366.2952" y2="366.2952"/><line style="stroke:#444444;stroke-width:1.4583;" x1="792.11" x2="792.11" y1="366.2952" y2="703.4237"/><polygon fill="#444444" points="792.11,703.4237,797.9433,690.2987,792.11,696.132,786.2767,690.2987,792.11,703.4237" style="stroke:#444444;stroke-width:1.4583;"/><text fill="#333333" font-family="sans-serif" font-size="18.9583" lengthAdjust="spacing" textLength="117.8601" x="668.4165" y="529.4021">behaaldDoor</text><text fill="#333333" font-family="sans-serif" font-size="18.9583" lengthAdjust="spacing" textLength="11.9878" x="212.2359" y="333.1295">1</text><text fill="#333333" font-family="sans-serif" font-size="18.9583" lengthAdjust="spacing" textLength="33.1215" x="796.485" y="696.508">0..*</text><line style="stroke:#444444;stroke-width:1.4583;" x1="176.934" x2="176.934" y1="311.884" y2="380.8785"/><line style="stroke:#444444;stroke-width:1.4583;" x1="176.934" x2="551.2436" y1="380.8785" y2="380.8785"/><line style="stroke:#444444;stroke-width:1.4583;" x1="551.2436" x2="551.2436" y1="380.8785" y2="492.6176"/><polygon fill="#444444" points="551.2436,492.6176,557.0769,479.4926,551.2436,485.3259,545.4103,479.4926,551.2436,492.6176" style="stroke:#444444;stroke-width:1.4583;"/><text fill="#333333" font-family="sans-serif" font-size="18.9583" lengthAdjust="spacing" textLength="61.9663" x="483.4439" y="431.2907">betreft</text><text fill="#333333" font-family="sans-serif" font-size="18.9583" lengthAdjust="spacing" textLength="11.9878" x="181.309" y="333.1295">1</text><text fill="#333333" font-family="sans-serif" font-size="18.9583" lengthAdjust="spacing" textLength="33.1215" x="555.6186" y="485.7019">0..*</text><line style="stroke:#444444;stroke-width:1.4583;" x1="115.0802" x2="115.0802" y1="311.884" y2="492.6176"/><polygon fill="#444444" points="115.0802,492.6176,120.9135,479.4926,115.0802,485.3259,109.2468,479.4926,115.0802,492.6176" style="stroke:#444444;stroke-width:1.4583;"/><text fill="#333333" font-family="sans-serif" font-size="18.9583" lengthAdjust="spacing" textLength="81.4616" x="27.7852" y="431.2907">ontvangt</text><text fill="#333333" font-family="sans-serif" font-size="18.9583" lengthAdjust="spacing" textLength="11.9878" x="119.4552" y="333.1295">1</text><text fill="#333333" font-family="sans-serif" font-size="18.9583" lengthAdjust="spacing" textLength="35.9727" x="119.4552" y="485.7019">0..1</text><line style="stroke:#444444;stroke-width:1.4583;" x1="146.0071" x2="146.0071" y1="311.884" y2="395.4618"/><line style="stroke:#444444;stroke-width:1.4583;" x1="146.0071" x2="339.4071" y1="395.4618" y2="395.4618"/><line style="stroke:#444444;stroke-width:1.4583;" x1="339.4071" x2="339.4071" y1="395.4618" y2="492.6176"/><polygon fill="#444444" points="339.4071,492.6176,345.2405,479.4926,339.4071,485.3259,333.5738,479.4926,339.4071,492.6176" style="stroke:#444444;stroke-width:1.4583;"/><text fill="#333333" font-family="sans-serif" font-size="18.9583" lengthAdjust="spacing" textLength="46.9515" x="286.6223" y="431.2907">heeft</text><text fill="#333333" font-family="sans-serif" font-size="18.9583" lengthAdjust="spacing" textLength="11.9878" x="150.3821" y="333.1295">1</text><text fill="#333333" font-family="sans-serif" font-size="18.9583" lengthAdjust="spacing" textLength="35.9727" x="343.7821" y="485.7019">0..1</text><line style="stroke:#444444;stroke-width:1.4583;stroke-dasharray:10.2083,10.2083;" x1="1214.899" x2="1214.899" y1="311.884" y2="351.7118"/><line style="stroke:#444444;stroke-width:1.4583;stroke-dasharray:10.2083,10.2083;" x1="1214.899" x2="1305.9635" y1="351.7118" y2="351.7118"/><line style="stroke:#444444;stroke-width:1.4583;stroke-dasharray:10.2083,10.2083;" x1="1305.9635" x2="1305.9635" y1="351.7118" y2="492.6176"/><line style="stroke:#444444;stroke-width:1.4583;stroke-dasharray:10.2083,10.2083;" x1="1071.1896" x2="1071.1896" y1="762.6628" y2="840.4073"/><line style="stroke:#444444;stroke-width:1.4583;stroke-dasharray:10.2083,10.2083;" x1="1357.9045" x2="1357.9045" y1="762.6628" y2="840.4073"/><line style="stroke:#444444;stroke-width:1.4583;stroke-dasharray:10.2083,10.2083;" x1="824.7566" x2="824.7566" y1="899.6464" y2="957.9797"/><line style="stroke:#444444;stroke-width:1.4583;stroke-dasharray:10.2083,10.2083;" x1="339.4071" x2="339.4071" y1="551.8567" y2="678.1791"/><?plantuml-src bLPRJ-Cu57xthpZ3lgqcg6MWb6g4H66xMmae0cRUdUGaSUFOaUCKmIp_VO_R06bkowHzQC_jEvVlsFcI6nvd72H_rgK5b2bZHIfKpWtF8Cm5Z8z7DKaWUL5SM6k4NrfS1bezY1U4kacHy50_2HL3n6M1DOtHfGeljL5eO5AJNxgWSnwaSMKXjO4_5XVkqpBJ9aHJcPnidvh9XJ7wgL8URv-cSg6LhGo-RP-QmQsss4vZiRYych94X0YOvVOPCinyDCLE50WJI6JD5dt_pcMC6Q8wFuTV3A0LD_g69z69qzGhcl2nVyP9-WzoalPvlRRnSaf9gtuyd4QZ29juuxF9QNZKZrTvTU3v61gntg3ow2jKOL5A6lf0mL5qZAs2SNAAHmC9L5uT2MX5zazYNGm0Jd7S1FH7q-beD0Zel8O0lKWehWA1A7kn0mn2ti8-dVX7mG3spkkLCUuNrl30xh3XZXihrb1d5TjfRhajIoF5Ehrp1D0AwbHuCn9ekmm7PiYOrJ7QX5RL5RYBithhmFBT5lO6yM6PInHXM__Q7VVD-efQgdY6FL5lT5XA9F0WSNdtmy_HQCmBEjnIwbkwqIOZOofSw11_BwLxB4ffERSzK3-rDhg_sie8pKifiXkK7LPTy0-s30KkAfwPXjCU0Hi-rwW6hIcdDpRzwtbj_knhkuZ3UkZa73eOmhfQwMptEiTOE-B1-00yxnmEHeU7Vnvqi6G6eVj96s5O5pS_4S0NwwvKF-MArc1aMLlNSEwWxGnqjk6Vy1rcyWnIL9rHoBkdWeyfpC29xAEslz7ykhkF2USolA91_d-4nWvyz6_OatvsB0FrJzaDL_6dtQkzc4623fGfkkp1Y3YneADEtW8ybBvzpX48g6SLWDu6BCplbxU02kwNAo_66Eb4BGuPgX0SIeNbQsjrvi3QV71NmiehSWn4930zfFz_NJu-09tayBx7TEmdD8E1m8DaePWtymR8V7MzzPjVjwA-jsP_JTtTPLzGHiG-xQ-HhYXwooDnco1VIIeKhIYz-Cbj3zqLOxJEF1zTGQIdzGEg2pQQBZOgTBVGnE21Aklpf11_E__vqTnBTPwZt4YURiDU_LYv4fVgXSSqGi7XHgoL4rCGKZY9SmsfFfTaGM7TCW7G5Sk3n8hOvIDebdQ3HcxnQcdz1m00?></g></svg>