<svg xmlns="http://www.w3.org/2000/svg" xmlns:xlink="http://www.w3.org/1999/xlink" contentStyleType="text/css" data-diagram-type="CLASS" height="896.875px" preserveAspectRatio="none" style="width:2846px;height:896px;background:#FFFFFF;" version="1.1" viewBox="0 0 2846 896" width="2846.6667px" zoomAndPan="magnify"><?plantuml 1.2026.3?><defs/><g><!--class Partij--><g class="entity" data-qualified-name="Partij" data-source-line="46" id="ent0002"><rect fill="#F3E5F5" height="59.2391" rx="4.375" ry="4.375" style="stroke:#6A1B9A;stroke-width:0.7292;" width="103.3366" x="2561.0884" y="17.5"/><text fill="#000000" font-family="sans-serif" font-size="17.5" font-style="italic" lengthAdjust="spacing" textLength="100.4199" x="2562.5467" y="41.7106">&#171;algemeen&#187;</text><text fill="#000000" font-family="sans-serif" font-size="20.4167" font-style="italic" lengthAdjust="spacing" textLength="50.6628" x="2587.4252" y="65.1408">Partij</text></g><!--class InkomensOndersteuning--><g class="entity" data-qualified-name="InkomensOndersteuning" data-source-line="47" id="ent0003"><rect fill="#F3E5F5" height="59.2391" rx="4.375" ry="4.375" style="stroke:#6A1B9A;stroke-width:0.7292;" width="252.464" x="783.0472" y="135.0724"/><text fill="#000000" font-family="sans-serif" font-size="17.5" font-style="italic" lengthAdjust="spacing" textLength="100.4199" x="859.0693" y="159.283">&#171;algemeen&#187;</text><text fill="#000000" font-family="sans-serif" font-size="20.4167" font-style="italic" lengthAdjust="spacing" textLength="243.714" x="787.4222" y="182.7132">InkomensOndersteuning</text></g><!--class NatuurlijkPersoon--><g class="entity" data-qualified-name="NatuurlijkPersoon" data-source-line="48" id="ent0004"><rect fill="#E8F0FE" height="59.2391" rx="4.375" ry="4.375" style="stroke:#1967D2;stroke-width:0.7292;" width="185.5615" x="1461.0042" y="135.0724"/><text fill="#000000" font-family="sans-serif" font-size="17.5" font-style="italic" lengthAdjust="spacing" textLength="97.4036" x="1505.0832" y="159.283">&#171;personen&#187;</text><text fill="#000000" font-family="sans-serif" font-size="20.4167" lengthAdjust="spacing" textLength="176.8115" x="1465.3792" y="182.7132">NatuurlijkPersoon</text></g><!--class Onderneming--><g class="entity" data-qualified-name="Onderneming" data-source-line="49" id="ent0005"><rect fill="#FFF4E5" height="59.2391" rx="4.375" ry="4.375" style="stroke:#E67E22;stroke-width:0.7292;" width="239.799" x="2510.0799" y="135.0724"/><text fill="#000000" font-family="sans-serif" font-size="17.5" font-style="italic" lengthAdjust="spacing" textLength="236.8823" x="2511.5383" y="159.283">&#171;bedrijven-en-instellingen&#187;</text><text fill="#000000" font-family="sans-serif" font-size="20.4167" lengthAdjust="spacing" textLength="135.5196" x="2562.2196" y="182.7132">Onderneming</text></g><!--class Inkomstenverhouding--><g class="entity" data-qualified-name="Inkomstenverhouding" data-source-line="50" id="ent0006"><rect fill="#E3F2FD" height="59.2391" rx="4.375" ry="4.375" style="stroke:#0D47A1;stroke-width:0.7292;" width="225.2584" x="2259.6871" y="600.4346"/><text fill="#000000" font-family="sans-serif" font-size="17.5" font-style="italic" lengthAdjust="spacing" textLength="211.4099" x="2266.6114" y="624.6452">&#171;belastingen-loonketen&#187;</text><text fill="#000000" font-family="sans-serif" font-size="20.4167" lengthAdjust="spacing" textLength="216.5084" x="2264.0621" y="648.0754">Inkomstenverhouding</text></g><!--class Inkomstenopgave--><g class="entity" data-qualified-name="Inkomstenopgave" data-source-line="51" id="ent0007"><rect fill="#E3F2FD" height="59.2391" rx="4.375" ry="4.375" style="stroke:#0D47A1;stroke-width:0.7292;" width="214.3266" x="2064.496" y="345.8785"/><text fill="#000000" font-family="sans-serif" font-size="17.5" font-style="italic" lengthAdjust="spacing" textLength="211.4099" x="2065.9543" y="370.0891">&#171;belastingen-loonketen&#187;</text><text fill="#000000" font-family="sans-serif" font-size="20.4167" lengthAdjust="spacing" textLength="175.5155" x="2083.9015" y="393.5193">Inkomstenopgave</text></g><!--class Uitkering--><g class="entity" data-qualified-name="Uitkering" data-source-line="53" id="ent0008"><rect fill="#FFE9C2" height="59.2391" rx="4.375" ry="4.375" style="stroke:#B87A00;stroke-width:0.7292;" width="176.5837" x="948.6865" y="345.8785"/><text fill="#000000" font-family="sans-serif" font-size="17.5" font-style="italic" lengthAdjust="spacing" textLength="173.667" x="950.1448" y="370.0891">&#171;werk-en-inkomen&#187;</text><text fill="#000000" font-family="sans-serif" font-size="20.4167" font-style="italic" lengthAdjust="spacing" textLength="90.6488" x="991.6539" y="393.5193">Uitkering</text></g><!--class UitkeringWW--><g class="entity" data-qualified-name="UitkeringWW" data-source-line="56" id="ent0009"><rect fill="#FFE9C2" height="59.2391" rx="4.375" ry="4.375" style="stroke:#B87A00;stroke-width:0.7292;" width="176.5837" x="1164.247" y="600.4346"/><text fill="#000000" font-family="sans-serif" font-size="17.5" font-style="italic" lengthAdjust="spacing" textLength="173.667" x="1165.7054" y="624.6452">&#171;werk-en-inkomen&#187;</text><text fill="#000000" font-family="sans-serif" font-size="20.4167" lengthAdjust="spacing" textLength="125.5804" x="1189.7486" y="648.0754">UitkeringWW</text></g><!--class UitkeringZW--><g class="entity" data-qualified-name="UitkeringZW" data-source-line="57" id="ent0010"><rect fill="#FFE9C2" height="59.2391" rx="4.375" ry="4.375" style="stroke:#B87A00;stroke-width:0.7292;" width="176.5837" x="546.9961" y="600.4346"/><text fill="#000000" font-family="sans-serif" font-size="17.5" font-style="italic" lengthAdjust="spacing" textLength="173.667" x="548.4544" y="624.6452">&#171;werk-en-inkomen&#187;</text><text fill="#000000" font-family="sans-serif" font-size="20.4167" lengthAdjust="spacing" textLength="120.4563" x="575.0597" y="648.0754">UitkeringZW</text></g><!--class UitkeringWIA--><g class="entity" data-qualified-name="UitkeringWIA" data-source-line="58" id="ent0011"><rect fill="#FFE9C2" height="59.2391" rx="4.375" ry="4.375" style="stroke:#B87A00;stroke-width:0.7292;" width="176.5837" x="958.4967" y="600.4346"/><text fill="#000000" font-family="sans-serif" font-size="17.5" font-style="italic" lengthAdjust="spacing" textLength="173.667" x="959.955" y="624.6452">&#171;werk-en-inkomen&#187;</text><text fill="#000000" font-family="sans-serif" font-size="20.4167" lengthAdjust="spacing" textLength="128.0827" x="982.7472" y="648.0754">UitkeringWIA</text></g><!--class UitkeringIVA--><g class="entity" data-qualified-name="UitkeringIVA" data-source-line="59" id="ent0012"><rect fill="#FFE9C2" height="59.2391" rx="4.375" ry="4.375" style="stroke:#B87A00;stroke-width:0.7292;" width="176.5837" x="987.9273" y="796.6573"/><text fill="#000000" font-family="sans-serif" font-size="17.5" font-style="italic" lengthAdjust="spacing" textLength="173.667" x="989.3856" y="820.8679">&#171;werk-en-inkomen&#187;</text><text fill="#000000" font-family="sans-serif" font-size="20.4167" lengthAdjust="spacing" textLength="123.9655" x="1014.2364" y="844.2981">UitkeringIVA</text></g><!--class UitkeringWGA--><g class="entity" data-qualified-name="UitkeringWGA" data-source-line="60" id="ent0013"><rect fill="#FFE9C2" height="59.2391" rx="4.375" ry="4.375" style="stroke:#B87A00;stroke-width:0.7292;" width="176.5837" x="782.177" y="796.6573"/><text fill="#000000" font-family="sans-serif" font-size="17.5" font-style="italic" lengthAdjust="spacing" textLength="173.667" x="783.6353" y="820.8679">&#171;werk-en-inkomen&#187;</text><text fill="#000000" font-family="sans-serif" font-size="20.4167" lengthAdjust="spacing" textLength="136.9552" x="801.9912" y="844.2981">UitkeringWGA</text></g><!--class UitkeringWajong--><g class="entity" data-qualified-name="UitkeringWajong" data-source-line="61" id="ent0014"><rect fill="#FFE9C2" height="59.2391" rx="4.375" ry="4.375" style="stroke:#B87A00;stroke-width:0.7292;" width="176.5837" x="17.5" y="600.4346"/><text fill="#000000" font-family="sans-serif" font-size="17.5" font-style="italic" lengthAdjust="spacing" textLength="173.667" x="18.9583" y="624.6452">&#171;werk-en-inkomen&#187;</text><text fill="#000000" font-family="sans-serif" font-size="20.4167" lengthAdjust="spacing" textLength="163.5427" x="24.0205" y="648.0754">UitkeringWajong</text></g><!--class UitkeringAOW--><g class="entity" data-qualified-name="UitkeringAOW" data-source-line="62" id="ent0015"><rect fill="#FFE9C2" height="59.2391" rx="4.375" ry="4.375" style="stroke:#B87A00;stroke-width:0.7292;" width="176.5837" x="752.7464" y="600.4346"/><text fill="#000000" font-family="sans-serif" font-size="17.5" font-style="italic" lengthAdjust="spacing" textLength="173.667" x="754.2047" y="624.6452">&#171;werk-en-inkomen&#187;</text><text fill="#000000" font-family="sans-serif" font-size="20.4167" lengthAdjust="spacing" textLength="138.0617" x="772.0073" y="648.0754">UitkeringAOW</text></g><!--class Arbeidsverhouding--><g class="entity" data-qualified-name="Arbeidsverhouding" data-source-line="65" id="ent0016"><rect fill="#FFE9C2" height="59.2391" rx="4.375" ry="4.375" style="stroke:#B87A00;stroke-width:0.7292;" width="196.9063" x="2538.675" y="345.8785"/><text fill="#000000" font-family="sans-serif" font-size="17.5" font-style="italic" lengthAdjust="spacing" textLength="173.667" x="2550.2947" y="370.0891">&#171;werk-en-inkomen&#187;</text><text fill="#000000" font-family="sans-serif" font-size="20.4167" lengthAdjust="spacing" textLength="188.1563" x="2543.05" y="393.5193">Arbeidsverhouding</text></g><!--class Beslissing--><g class="entity" data-qualified-name="Beslissing" data-source-line="66" id="ent0017"><rect fill="#FFF1D8" height="59.2391" rx="4.375" ry="4.375" style="stroke:#C8932D;stroke-width:0.7292;" width="214.4975" x="1687.7032" y="600.4346"/><text fill="#000000" font-family="sans-serif" font-size="17.5" font-style="italic" lengthAdjust="spacing" textLength="211.5808" x="1689.1616" y="624.6452">&#171;werk-en-inkomen-feit&#187;</text><text fill="#000000" font-family="sans-serif" font-size="20.4167" lengthAdjust="spacing" textLength="97.4477" x="1746.2281" y="648.0754">Beslissing</text></g><!--class Dagloon--><g class="entity" data-qualified-name="Dagloon" data-source-line="67" id="ent0018"><rect fill="#FFE9C2" height="59.2391" rx="4.375" ry="4.375" style="stroke:#B87A00;stroke-width:0.7292;" width="176.5837" x="2053.9368" y="600.4346"/><text fill="#000000" font-family="sans-serif" font-size="17.5" font-style="italic" lengthAdjust="spacing" textLength="173.667" x="2055.3952" y="624.6452">&#171;werk-en-inkomen&#187;</text><text fill="#000000" font-family="sans-serif" font-size="20.4167" lengthAdjust="spacing" textLength="82.9527" x="2100.7523" y="648.0754">Dagloon</text></g><!--class Arbeidsongeschiktheidspercentage--><g class="entity" data-qualified-name="Arbeidsongeschiktheidspercentage" data-source-line="68" id="ent0019"><rect fill="#FFF1D8" height="59.2391" rx="4.375" ry="4.375" style="stroke:#C8932D;stroke-width:0.7292;" width="356.2022" x="1616.8509" y="796.6573"/><text fill="#000000" font-family="sans-serif" font-size="17.5" font-style="italic" lengthAdjust="spacing" textLength="211.5808" x="1689.1616" y="820.8679">&#171;werk-en-inkomen-feit&#187;</text><text fill="#000000" font-family="sans-serif" font-size="20.4167" lengthAdjust="spacing" textLength="347.4522" x="1621.2259" y="844.2981">Arbeidsongeschiktheidspercentage</text></g><!--class ArbeidsverledenFeit--><g class="entity" data-qualified-name="ArbeidsverledenFeit" data-source-line="69" id="ent0020"><rect fill="#FFF1D8" height="59.2391" rx="4.375" ry="4.375" style="stroke:#C8932D;stroke-width:0.7292;" width="214.4975" x="1465.0924" y="345.8785"/><text fill="#000000" font-family="sans-serif" font-size="17.5" font-style="italic" lengthAdjust="spacing" textLength="211.5808" x="1466.5507" y="370.0891">&#171;werk-en-inkomen-feit&#187;</text><text fill="#000000" font-family="sans-serif" font-size="20.4167" lengthAdjust="spacing" textLength="196.1515" x="1474.2653" y="393.5193">ArbeidsverledenFeit</text></g><g class="entity" data-qualified-name="GMN42" data-source-line="95" id="ent0043"><path d="M223.2503,604.8096 L223.2503,677.6265 A4.375,4.375 0 0 0 227.6253,682.0015 L513.4544,682.0015 A4.375,4.375 0 0 0 517.8294,677.6265 L517.8294,615.0179 L503.2461,600.4346 L227.6253,600.4346 A4.375,4.375 0 0 0 223.2503,604.8096" fill="#FFFCD8" style="stroke:#181818;stroke-width:0.7292;"/><path d="M503.2461,600.4346 L503.2461,612.8304 A2.1875,2.1875 0 0 0 505.4336,615.0179 L517.8294,615.0179 L503.2461,600.4346" fill="#FFFCD8" style="stroke:#181818;stroke-width:1.4583;"/><text fill="#000000" font-family="sans-serif" font-size="18.9583" lengthAdjust="spacing" textLength="179.3821" x="232.0003" y="626.0551">Concrete varianten:</text><text fill="#000000" font-family="sans-serif" font-size="18.9583" lengthAdjust="spacing" textLength="222.7974" x="232.0003" y="648.383">WW, ZW, WIA, IVA, WGA,</text><text fill="#000000" font-family="sans-serif" font-size="18.9583" lengthAdjust="spacing" textLength="263.9541" x="232.0003" y="670.7109">Wajong (UWV) en AOW (SVB).</text></g><g class="entity" data-qualified-name="GMN45" data-source-line="101" id="ent0046"><path d="M2514.1122,585.3984 L2514.1122,680.5432 A4.375,4.375 0 0 0 2518.4872,684.9182 L2821.4047,684.9182 A4.375,4.375 0 0 0 2825.7797,680.5432 L2825.7797,595.6067 L2811.1963,581.0234 L2518.4872,581.0234 A4.375,4.375 0 0 0 2514.1122,585.3984" fill="#FFFCD8" style="stroke:#181818;stroke-width:0.7292;"/><path d="M2811.1963,581.0234 L2811.1963,593.4192 A2.1875,2.1875 0 0 0 2813.3838,595.6067 L2825.7797,595.6067 L2811.1963,581.0234" fill="#FFFCD8" style="stroke:#181818;stroke-width:1.4583;"/><text fill="#000000" font-family="sans-serif" font-size="18.9583" lengthAdjust="spacing" textLength="241.3392" x="2522.8622" y="606.6439">Operationeel zichtbaar via</text><text fill="#000000" font-family="sans-serif" font-size="18.9583" lengthAdjust="spacing" textLength="281.0425" x="2522.8622" y="628.9718">Inkomstenverhouding-records</text><text fill="#000000" font-family="sans-serif" font-size="18.9583" lengthAdjust="spacing" textLength="217.9653" x="2522.8622" y="651.2996">in de loonaangifteketen</text><text fill="#000000" font-family="sans-serif" font-size="18.9583" lengthAdjust="spacing" textLength="156.8043" x="2522.8622" y="673.6275">(zie Belastingen).</text></g><g class="entity" data-qualified-name="GMN48" data-source-line="108" id="ent0049"><path d="M2002.2197,775.7878 L2002.2197,870.9326 A4.375,4.375 0 0 0 2006.5947,875.3076 L2277.8625,875.3076 A4.375,4.375 0 0 0 2282.2375,870.9326 L2282.2375,785.9961 L2267.6542,771.4128 L2006.5947,771.4128 A4.375,4.375 0 0 0 2002.2197,775.7878" fill="#FFFCD8" style="stroke:#181818;stroke-width:0.7292;"/><path d="M2267.6542,771.4128 L2267.6542,783.8086 A2.1875,2.1875 0 0 0 2269.8417,785.9961 L2282.2375,785.9961 L2267.6542,771.4128" fill="#FFFCD8" style="stroke:#181818;stroke-width:1.4583;"/><text fill="#000000" font-family="sans-serif" font-size="18.9583" lengthAdjust="spacing" textLength="205.959" x="2010.9697" y="797.0333">Berekend op basis van</text><text fill="#000000" font-family="sans-serif" font-size="18.9583" lengthAdjust="spacing" textLength="249.3928" x="2010.9697" y="819.3612">Inkomstenopgave-historie;</text><text fill="#000000" font-family="sans-serif" font-size="18.9583" lengthAdjust="spacing" textLength="199.2199" x="2010.9697" y="841.689">vormt grondslag voor</text><text fill="#000000" font-family="sans-serif" font-size="18.9583" lengthAdjust="spacing" textLength="162.9972" x="2010.9697" y="864.0169">uitkeringshoogte.</text></g><line style="stroke:#444444;stroke-width:1.4583;" x1="2595.5339" x2="2595.5339" y1="76.7391" y2="91.3224"/><line style="stroke:#444444;stroke-width:1.4583;" x1="2595.5339" x2="1553.785" y1="91.3224" y2="91.3224"/><line style="stroke:#444444;stroke-width:1.4583;" x1="1553.785" x2="1553.785" y1="91.3224" y2="135.0724"/><polygon fill="#FFFFFF" points="2595.5339,76.7391,2585.3256,104.4474,2605.7422,104.4474,2595.5339,76.7391" style="stroke:#444444;stroke-width:1.4583;"/><line style="stroke:#444444;stroke-width:1.4583;" x1="2629.9794" x2="2629.9794" y1="76.7391" y2="135.0724"/><polygon fill="#FFFFFF" points="2629.9794,76.7391,2619.7711,104.4474,2640.1878,104.4474,2629.9794,76.7391" style="stroke:#444444;stroke-width:1.4583;"/><line style="stroke:#444444;stroke-width:1.4583;" x1="909.2792" x2="909.2792" y1="194.3115" y2="306.0506"/><line style="stroke:#444444;stroke-width:1.4583;" x1="909.2792" x2="1007.5477" y1="306.0506" y2="306.0506"/><line style="stroke:#444444;stroke-width:1.4583;" x1="1007.5477" x2="1007.5477" y1="306.0506" y2="345.8785"/><polygon fill="#FFFFFF" points="909.2792,194.3115,899.0709,222.0199,919.4876,222.0199,909.2792,194.3115" style="stroke:#444444;stroke-width:1.4583;"/><line style="stroke:#444444;stroke-width:1.4583;" x1="1066.4089" x2="1066.4089" y1="405.1176" y2="474.1121"/><line style="stroke:#444444;stroke-width:1.4583;" x1="1066.4089" x2="1252.5389" y1="474.1121" y2="474.1121"/><line style="stroke:#444444;stroke-width:1.4583;" x1="1252.5389" x2="1252.5389" y1="474.1121" y2="600.4346"/><polygon fill="#FFFFFF" points="1066.4089,405.1176,1056.2006,432.8259,1076.6173,432.8259,1066.4089,405.1176" style="stroke:#444444;stroke-width:1.4583;"/><line style="stroke:#444444;stroke-width:1.4583;" x1="1007.5477" x2="1007.5477" y1="405.1176" y2="474.1121"/><line style="stroke:#444444;stroke-width:1.4583;" x1="1007.5477" x2="635.2879" y1="474.1121" y2="474.1121"/><line style="stroke:#444444;stroke-width:1.4583;" x1="635.2879" x2="635.2879" y1="474.1121" y2="600.4346"/><polygon fill="#FFFFFF" points="1007.5477,405.1176,997.3394,432.8259,1017.7561,432.8259,1007.5477,405.1176" style="stroke:#444444;stroke-width:1.4583;"/><line style="stroke:#444444;stroke-width:1.4583;" x1="1046.7885" x2="1046.7885" y1="405.1176" y2="600.4346"/><polygon fill="#FFFFFF" points="1046.7885,405.1176,1036.5802,432.8259,1056.9969,432.8259,1046.7885,405.1176" style="stroke:#444444;stroke-width:1.4583;"/><line style="stroke:#444444;stroke-width:1.4583;" x1="968.3069" x2="968.3069" y1="405.1176" y2="444.9455"/><line style="stroke:#444444;stroke-width:1.4583;" x1="968.3069" x2="105.7918" y1="444.9455" y2="444.9455"/><line style="stroke:#444444;stroke-width:1.4583;" x1="105.7918" x2="105.7918" y1="444.9455" y2="600.4346"/><polygon fill="#FFFFFF" points="968.3069,405.1176,958.0986,432.8259,978.5152,432.8259,968.3069,405.1176" style="stroke:#444444;stroke-width:1.4583;"/><line style="stroke:#444444;stroke-width:1.4583;" x1="1027.1681" x2="1027.1681" y1="405.1176" y2="488.6955"/><line style="stroke:#444444;stroke-width:1.4583;" x1="1027.1681" x2="841.0382" y1="488.6955" y2="488.6955"/><line style="stroke:#444444;stroke-width:1.4583;" x1="841.0382" x2="841.0382" y1="488.6955" y2="600.4346"/><polygon fill="#FFFFFF" points="1027.1681,405.1176,1016.9598,432.8259,1037.3765,432.8259,1027.1681,405.1176" style="stroke:#444444;stroke-width:1.4583;"/><line style="stroke:#444444;stroke-width:1.4583;" x1="1076.2191" x2="1076.2191" y1="659.6737" y2="796.6573"/><polygon fill="#FFFFFF" points="1076.2191,659.6737,1066.0108,687.382,1086.4275,687.382,1076.2191,659.6737" style="stroke:#444444;stroke-width:1.4583;"/><line style="stroke:#444444;stroke-width:1.4583;" x1="1017.3579" x2="1017.3579" y1="659.6737" y2="699.5015"/><line style="stroke:#444444;stroke-width:1.4583;" x1="1017.3579" x2="870.4688" y1="699.5015" y2="699.5015"/><line style="stroke:#444444;stroke-width:1.4583;" x1="870.4688" x2="870.4688" y1="699.5015" y2="796.6573"/><polygon fill="#FFFFFF" points="1017.3579,659.6737,1007.1496,687.382,1027.5663,687.382,1017.3579,659.6737" style="stroke:#444444;stroke-width:1.4583;"/><line style="stroke:#444444;stroke-width:1.4583;" x1="1609.4534" x2="1609.4534" y1="194.3115" y2="248.7227"/><line style="stroke:#444444;stroke-width:1.4583;" x1="1609.4534" x2="2502.0688" y1="248.7227" y2="248.7227"/><line style="stroke:#444444;stroke-width:1.4583;" x1="2502.0688" x2="2502.0688" y1="248.7227" y2="306.0506"/><line style="stroke:#444444;stroke-width:1.4583;" x1="2502.0688" x2="2604.3105" y1="306.0506" y2="306.0506"/><line style="stroke:#444444;stroke-width:1.4583;" x1="2604.3105" x2="2604.3105" y1="306.0506" y2="345.8785"/><polygon fill="#444444" points="1609.4534,194.3115,1603.6201,207.4365,1609.4534,201.6032,1615.2867,207.4365,1609.4534,194.3115" style="stroke:#444444;stroke-width:1.4583;"/><text fill="#333333" font-family="sans-serif" font-size="18.9583" lengthAdjust="spacing" textLength="150.9168" x="2345.3187" y="284.5516">heeftWerknemer</text><text fill="#333333" font-family="sans-serif" font-size="18.9583" lengthAdjust="spacing" textLength="11.9878" x="1613.8284" y="215.557">1</text><text fill="#333333" font-family="sans-serif" font-size="18.9583" lengthAdjust="spacing" textLength="33.1215" x="2608.6855" y="338.9628">0..*</text><line style="stroke:#444444;stroke-width:1.4583;" x1="2669.9459" x2="2669.9459" y1="194.3115" y2="345.8785"/><polygon fill="#444444" points="2669.9459,194.3115,2664.1126,207.4365,2669.9459,201.6032,2675.7793,207.4365,2669.9459,194.3115" style="stroke:#444444;stroke-width:1.4583;"/><text fill="#333333" font-family="sans-serif" font-size="18.9583" lengthAdjust="spacing" textLength="143.0854" x="2521.0272" y="284.5516">heeftWerkgever</text><text fill="#333333" font-family="sans-serif" font-size="18.9583" lengthAdjust="spacing" textLength="11.9878" x="2674.3209" y="215.557">1</text><text fill="#333333" font-family="sans-serif" font-size="18.9583" lengthAdjust="spacing" textLength="33.1215" x="2674.3209" y="338.9628">0..*</text><line style="stroke:#444444;stroke-width:1.4583;" x1="2604.3105" x2="2604.3105" y1="405.1176" y2="444.9455"/><line style="stroke:#444444;stroke-width:1.4583;" x1="2604.3105" x2="2372.3163" y1="444.9455" y2="444.9455"/><line style="stroke:#444444;stroke-width:1.4583;" x1="2372.3163" x2="2372.3163" y1="444.9455" y2="600.4346"/><polygon fill="#444444" points="2372.3163,600.4346,2378.1497,587.3096,2372.3163,593.1429,2366.483,587.3096,2372.3163,600.4346" style="stroke:#444444;stroke-width:1.4583;"/><text fill="#333333" font-family="sans-serif" font-size="18.9583" lengthAdjust="spacing" textLength="150.2411" x="2216.2419" y="524.5243">komtTotUitingIn</text><text fill="#333333" font-family="sans-serif" font-size="18.9583" lengthAdjust="spacing" textLength="11.9878" x="2608.6855" y="426.3631">1</text><text fill="#333333" font-family="sans-serif" font-size="18.9583" lengthAdjust="spacing" textLength="33.1215" x="2376.6913" y="593.5189">0..*</text><line style="stroke:#444444;stroke-width:1.4583;" x1="1498.1165" x2="1498.1165" y1="194.3115" y2="234.1394"/><line style="stroke:#444444;stroke-width:1.4583;" x1="1498.1165" x2="1066.4089" y1="234.1394" y2="234.1394"/><line style="stroke:#444444;stroke-width:1.4583;" x1="1066.4089" x2="1066.4089" y1="234.1394" y2="345.8785"/><polygon fill="#444444" points="1498.1165,194.3115,1492.2832,207.4365,1498.1165,201.6032,1503.9498,207.4365,1498.1165,194.3115" style="stroke:#444444;stroke-width:1.4583;"/><text fill="#333333" font-family="sans-serif" font-size="18.9583" lengthAdjust="spacing" textLength="132.3381" x="928.2376" y="284.5516">toegekendAan</text><text fill="#333333" font-family="sans-serif" font-size="18.9583" lengthAdjust="spacing" textLength="11.9878" x="1502.4915" y="215.557">1</text><text fill="#333333" font-family="sans-serif" font-size="18.9583" lengthAdjust="spacing" textLength="33.1215" x="1070.7839" y="338.9628">0..*</text><line style="stroke:#444444;stroke-width:1.4583;" x1="1086.0293" x2="1086.0293" y1="405.1176" y2="459.5288"/><line style="stroke:#444444;stroke-width:1.4583;" x1="1086.0293" x2="1418.4257" y1="459.5288" y2="459.5288"/><line style="stroke:#444444;stroke-width:1.4583;" x1="1418.4257" x2="1418.4257" y1="459.5288" y2="560.6067"/><line style="stroke:#444444;stroke-width:1.4583;" x1="1418.4257" x2="1741.3276" y1="560.6067" y2="560.6067"/><line style="stroke:#444444;stroke-width:1.4583;" x1="1741.3276" x2="1741.3276" y1="560.6067" y2="600.4346"/><polygon fill="#444444" points="1741.3276,600.4346,1747.1609,587.3096,1741.3276,593.1429,1735.4943,587.3096,1741.3276,600.4346" style="stroke:#444444;stroke-width:1.4583;"/><text fill="#333333" font-family="sans-serif" font-size="18.9583" lengthAdjust="spacing" textLength="141.0952" x="1271.4972" y="524.5243">gegrondvestOp</text><text fill="#333333" font-family="sans-serif" font-size="18.9583" lengthAdjust="spacing" textLength="11.7656" x="1090.4043" y="426.3631">n</text><text fill="#333333" font-family="sans-serif" font-size="18.9583" lengthAdjust="spacing" textLength="11.9878" x="1745.7026" y="593.5189">1</text><line style="stroke:#444444;stroke-width:1.4583;" x1="1535.2288" x2="1535.2288" y1="194.3115" y2="248.7227"/><line style="stroke:#444444;stroke-width:1.4583;" x1="1535.2288" x2="1434.4674" y1="248.7227" y2="248.7227"/><line style="stroke:#444444;stroke-width:1.4583;" x1="1434.4674" x2="1434.4674" y1="248.7227" y2="546.0234"/><line style="stroke:#444444;stroke-width:1.4583;" x1="1434.4674" x2="1794.952" y1="546.0234" y2="546.0234"/><line style="stroke:#444444;stroke-width:1.4583;" x1="1794.952" x2="1794.952" y1="546.0234" y2="600.4346"/><polygon fill="#444444" points="1535.2288,194.3115,1529.3955,207.4365,1535.2288,201.6032,1541.0621,207.4365,1535.2288,194.3115" style="stroke:#444444;stroke-width:1.4583;"/><text fill="#333333" font-family="sans-serif" font-size="18.9583" lengthAdjust="spacing" textLength="61.9663" x="1366.6677" y="382.663">betreft</text><text fill="#333333" font-family="sans-serif" font-size="18.9583" lengthAdjust="spacing" textLength="11.9878" x="1539.6038" y="215.557">1</text><text fill="#333333" font-family="sans-serif" font-size="18.9583" lengthAdjust="spacing" textLength="33.1215" x="1799.327" y="593.5189">0..*</text><line style="stroke:#444444;stroke-width:1.4583;" x1="2590.0129" x2="2590.0129" y1="194.3115" y2="234.1394"/><line style="stroke:#444444;stroke-width:1.4583;" x1="2590.0129" x2="1848.5764" y1="234.1394" y2="234.1394"/><line style="stroke:#444444;stroke-width:1.4583;" x1="1848.5764" x2="1848.5764" y1="234.1394" y2="600.4346"/><polygon fill="#444444" points="2590.0129,194.3115,2584.1796,207.4365,2590.0129,201.6032,2595.8463,207.4365,2590.0129,194.3115" style="stroke:#444444;stroke-width:1.4583;"/><text fill="#333333" font-family="sans-serif" font-size="18.9583" lengthAdjust="spacing" textLength="131.0698" x="1711.6732" y="382.663">genomenDoor</text><text fill="#333333" font-family="sans-serif" font-size="18.9583" lengthAdjust="spacing" textLength="11.9878" x="2594.3879" y="215.557">1</text><text fill="#333333" font-family="sans-serif" font-size="18.9583" lengthAdjust="spacing" textLength="33.1215" x="1852.9514" y="593.5189">0..*</text><line style="stroke:#444444;stroke-width:1.4583;" x1="2171.6593" x2="2171.6593" y1="405.1176" y2="600.4346"/><polygon fill="#444444" points="2171.6593,405.1176,2165.8259,418.2426,2171.6593,412.4093,2177.4926,418.2426,2171.6593,405.1176" style="stroke:#444444;stroke-width:1.4583;"/><text fill="#333333" font-family="sans-serif" font-size="18.9583" lengthAdjust="spacing" textLength="112.815" x="2053.0109" y="524.5243">berekendOp</text><text fill="#333333" font-family="sans-serif" font-size="18.9583" lengthAdjust="spacing" textLength="33.1215" x="2176.0343" y="426.3631">1..*</text><text fill="#333333" font-family="sans-serif" font-size="18.9583" lengthAdjust="spacing" textLength="33.1215" x="2176.0343" y="593.5189">0..*</text><line style="stroke:#444444;stroke-width:1.4583;" x1="1105.6498" x2="1105.6498" y1="405.1176" y2="444.9455"/><line style="stroke:#444444;stroke-width:1.4583;" x1="1105.6498" x2="2034.0525" y1="444.9455" y2="444.9455"/><line style="stroke:#444444;stroke-width:1.4583;" x1="2034.0525" x2="2034.0525" y1="444.9455" y2="546.0234"/><line style="stroke:#444444;stroke-width:1.4583;" x1="2034.0525" x2="2112.798" y1="546.0234" y2="546.0234"/><line style="stroke:#444444;stroke-width:1.4583;" x1="2112.798" x2="2112.798" y1="546.0234" y2="600.4346"/><polygon fill="#444444" points="2112.798,600.4346,2118.6314,587.3096,2112.798,593.1429,2106.9647,587.3096,2112.798,600.4346" style="stroke:#444444;stroke-width:1.4583;"/><text fill="#333333" font-family="sans-serif" font-size="18.9583" lengthAdjust="spacing" textLength="90.6538" x="1937.5654" y="524.5243">basisVoor</text><text fill="#333333" font-family="sans-serif" font-size="18.9583" lengthAdjust="spacing" textLength="33.1215" x="1110.0248" y="426.3631">0..*</text><text fill="#333333" font-family="sans-serif" font-size="18.9583" lengthAdjust="spacing" textLength="11.9878" x="2117.173" y="593.5189">1</text><line style="stroke:#444444;stroke-width:1.4583;" x1="1794.952" x2="1794.952" y1="659.6737" y2="796.6573"/><polygon fill="#444444" points="1794.952,659.6737,1789.1187,672.7987,1794.952,666.9653,1800.7853,672.7987,1794.952,659.6737" style="stroke:#444444;stroke-width:1.4583;"/><text fill="#333333" font-family="sans-serif" font-size="18.9583" lengthAdjust="spacing" textLength="118.0267" x="1671.0919" y="735.3304">bepaaldDoor</text><text fill="#333333" font-family="sans-serif" font-size="18.9583" lengthAdjust="spacing" textLength="11.9878" x="1799.327" y="680.9192">1</text><text fill="#333333" font-family="sans-serif" font-size="18.9583" lengthAdjust="spacing" textLength="33.1215" x="1799.327" y="789.7416">0..*</text><line style="stroke:#444444;stroke-width:1.4583;" x1="1572.3411" x2="1572.3411" y1="194.3115" y2="345.8785"/><polygon fill="#444444" points="1572.3411,194.3115,1566.5078,207.4365,1572.3411,201.6032,1578.1744,207.4365,1572.3411,194.3115" style="stroke:#444444;stroke-width:1.4583;"/><text fill="#333333" font-family="sans-serif" font-size="18.9583" lengthAdjust="spacing" textLength="61.9663" x="1504.5414" y="284.5516">betreft</text><text fill="#333333" font-family="sans-serif" font-size="18.9583" lengthAdjust="spacing" textLength="11.9878" x="1576.7161" y="215.557">1</text><text fill="#333333" font-family="sans-serif" font-size="18.9583" lengthAdjust="spacing" textLength="33.1215" x="1576.7161" y="338.9628">0..*</text><line style="stroke:#444444;stroke-width:1.4583;stroke-dasharray:10.2083,10.2083;" x1="987.9273" x2="987.9273" y1="405.1176" y2="459.5288"/><line style="stroke:#444444;stroke-width:1.4583;stroke-dasharray:10.2083,10.2083;" x1="987.9273" x2="370.5399" y1="459.5288" y2="459.5288"/><line style="stroke:#444444;stroke-width:1.4583;stroke-dasharray:10.2083,10.2083;" x1="370.5399" x2="370.5399" y1="459.5288" y2="600.4346"/><line style="stroke:#444444;stroke-width:1.4583;stroke-dasharray:10.2083,10.2083;" x1="2669.9459" x2="2669.9459" y1="405.1176" y2="581.0234"/><line style="stroke:#444444;stroke-width:1.4583;stroke-dasharray:10.2083,10.2083;" x1="2142.2286" x2="2142.2286" y1="659.6737" y2="771.4128"/><?plantuml-src bLPRJ-Cu57xth_1sNvWLGMsvbIv2Ag3Ey3ACD3j4uir9JXAJn8vijsZOdV--nqaARcumWGfwpdVydSjdnt-KYYK5epdxAJU6GfuHeZCkIgPOGQEIqzd9rB64ETDwPOpYmSR0NIZ5T_u2r8Neb4NocOk4nYpNu7YKt8ZeHYe1YfuvzXkxw3KBiwH1v5BHFzSh-zE1IHM1QY2drUD0Lah9vyPvKZrjvreAqm2EgyS1V9K6kccirpUt2vBo22WKfVb92oW2KBesXLo5EP1sYoulMPv00I2khkY_XDBEkl4ndCQdrkDMTCPcmGL3wnTWQ1sA-jNbAp4bAORvO15FOsZppIxEpgFvC5yJrSCNGAJuqnQ4XxzSQ0DvZaCVAJYEJw1JC9oTmtmaWIQgDm7yQofABvTIP616gZ-Evt7K9fz69-TiDb9z7TL3_WmggmlFP35MCro4ypPji3Xdq-bOpLNK-xHU3DoCz7iMBThSuUBYU1wDzjj6_IA41Tee5fgQctvZol0dwWgx3RchizBt0bT6GMo4FGNs8chWLsOs6vNpf-oRLQqKrDLl0wfM4L3KQup8ZJZiQ1TRKAdSHBkuNfMqOsIPi2sCuDkr_k0c0rLpTCH0Y949c1JFEJkQLeJlzyPqS8yVnFbtguy1xnu-2FG_VnJ8dkH02phOrNr_FIYr6hbI0V18xusl2w-nrw1phdKlgDaL3VAM9NcjiA6r6bui17IOyWpdXbzHZo48mn9uZ-4jxnmY46lq3OUGtJxwp_Ew-s3Fwsm0Ch2rBEormSJHv9x3zmTTZyCkbDMmhvhxe1j7JVRbkUT67OwvKNs4T8-8oMn2Bn4tcHuT_JNfKSkIfW2nyR7ns3LGn3r1VYSw0RIJBiIkuNbNkpNw3fmbHPlvHnginbOgtY_ahObBQYGaa868LamutPs8XXWZ7UKlQG9uU8je2zhSb-zJxSK6O1GMFDQb5fUm4hoLKf7skJcPLNWdTBVjB8-gIi84dOfgrAue1yqqrm-Mmo7l7zxmXhMa9MDvL2Nx6r9wsy1l_I42huLKyIGrLCRETgFqHefGuGk2RfdYJ60_bcZr_KFwY1zKzY55hUD_drU7rb6VbWS__8TF50Ir9-B1zuVhJqS4-qCjJyCMI6DaOUawAiHrxh5KPZY-BI6dBpnCJS2OebjkBuuzglGKX7W7qEZbWkAbrVQQCP7ms43rWaFFmGi77FZhsw-Rr6iBccdPgqKpMohBUdBO2U4cKUl3IxasKd7u6trRgGf3Aztgd2Nu7MT4wMRNLvrAcHXmwFy7?></g></svg>