<svg xmlns="http://www.w3.org/2000/svg" xmlns:xlink="http://www.w3.org/1999/xlink" contentStyleType="text/css" data-diagram-type="CLASS" height="1417.5px" preserveAspectRatio="none" style="width:2394px;height:1417px;background:#FFFFFF;" version="1.1" viewBox="0 0 2394 1417" width="2394.5833px" zoomAndPan="magnify"><?plantuml 1.2026.3?><defs/><g><!--class Partij--><g class="entity" data-qualified-name="Partij" data-source-line="25" id="ent0002"><rect fill="#F3E5F5" height="59.2391" rx="4.375" ry="4.375" style="stroke:#6A1B9A;stroke-width:0.7292;" width="103.3366" x="2017.1149" y="17.5"/><text fill="#000000" font-family="sans-serif" font-size="17.5" font-style="italic" lengthAdjust="spacing" textLength="100.4199" x="2018.5732" y="41.7106">&#171;algemeen&#187;</text><text fill="#000000" font-family="sans-serif" font-size="20.4167" font-style="italic" lengthAdjust="spacing" textLength="50.6628" x="2043.4518" y="65.1408">Partij</text></g><!--class NietNatuurlijkPersoon--><g class="entity" data-qualified-name="NietNatuurlijkPersoon" data-source-line="28" id="ent0003"><rect fill="#FFF4E5" height="59.2391" rx="4.375" ry="4.375" style="stroke:#E67E22;stroke-width:0.7292;" width="239.799" x="1404.3408" y="174.9003"/><text fill="#000000" font-family="sans-serif" font-size="17.5" font-style="italic" lengthAdjust="spacing" textLength="236.8823" x="1405.7991" y="199.1109">&#171;bedrijven-en-instellingen&#187;</text><text fill="#000000" font-family="sans-serif" font-size="20.4167" font-style="italic" lengthAdjust="spacing" textLength="216.8075" x="1415.8365" y="222.5411">NietNatuurlijkPersoon</text></g><!--class Bedrijf--><g class="entity" data-qualified-name="Bedrijf" data-source-line="29" id="ent0004"><rect fill="#FFF4E5" height="59.2391" rx="4.375" ry="4.375" style="stroke:#E67E22;stroke-width:0.7292;" width="239.799" x="17.5" y="429.4564"/><text fill="#000000" font-family="sans-serif" font-size="17.5" font-style="italic" lengthAdjust="spacing" textLength="236.8823" x="18.9583" y="453.667">&#171;bedrijven-en-instellingen&#187;</text><text fill="#000000" font-family="sans-serif" font-size="20.4167" lengthAdjust="spacing" textLength="63.9417" x="105.4287" y="477.0972">Bedrijf</text></g><!--class Instelling--><g class="entity" data-qualified-name="Instelling" data-source-line="30" id="ent0005"><rect fill="#FFF4E5" height="59.2391" rx="4.375" ry="4.375" style="stroke:#E67E22;stroke-width:0.7292;" width="239.799" x="286.4657" y="429.4564"/><text fill="#000000" font-family="sans-serif" font-size="17.5" font-style="italic" lengthAdjust="spacing" textLength="236.8823" x="287.924" y="453.667">&#171;bedrijven-en-instellingen&#187;</text><text fill="#000000" font-family="sans-serif" font-size="20.4167" font-style="italic" lengthAdjust="spacing" textLength="91.0775" x="360.8264" y="477.0972">Instelling</text></g><!--class Overheidsinstelling--><g class="entity" data-qualified-name="Overheidsinstelling" data-source-line="31" id="ent0006"><rect fill="#FFF4E5" height="59.2391" rx="4.375" ry="4.375" style="stroke:#E67E22;stroke-width:0.7292;" width="239.799" x="41.9624" y="625.6791"/><text fill="#000000" font-family="sans-serif" font-size="17.5" font-style="italic" lengthAdjust="spacing" textLength="236.8823" x="43.4208" y="649.8897">&#171;bedrijven-en-instellingen&#187;</text><text fill="#000000" font-family="sans-serif" font-size="20.4167" lengthAdjust="spacing" textLength="190.4592" x="66.6324" y="673.3199">Overheidsinstelling</text></g><!--class MaatschappelijkeInstelling--><g class="entity" data-qualified-name="MaatschappelijkeInstelling" data-source-line="32" id="ent0007"><rect fill="#FFF4E5" height="59.2391" rx="4.375" ry="4.375" style="stroke:#E67E22;stroke-width:0.7292;" width="270.8071" x="310.9281" y="625.6791"/><text fill="#000000" font-family="sans-serif" font-size="17.5" font-style="italic" lengthAdjust="spacing" textLength="236.8823" x="327.8905" y="649.8897">&#171;bedrijven-en-instellingen&#187;</text><text fill="#000000" font-family="sans-serif" font-size="20.4167" lengthAdjust="spacing" textLength="262.0571" x="315.3031" y="673.3199">MaatschappelijkeInstelling</text></g><!--class BuitenlandseEntiteit--><g class="entity" data-qualified-name="BuitenlandseEntiteit" data-source-line="33" id="ent0008"><rect fill="#FFF4E5" height="59.2391" rx="4.375" ry="4.375" style="stroke:#E67E22;stroke-width:0.7292;" width="239.799" x="1489.9832" y="429.4564"/><text fill="#000000" font-family="sans-serif" font-size="17.5" font-style="italic" lengthAdjust="spacing" textLength="236.8823" x="1491.4416" y="453.667">&#171;bedrijven-en-instellingen&#187;</text><text fill="#000000" font-family="sans-serif" font-size="20.4167" lengthAdjust="spacing" textLength="196.3011" x="1511.7322" y="477.0972">BuitenlandseEntiteit</text></g><!--class OverigeNietNatuurlijkPersoon--><g class="entity" data-qualified-name="OverigeNietNatuurlijkPersoon" data-source-line="34" id="ent0009"><rect fill="#FFF4E5" height="59.2391" rx="4.375" ry="4.375" style="stroke:#E67E22;stroke-width:0.7292;" width="301.7212" x="630.4502" y="429.4564"/><text fill="#000000" font-family="sans-serif" font-size="17.5" font-style="italic" lengthAdjust="spacing" textLength="236.8823" x="662.8696" y="453.667">&#171;bedrijven-en-instellingen&#187;</text><text fill="#000000" font-family="sans-serif" font-size="20.4167" lengthAdjust="spacing" textLength="292.9712" x="634.8252" y="477.0972">OverigeNietNatuurlijkPersoon</text></g><!--class MaatschappelijkeActiviteit--><g class="entity" data-qualified-name="MaatschappelijkeActiviteit" data-source-line="46" id="ent0017"><rect fill="#FFF4E5" height="59.2391" rx="4.375" ry="4.375" style="stroke:#E67E22;stroke-width:0.7292;" width="266.8294" x="1193.9872" y="429.4564"/><text fill="#000000" font-family="sans-serif" font-size="17.5" font-style="italic" lengthAdjust="spacing" textLength="236.8823" x="1208.9607" y="453.667">&#171;bedrijven-en-instellingen&#187;</text><text fill="#000000" font-family="sans-serif" font-size="20.4167" lengthAdjust="spacing" textLength="258.0794" x="1198.3622" y="477.0972">MaatschappelijkeActiviteit</text></g><!--class Inschrijving--><g class="entity" data-qualified-name="Inschrijving" data-source-line="51" id="ent0019"><rect fill="#FFF4E5" height="59.2391" rx="4.375" ry="4.375" style="stroke:#E67E22;stroke-width:0.7292;" width="239.799" x="1934.7513" y="674.2651"/><text fill="#000000" font-family="sans-serif" font-size="17.5" font-style="italic" lengthAdjust="spacing" textLength="236.8823" x="1936.2097" y="698.4757">&#171;bedrijven-en-instellingen&#187;</text><text fill="#000000" font-family="sans-serif" font-size="20.4167" lengthAdjust="spacing" textLength="114.425" x="1997.4383" y="721.9059">Inschrijving</text></g><!--class Vestiging--><g class="entity" data-qualified-name="Vestiging" data-source-line="52" id="ent0020"><rect fill="#FFF4E5" height="59.2391" rx="4.375" ry="4.375" style="stroke:#E67E22;stroke-width:0.7292;" width="239.799" x="2014.6843" y="933.6723"/><text fill="#000000" font-family="sans-serif" font-size="17.5" font-style="italic" lengthAdjust="spacing" textLength="236.8823" x="2016.1427" y="957.8829">&#171;bedrijven-en-instellingen&#187;</text><text fill="#000000" font-family="sans-serif" font-size="20.4167" lengthAdjust="spacing" textLength="92.7024" x="2088.2326" y="981.3131">Vestiging</text></g><!--class Naamgeving--><g class="entity" data-qualified-name="Naamgeving" data-source-line="53" id="ent0021"><rect fill="#FFF4E5" height="59.2391" rx="4.375" ry="4.375" style="stroke:#E67E22;stroke-width:0.7292;" width="239.799" x="1121.8847" y="933.6723"/><text fill="#000000" font-family="sans-serif" font-size="17.5" font-style="italic" lengthAdjust="spacing" textLength="236.8823" x="1123.343" y="957.8829">&#171;bedrijven-en-instellingen&#187;</text><text fill="#000000" font-family="sans-serif" font-size="20.4167" lengthAdjust="spacing" textLength="122.6695" x="1180.4494" y="981.3131">Naamgeving</text></g><!--class Activiteit--><g class="entity" data-qualified-name="Activiteit" data-source-line="54" id="ent0022"><rect fill="#FFF4E5" height="59.2391" rx="4.375" ry="4.375" style="stroke:#E67E22;stroke-width:0.7292;" width="239.799" x="1706.7383" y="1129.895"/><text fill="#000000" font-family="sans-serif" font-size="17.5" font-style="italic" lengthAdjust="spacing" textLength="236.8823" x="1708.1966" y="1154.1056">&#171;bedrijven-en-instellingen&#187;</text><text fill="#000000" font-family="sans-serif" font-size="20.4167" lengthAdjust="spacing" textLength="87.0998" x="1783.0879" y="1177.5358">Activiteit</text></g><!--class Rechtstoestand--><g class="entity" data-qualified-name="Rechtstoestand" data-source-line="55" id="ent0023"><rect fill="#FFF4E5" height="59.2391" rx="4.375" ry="4.375" style="stroke:#E67E22;stroke-width:0.7292;" width="239.799" x="1390.8503" y="933.6723"/><text fill="#000000" font-family="sans-serif" font-size="17.5" font-style="italic" lengthAdjust="spacing" textLength="236.8823" x="1392.3087" y="957.8829">&#171;bedrijven-en-instellingen&#187;</text><text fill="#000000" font-family="sans-serif" font-size="20.4167" lengthAdjust="spacing" textLength="151.849" x="1434.8254" y="981.3131">Rechtstoestand</text></g><g class="entity" data-qualified-name="GMN32" data-source-line="68" id="ent0033"><path d="M1673.3064,179.2753 L1673.3064,252.0923 A4.375,4.375 0 0 0 1677.6814,256.4673 L2075.659,256.4673 A4.375,4.375 0 0 0 2080.034,252.0923 L2080.034,189.4836 L2065.4507,174.9003 L1677.6814,174.9003 A4.375,4.375 0 0 0 1673.3064,179.2753" fill="#FFFCD8" style="stroke:#181818;stroke-width:0.7292;"/><path d="M2065.4507,174.9003 L2065.4507,187.2961 A2.1875,2.1875 0 0 0 2067.6382,189.4836 L2080.034,189.4836 L2065.4507,174.9003" fill="#FFFCD8" style="stroke:#181818;stroke-width:1.4583;"/><text fill="#000000" font-family="sans-serif" font-size="18.9583" lengthAdjust="spacing" textLength="262.908" x="1682.0564" y="200.5208">Inschrijving hangt aan Partij,</text><text fill="#000000" font-family="sans-serif" font-size="18.9583" lengthAdjust="spacing" textLength="310.7112" x="1682.0564" y="222.8487">dekt eenmanszaak (NP-eigenaar),</text><text fill="#000000" font-family="sans-serif" font-size="18.9583" lengthAdjust="spacing" textLength="376.1026" x="1682.0564" y="245.1766">VOF-vennoten en holdings symmetrisch.</text></g><g class="entity" data-qualified-name="GMN35" data-source-line="74" id="ent0036"><path d="M980.8863,604.8096 L980.8863,773.8082 A4.375,4.375 0 0 0 985.2613,778.1832 L1398.7187,778.1832 A4.375,4.375 0 0 0 1403.0937,773.8082 L1403.0937,615.0179 L1388.5104,600.4346 L985.2613,600.4346 A4.375,4.375 0 0 0 980.8863,604.8096" fill="#FFFCD8" style="stroke:#181818;stroke-width:0.7292;"/><path d="M1388.5104,600.4346 L1388.5104,612.8304 A2.1875,2.1875 0 0 0 1390.6979,615.0179 L1403.0937,615.0179 L1388.5104,600.4346" fill="#FFFCD8" style="stroke:#181818;stroke-width:1.4583;"/><text fill="#000000" font-family="sans-serif" font-size="18.9583" lengthAdjust="spacing" textLength="312.1645" x="989.6363" y="626.0551">De onderneming binnen een NNP.</text><text fill="#000000" font-family="sans-serif" font-size="18.9583" lengthAdjust="spacing" textLength="360.8841" x="989.6363" y="648.383">E&#233;n NNP kan meerdere ondernemingen</text><text fill="#000000" font-family="sans-serif" font-size="18.9583" lengthAdjust="spacing" textLength="290.2625" x="989.6363" y="670.7109">voeren (1..* MAs); elke MA leidt</text><text fill="#000000" font-family="sans-serif" font-size="18.9583" lengthAdjust="spacing" textLength="291.5214" x="989.6363" y="693.0387">tot precies &#233;&#233;n HR-Inschrijving.</text><text fill="#000000" font-family="sans-serif" font-size="18.9583" lengthAdjust="spacing" textLength="293.7061" x="989.6363" y="715.3666">Onderscheid Activiteit: MA = de</text><text fill="#000000" font-family="sans-serif" font-size="18.9583" lengthAdjust="spacing" textLength="313.9974" x="989.6363" y="737.6945">onderneming als geheel, Activiteit</text><text fill="#000000" font-family="sans-serif" font-size="24.7917" font-weight="700" lengthAdjust="spacing" textLength="391.5824" x="989.6363" y="765.662">SBI-gecodeerde deeleconomie.</text></g><g class="entity" data-qualified-name="GMN38" data-source-line="84" id="ent0039"><path d="M655.4145,918.6361 L655.4145,1013.7809 A4.375,4.375 0 0 0 659.7895,1018.1559 L1088.343,1018.1559 A4.375,4.375 0 0 0 1092.718,1013.7809 L1092.718,928.8444 L1078.1347,914.2611 L659.7895,914.2611 A4.375,4.375 0 0 0 655.4145,918.6361" fill="#FFFCD8" style="stroke:#181818;stroke-width:0.7292;"/><path d="M1078.1347,914.2611 L1078.1347,926.6569 A2.1875,2.1875 0 0 0 1080.3222,928.8444 L1092.718,928.8444 L1078.1347,914.2611" fill="#FFFCD8" style="stroke:#181818;stroke-width:1.4583;"/><text fill="#000000" font-family="sans-serif" font-size="18.9583" lengthAdjust="spacing" textLength="313.479" x="664.1645" y="939.8816">HR-kernobject met KVK-nummer.</text><text fill="#000000" font-family="sans-serif" font-size="18.9583" lengthAdjust="spacing" textLength="406.6785" x="664.1645" y="962.2095">Omvat 1..* Vestigingen, 1..* Naamgevingen,</text><text fill="#000000" font-family="sans-serif" font-size="18.9583" lengthAdjust="spacing" textLength="390.9786" x="664.1645" y="984.5374">1..* Activiteiten, precies 1 Rechtstoestand,</text><text fill="#000000" font-family="sans-serif" font-size="18.9583" lengthAdjust="spacing" textLength="84.1924" x="664.1645" y="1006.8652">1..* MAs.</text></g><g class="entity" data-qualified-name="GMN41" data-source-line="91" id="ent0042"><path d="M1635.5441,1251.8424 L1635.5441,1391.6431 A4.375,4.375 0 0 0 1639.9191,1396.0181 L2013.3564,1396.0181 A4.375,4.375 0 0 0 2017.7314,1391.6431 L2017.7314,1262.0508 L2003.1481,1247.4674 L1639.9191,1247.4674 A4.375,4.375 0 0 0 1635.5441,1251.8424" fill="#FFFCD8" style="stroke:#181818;stroke-width:0.7292;"/><path d="M2003.1481,1247.4674 L2003.1481,1259.8633 A2.1875,2.1875 0 0 0 2005.3356,1262.0508 L2017.7314,1262.0508 L2003.1481,1247.4674" fill="#FFFCD8" style="stroke:#181818;stroke-width:1.4583;"/><text fill="#000000" font-family="sans-serif" font-size="18.9583" lengthAdjust="spacing" textLength="278.5246" x="1644.2941" y="1273.088">SBI-gecodeerd (CBS Standaard</text><text fill="#000000" font-family="sans-serif" font-size="18.9583" lengthAdjust="spacing" textLength="300.3989" x="1644.2941" y="1295.4159">Bedrijfsindeling). Op Inschrijving</text><text fill="#000000" font-family="sans-serif" font-size="18.9583" lengthAdjust="spacing" textLength="351.5623" x="1644.2941" y="1317.7437">voor onderneming-brede classificatie,</text><text fill="#000000" font-family="sans-serif" font-size="18.9583" lengthAdjust="spacing" textLength="331.9282" x="1644.2941" y="1340.0716">op Vestiging voor locatie-specifieke</text><text fill="#000000" font-family="sans-serif" font-size="18.9583" lengthAdjust="spacing" textLength="296.3165" x="1644.2941" y="1362.3995">uitvoering. Versie-gebonden via</text><text fill="#000000" font-family="sans-serif" font-size="18.9583" lengthAdjust="spacing" textLength="321.3382" x="1644.2941" y="1384.7274">sbiVersie (SBI 2008 naar SBI 2025).</text></g><g class="entity" data-qualified-name="GMN44" data-source-line="100" id="ent0045"><path d="M1343.928,1111.9421 L1343.928,1184.7591 A4.375,4.375 0 0 0 1348.303,1189.1341 L1673.1966,1189.1341 A4.375,4.375 0 0 0 1677.5716,1184.7591 L1677.5716,1122.1505 L1662.9883,1107.5671 L1348.303,1107.5671 A4.375,4.375 0 0 0 1343.928,1111.9421" fill="#FFFCD8" style="stroke:#181818;stroke-width:0.7292;"/><path d="M1662.9883,1107.5671 L1662.9883,1119.963 A2.1875,2.1875 0 0 0 1665.1758,1122.1505 L1677.5716,1122.1505 L1662.9883,1107.5671" fill="#FFFCD8" style="stroke:#181818;stroke-width:1.4583;"/><text fill="#000000" font-family="sans-serif" font-size="18.9583" lengthAdjust="spacing" textLength="303.0186" x="1352.678" y="1133.1877">Juridische/administratieve status</text><text fill="#000000" font-family="sans-serif" font-size="18.9583" lengthAdjust="spacing" textLength="292.0213" x="1352.678" y="1155.5155">(actief, insolventie, ontbonden).</text><text fill="#000000" font-family="sans-serif" font-size="18.9583" lengthAdjust="spacing" textLength="257.6038" x="1352.678" y="1177.8434">Precies &#233;&#233;n per Inschrijving.</text></g><g class="entity" data-qualified-name="GMN47" data-source-line="106" id="ent0048"><path d="M610.9019,630.0541 L610.9019,769.8547 A4.375,4.375 0 0 0 615.2769,774.2297 L947.3446,774.2297 A4.375,4.375 0 0 0 951.7196,769.8547 L951.7196,640.2625 L937.1363,625.6791 L615.2769,625.6791 A4.375,4.375 0 0 0 610.9019,630.0541" fill="#FFFCD8" style="stroke:#181818;stroke-width:0.7292;"/><path d="M937.1363,625.6791 L937.1363,638.075 A2.1875,2.1875 0 0 0 939.3238,640.2625 L951.7196,640.2625 L937.1363,625.6791" fill="#FFFCD8" style="stroke:#181818;stroke-width:1.4583;"/><text fill="#000000" font-family="sans-serif" font-size="18.9583" lengthAdjust="spacing" textLength="298.6863" x="619.6519" y="651.2996">Restcategorie voor entiteiten die</text><text fill="#000000" font-family="sans-serif" font-size="18.9583" lengthAdjust="spacing" textLength="263.232" x="619.6519" y="673.6275">niet eenduidig onder Bedrijf,</text><text fill="#000000" font-family="sans-serif" font-size="18.9583" lengthAdjust="spacing" textLength="297.4644" x="619.6519" y="695.9554">Instelling of BuitenlandseEntiteit</text><text fill="#000000" font-family="sans-serif" font-size="18.9583" lengthAdjust="spacing" textLength="273.8776" x="619.6519" y="718.2833">vallen, bewust 'catch-all' voor</text><text fill="#000000" font-family="sans-serif" font-size="18.9583" lengthAdjust="spacing" textLength="310.1928" x="619.6519" y="740.6112">migratie- en historische gevallen.</text><text fill="#000000" font-family="sans-serif" font-size="18.9583" lengthAdjust="spacing" textLength="205.0703" x="619.6519" y="762.939">Spaarzaam gebruiken.</text></g><g class="entity" data-qualified-name="GMN50" data-source-line="115" id="ent0051"><path d="M1975.704,1134.27 L1975.704,1184.7591 A4.375,4.375 0 0 0 1980.079,1189.1341 L2369.0217,1189.1341 A4.375,4.375 0 0 0 2373.3967,1184.7591 L2373.3967,1144.4784 L2358.8134,1129.895 L1980.079,1129.895 A4.375,4.375 0 0 0 1975.704,1134.27" fill="#FFFCD8" style="stroke:#181818;stroke-width:0.7292;"/><path d="M2358.8134,1129.895 L2358.8134,1142.2909 A2.1875,2.1875 0 0 0 2361.0009,1144.4784 L2373.3967,1144.4784 L2358.8134,1129.895" fill="#FFFCD8" style="stroke:#181818;stroke-width:1.4583;"/><text fill="#000000" font-family="sans-serif" font-size="18.9583" lengthAdjust="spacing" textLength="270.3229" x="1984.454" y="1155.5155">Adresseerbaar object via BAG</text><text fill="#000000" font-family="sans-serif" font-size="18.9583" lengthAdjust="spacing" textLength="367.0678" x="1984.454" y="1177.8434">(zie deelmodel Adressen en gebouwen).</text></g><line style="stroke:#444444;stroke-width:1.4583;" x1="2042.949" x2="2042.949" y1="76.7391" y2="116.567"/><line style="stroke:#444444;stroke-width:1.4583;" x1="2042.949" x2="1524.2402" y1="116.567" y2="116.567"/><line style="stroke:#444444;stroke-width:1.4583;" x1="1524.2402" x2="1524.2402" y1="116.567" y2="174.9003"/><polygon fill="#FFFFFF" points="2042.949,76.7391,2032.7407,104.4474,2053.1574,104.4474,2042.949,76.7391" style="stroke:#444444;stroke-width:1.4583;"/><line style="stroke:#444444;stroke-width:1.4583;" x1="1438.5978" x2="1438.5978" y1="234.1394" y2="273.9673"/><line style="stroke:#444444;stroke-width:1.4583;" x1="1438.5978" x2="137.3995" y1="273.9673" y2="273.9673"/><line style="stroke:#444444;stroke-width:1.4583;" x1="137.3995" x2="137.3995" y1="273.9673" y2="429.4564"/><polygon fill="#FFFFFF" points="1438.5978,234.1394,1428.3894,261.8477,1448.8061,261.8477,1438.5978,234.1394" style="stroke:#444444;stroke-width:1.4583;"/><line style="stroke:#444444;stroke-width:1.4583;" x1="1472.8547" x2="1472.8547" y1="234.1394" y2="288.5506"/><line style="stroke:#444444;stroke-width:1.4583;" x1="1472.8547" x2="406.3652" y1="288.5506" y2="288.5506"/><line style="stroke:#444444;stroke-width:1.4583;" x1="406.3652" x2="406.3652" y1="288.5506" y2="429.4564"/><polygon fill="#FFFFFF" points="1472.8547,234.1394,1462.6464,261.8477,1483.0631,261.8477,1472.8547,234.1394" style="stroke:#444444;stroke-width:1.4583;"/><line style="stroke:#444444;stroke-width:1.4583;" x1="1609.8827" x2="1609.8827" y1="234.1394" y2="429.4564"/><polygon fill="#FFFFFF" points="1609.8827,234.1394,1599.6744,261.8477,1620.0911,261.8477,1609.8827,234.1394" style="stroke:#444444;stroke-width:1.4583;"/><line style="stroke:#444444;stroke-width:1.4583;" x1="1507.1117" x2="1507.1117" y1="234.1394" y2="303.134"/><line style="stroke:#444444;stroke-width:1.4583;" x1="1507.1117" x2="781.3107" y1="303.134" y2="303.134"/><line style="stroke:#444444;stroke-width:1.4583;" x1="781.3107" x2="781.3107" y1="303.134" y2="429.4564"/><polygon fill="#FFFFFF" points="1507.1117,234.1394,1496.9034,261.8477,1517.3201,261.8477,1507.1117,234.1394" style="stroke:#444444;stroke-width:1.4583;"/><line style="stroke:#444444;stroke-width:1.4583;" x1="366.3987" x2="366.3987" y1="488.6955" y2="528.5234"/><line style="stroke:#444444;stroke-width:1.4583;" x1="366.3987" x2="161.8619" y1="528.5234" y2="528.5234"/><line style="stroke:#444444;stroke-width:1.4583;" x1="161.8619" x2="161.8619" y1="528.5234" y2="625.6791"/><polygon fill="#FFFFFF" points="366.3987,488.6955,356.1903,516.4038,376.607,516.4038,366.3987,488.6955" style="stroke:#444444;stroke-width:1.4583;"/><line style="stroke:#444444;stroke-width:1.4583;" x1="446.3317" x2="446.3317" y1="488.6955" y2="625.6791"/><polygon fill="#FFFFFF" points="446.3317,488.6955,436.1233,516.4038,456.54,516.4038,446.3317,488.6955" style="stroke:#444444;stroke-width:1.4583;"/><line style="stroke:#444444;stroke-width:1.4583;" x1="2094.6173" x2="2094.6173" y1="76.7391" y2="674.2651"/><polygon fill="#444444" points="2094.6173,674.2651,2100.4507,661.1401,2094.6173,666.9735,2088.784,661.1401,2094.6173,674.2651" style="stroke:#444444;stroke-width:1.4583;"/><text fill="#333333" font-family="sans-serif" font-size="18.9583" lengthAdjust="spacing" textLength="152.8423" x="1935.9417" y="368.1295">ingeschreven als</text><text fill="#333333" font-family="sans-serif" font-size="18.9583" lengthAdjust="spacing" textLength="33.1215" x="2098.9923" y="97.9846">1..*</text><text fill="#333333" font-family="sans-serif" font-size="18.9583" lengthAdjust="spacing" textLength="33.1215" x="2098.9923" y="667.3494">0..*</text><line style="stroke:#444444;stroke-width:1.4583;" x1="1541.3687" x2="1541.3687" y1="234.1394" y2="317.7173"/><line style="stroke:#444444;stroke-width:1.4583;" x1="1541.3687" x2="1355.8318" y1="317.7173" y2="317.7173"/><line style="stroke:#444444;stroke-width:1.4583;" x1="1355.8318" x2="1355.8318" y1="317.7173" y2="389.6285"/><line style="stroke:#444444;stroke-width:1.4583;" x1="1355.8318" x2="1282.9303" y1="389.6285" y2="389.6285"/><line style="stroke:#444444;stroke-width:1.4583;" x1="1282.9303" x2="1282.9303" y1="389.6285" y2="429.4564"/><polygon fill="#444444" points="1282.9303,429.4564,1288.7636,416.3314,1282.9303,422.1647,1277.097,416.3314,1282.9303,429.4564" style="stroke:#444444;stroke-width:1.4583;"/><text fill="#333333" font-family="sans-serif" font-size="18.9583" lengthAdjust="spacing" textLength="77.2034" x="1272.7951" y="368.1295">voert uit</text><text fill="#333333" font-family="sans-serif" font-size="18.9583" lengthAdjust="spacing" textLength="11.9878" x="1545.7437" y="255.3849">1</text><text fill="#333333" font-family="sans-serif" font-size="18.9583" lengthAdjust="spacing" textLength="33.1215" x="1287.3053" y="422.5407">1..*</text><line style="stroke:#444444;stroke-width:1.4583;" x1="1371.8734" x2="1371.8734" y1="488.6955" y2="585.8512"/><line style="stroke:#444444;stroke-width:1.4583;" x1="1371.8734" x2="2014.6843" y1="585.8512" y2="585.8512"/><line style="stroke:#444444;stroke-width:1.4583;" x1="2014.6843" x2="2014.6843" y1="585.8512" y2="674.2651"/><polygon fill="#444444" points="2014.6843,674.2651,2020.5177,661.1401,2014.6843,666.9735,2008.851,661.1401,2014.6843,674.2651" style="stroke:#444444;stroke-width:1.4583;"/><text fill="#333333" font-family="sans-serif" font-size="18.9583" lengthAdjust="spacing" textLength="155.0918" x="1210.9484" y="564.3522">geregistreerd via</text><text fill="#333333" font-family="sans-serif" font-size="18.9583" lengthAdjust="spacing" textLength="33.1215" x="1376.2484" y="509.941">1..*</text><text fill="#333333" font-family="sans-serif" font-size="18.9583" lengthAdjust="spacing" textLength="11.9878" x="2019.0593" y="667.3494">1</text><line style="stroke:#444444;stroke-width:1.4583;" x1="2134.5838" x2="2134.5838" y1="733.5042" y2="933.6723"/><polygon fill="#444444" points="2134.5838,933.6723,2140.4172,920.5473,2134.5838,926.3806,2128.7505,920.5473,2134.5838,933.6723" style="stroke:#444444;stroke-width:1.4583;"/><text fill="#333333" font-family="sans-serif" font-size="18.9583" lengthAdjust="spacing" textLength="46.9515" x="2081.799" y="872.3454">heeft</text><text fill="#333333" font-family="sans-serif" font-size="18.9583" lengthAdjust="spacing" textLength="11.9878" x="2138.9588" y="754.7498">1</text><text fill="#333333" font-family="sans-serif" font-size="18.9583" lengthAdjust="spacing" textLength="33.1215" x="2138.9588" y="926.7566">1..*</text><line style="stroke:#444444;stroke-width:1.4583;" x1="2014.6843" x2="2014.6843" y1="733.5042" y2="807.3499"/><line style="stroke:#444444;stroke-width:1.4583;" x1="2014.6843" x2="1241.7842" y1="807.3499" y2="807.3499"/><line style="stroke:#444444;stroke-width:1.4583;" x1="1241.7842" x2="1241.7842" y1="807.3499" y2="933.6723"/><polygon fill="#444444" points="1241.7842,933.6723,1247.6175,920.5473,1241.7842,926.3806,1235.9508,920.5473,1241.7842,933.6723" style="stroke:#444444;stroke-width:1.4583;"/><text fill="#333333" font-family="sans-serif" font-size="18.9583" lengthAdjust="spacing" textLength="46.9515" x="1188.9993" y="872.3454">heeft</text><text fill="#333333" font-family="sans-serif" font-size="18.9583" lengthAdjust="spacing" textLength="11.9878" x="2019.0593" y="754.7498">1</text><text fill="#333333" font-family="sans-serif" font-size="18.9583" lengthAdjust="spacing" textLength="33.1215" x="1246.1592" y="926.7566">1..*</text><line style="stroke:#444444;stroke-width:1.4583;" x1="2094.6173" x2="2094.6173" y1="733.5042" y2="836.5165"/><line style="stroke:#444444;stroke-width:1.4583;" x1="2094.6173" x2="1794.8611" y1="836.5165" y2="836.5165"/><line style="stroke:#444444;stroke-width:1.4583;" x1="1794.8611" x2="1794.8611" y1="836.5165" y2="1090.0671"/><line style="stroke:#444444;stroke-width:1.4583;" x1="1794.8611" x2="1786.6713" y1="1090.0671" y2="1090.0671"/><line style="stroke:#444444;stroke-width:1.4583;" x1="1786.6713" x2="1786.6713" y1="1090.0671" y2="1129.895"/><polygon fill="#444444" points="1786.6713,1129.895,1792.5046,1116.77,1786.6713,1122.6034,1780.838,1116.77,1786.6713,1129.895" style="stroke:#444444;stroke-width:1.4583;"/><text fill="#333333" font-family="sans-serif" font-size="18.9583" lengthAdjust="spacing" textLength="46.9515" x="1742.0763" y="970.4567">heeft</text><text fill="#333333" font-family="sans-serif" font-size="18.9583" lengthAdjust="spacing" textLength="11.9878" x="2098.9923" y="754.7498">1</text><text fill="#333333" font-family="sans-serif" font-size="18.9583" lengthAdjust="spacing" textLength="33.1215" x="1791.0463" y="1122.9793">1..*</text><line style="stroke:#444444;stroke-width:1.4583;" x1="2094.6173" x2="2094.6173" y1="992.9114" y2="1032.7393"/><line style="stroke:#444444;stroke-width:1.4583;" x1="2094.6173" x2="1866.6043" y1="1032.7393" y2="1032.7393"/><line style="stroke:#444444;stroke-width:1.4583;" x1="1866.6043" x2="1866.6043" y1="1032.7393" y2="1129.895"/><polygon fill="#444444" points="1866.6043,1129.895,1872.4376,1116.77,1866.6043,1122.6034,1860.771,1116.77,1866.6043,1129.895" style="stroke:#444444;stroke-width:1.4583;"/><text fill="#333333" font-family="sans-serif" font-size="18.9583" lengthAdjust="spacing" textLength="46.9515" x="1813.8195" y="1068.5681">heeft</text><text fill="#333333" font-family="sans-serif" font-size="18.9583" lengthAdjust="spacing" textLength="11.9878" x="2098.9923" y="1014.1569">1</text><text fill="#333333" font-family="sans-serif" font-size="18.9583" lengthAdjust="spacing" textLength="33.1215" x="1870.9793" y="1122.9793">0..*</text><line style="stroke:#444444;stroke-width:1.4583;" x1="2054.6508" x2="2054.6508" y1="733.5042" y2="821.9332"/><line style="stroke:#444444;stroke-width:1.4583;" x1="2054.6508" x2="1510.7498" y1="821.9332" y2="821.9332"/><line style="stroke:#444444;stroke-width:1.4583;" x1="1510.7498" x2="1510.7498" y1="821.9332" y2="933.6723"/><polygon fill="#444444" points="1510.7498,933.6723,1516.5832,920.5473,1510.7498,926.3806,1504.9165,920.5473,1510.7498,933.6723" style="stroke:#444444;stroke-width:1.4583;"/><text fill="#333333" font-family="sans-serif" font-size="18.9583" lengthAdjust="spacing" textLength="46.9515" x="1457.965" y="872.3454">heeft</text><text fill="#333333" font-family="sans-serif" font-size="18.9583" lengthAdjust="spacing" textLength="11.9878" x="2059.0258" y="754.7498">1</text><text fill="#333333" font-family="sans-serif" font-size="18.9583" lengthAdjust="spacing" textLength="11.9878" x="1515.1248" y="926.7566">1</text><line style="stroke:#444444;stroke-width:1.4583;stroke-dasharray:10.2083,10.2083;" x1="2068.7832" x2="2068.7832" y1="76.7391" y2="131.1503"/><line style="stroke:#444444;stroke-width:1.4583;stroke-dasharray:10.2083,10.2083;" x1="2068.7832" x2="1876.6702" y1="131.1503" y2="131.1503"/><line style="stroke:#444444;stroke-width:1.4583;stroke-dasharray:10.2083,10.2083;" x1="1876.6702" x2="1876.6702" y1="131.1503" y2="174.9003"/><line style="stroke:#444444;stroke-width:1.4583;stroke-dasharray:10.2083,10.2083;" x1="1282.9303" x2="1282.9303" y1="488.6955" y2="528.5234"/><line style="stroke:#444444;stroke-width:1.4583;stroke-dasharray:10.2083,10.2083;" x1="1282.9303" x2="1191.99" y1="528.5234" y2="528.5234"/><line style="stroke:#444444;stroke-width:1.4583;stroke-dasharray:10.2083,10.2083;" x1="1191.99" x2="1191.99" y1="528.5234" y2="600.4346"/><line style="stroke:#444444;stroke-width:1.4583;stroke-dasharray:10.2083,10.2083;" x1="1974.7178" x2="1974.7178" y1="733.5042" y2="792.7665"/><line style="stroke:#444444;stroke-width:1.4583;stroke-dasharray:10.2083,10.2083;" x1="1974.7178" x2="874.0663" y1="792.7665" y2="792.7665"/><line style="stroke:#444444;stroke-width:1.4583;stroke-dasharray:10.2083,10.2083;" x1="874.0663" x2="874.0663" y1="792.7665" y2="914.2611"/><line style="stroke:#444444;stroke-width:1.4583;stroke-dasharray:10.2083,10.2083;" x1="1826.6378" x2="1826.6378" y1="1189.1341" y2="1247.4674"/><line style="stroke:#444444;stroke-width:1.4583;stroke-dasharray:10.2083,10.2083;" x1="1510.7498" x2="1510.7498" y1="992.9114" y2="1107.5671"/><line style="stroke:#444444;stroke-width:1.4583;stroke-dasharray:10.2083,10.2083;" x1="781.3107" x2="781.3107" y1="488.6955" y2="625.6791"/><line style="stroke:#444444;stroke-width:1.4583;stroke-dasharray:10.2083,10.2083;" x1="2174.5503" x2="2174.5503" y1="992.9114" y2="1129.895"/><?plantuml-src dLPHKzj647xNhzZI1w23A92GfZHXnf2Gq4o02JDvwVJX9AsbmzATv-va9cdvGVaT-MFzLhADR6C5Qc06ttsx--r-UtltqzYfl59KgY-s3iJbA8hyI9knSggYRAnf__bUPoKjbVU349nEwi3dgJNN-YjJ5-8BbTbRRN8Qgj9pPyVPscIdrXbszAApVYfEJrGwogU8qZhw-MmWFoimwp9sKyXXy-b01ixPs-dcy-Qpl7bcJPW2dZMV3k321bwbSNPs-kPbLEYCYQjn-48LLmaxtowbsgKbHyibUlLAbJbNpERucFw9Y5Ry3f_nuV1GThePlL3xoUyAg-zPONMTrTrgl8GpfsycR6ByQkC3boL4w24m73xd5GByuZS-EEWXq5hTHIhnmQaqjF7fIhcWRwYRTnG5ctCeeBOGM3Auq1mkLAXhL-gRqHKAQgsXtZpWfBKzQJ337wANGfxFznyPvtB2hc2TUVrKouzA1PyMQZncIO-V7Fgare5DgKpc-Qq9-AB34rZhdFzFWU-YQ2Ralt7yi4RH6iTYC1Mc3t9VYLv73wJVX-_BEUeMVmPUadK5irx0ADgSZikuq2OSqSS1EKwBuCaevGDXAbnSNCKMKTXDO147DLf3FluBKoHZypVO5s4rx20DUj9c7ptSMVU87sYxU1hd9o8jnEBnZVcPVT3vu_4NIbKvFo70enEQ6NngYXyiYA5V7jtX6_kxkxziK1mVqyPUy-z2DOv8J6I1uObmbQsHS6D_wgJrrwFF4Kqikq3exQW7rYMsly8gHrVb6dEDsMKqqIfQ02onkLVhY0hcOUX5TxHw37mXjHP-7s-EtLk7NUDwOrdG6Juok9-fEIXaXzCR1rsmuATG9W-ab9dkxm2GyGXF6pQLClwhKYFQml5aZ0kSLxSjYC-NPp5KbW26y5lOCeCtJ_vBLJ5UEuYm6p7826IPIS-X9Nh3P0rkKiELy4kqCH83VnWIkm2y_Vwj-Pz685s9gb2uQyC6AEaSs6n9vJ5n_FOVybXZ6JubHfb42ZRG69D8iwVltyJh-qznjpWIxLByOWas7KsQ8VOQXGAYonPTZuP3-SiTMiZgDLsVdCSvfpPh6CEKItmpjjAyKgd4Xc0hALMNZZmoFiKZ1BF93UEMHgNfm-SFiQbHTDUmhIOgK9FplBFOxBGhzzsA9O2RnNkMWfkLOt-ff-PmLBA7xKBA2mdJrkd9DLsBB_HG9g-ezkh3dPAnJ9ljNReSB-SxiNX3TGeS9uxb4IbpJ0zrge9cuMR7dPFR69MssOpz61aDDOz4AWmIwGkH5dZdiPzp8lvDCnc8VABR3Te2VphOstifjvIZzjl1uNPF-eirWxS_QwSpEGlygyh0NyQGi9em0H9g3ymMtbkQXpiOdzwME5II4d8EBQzjaVLgeKl7k98MstGjezvhda3O1vI9S-kGSLCtdZuUK95CIyqCRENuPJLIoLinPkBjjDDazX10m0VV8T1HbQNqLyAtDMxyJGHDYnYBcqrK82gTDwM9ct62GjbcY32EKsiiTRWUGmfCf0ghYQlrI9RN9Z_l25WECiVUenCJ4NDwVY0vdGpUYGXVTNiaAxHhEKCteqqQfBvjX9X7-Wy0?></g></svg>