<svg xmlns="http://www.w3.org/2000/svg" xmlns:xlink="http://www.w3.org/1999/xlink" contentStyleType="text/css" data-diagram-type="CLASS" height="886.6667px" preserveAspectRatio="none" style="width:1337px;height:886px;background:#FFFFFF;" version="1.1" viewBox="0 0 1337 886" width="1337.2917px" zoomAndPan="magnify"><?plantuml 1.2026.3?><defs/><g><!--class Partij--><g class="entity" data-qualified-name="Partij" data-source-line="30" id="ent0002"><rect fill="#F3E5F5" height="59.2391" rx="4.375" ry="4.375" style="stroke:#6A1B9A;stroke-width:0.7292;" width="103.3366" x="139.3285" y="213.7227"/><text fill="#000000" font-family="sans-serif" font-size="17.5" font-style="italic" lengthAdjust="spacing" textLength="100.4199" x="140.7868" y="237.9333">&#171;algemeen&#187;</text><text fill="#000000" font-family="sans-serif" font-size="20.4167" font-style="italic" lengthAdjust="spacing" textLength="50.6628" x="165.6654" y="261.3635">Partij</text></g><!--class KadastraleOnroerendeZaak--><g class="entity" data-qualified-name="KadastraleOnroerendeZaak" data-source-line="33" id="ent0003"><rect fill="#FDE8D6" height="59.2391" rx="4.375" ry="4.375" style="stroke:#A04000;stroke-width:0.7292;" width="276.6789" x="375.8491" y="439.1121"/><text fill="#000000" font-family="sans-serif" font-size="17.5" font-style="italic" lengthAdjust="spacing" textLength="176.803" x="425.787" y="463.3228">&#171;onroerende-zaken&#187;</text><text fill="#000000" font-family="sans-serif" font-size="20.4167" font-style="italic" lengthAdjust="spacing" textLength="267.9289" x="380.2241" y="486.7529">KadastraleOnroerendeZaak</text></g><!--class Perceel--><g class="entity" data-qualified-name="Perceel" data-source-line="34" id="ent0004"><rect fill="#FDE8D6" height="59.2391" rx="4.375" ry="4.375" style="stroke:#A04000;stroke-width:0.7292;" width="179.7196" x="752.1341" y="610.0903"/><text fill="#000000" font-family="sans-serif" font-size="17.5" font-style="italic" lengthAdjust="spacing" textLength="176.803" x="753.5924" y="634.3009">&#171;onroerende-zaken&#187;</text><text fill="#000000" font-family="sans-serif" font-size="20.4167" lengthAdjust="spacing" textLength="70.1225" x="806.9327" y="657.7311">Perceel</text></g><!--class Appartementsrecht--><g class="entity" data-qualified-name="Appartementsrecht" data-source-line="35" id="ent0005"><rect fill="#FDE8D6" height="59.2391" rx="4.375" ry="4.375" style="stroke:#A04000;stroke-width:0.7292;" width="198.8204" x="401.8019" y="610.0903"/><text fill="#000000" font-family="sans-serif" font-size="17.5" font-style="italic" lengthAdjust="spacing" textLength="176.803" x="412.8106" y="634.3009">&#171;onroerende-zaken&#187;</text><text fill="#000000" font-family="sans-serif" font-size="20.4167" lengthAdjust="spacing" textLength="190.0704" x="406.1769" y="657.7311">Appartementsrecht</text></g><!--class Appartementsrechtsplitsing--><g class="entity" data-qualified-name="Appartementsrechtsplitsing" data-source-line="36" id="ent0006"><rect fill="#FDE8D6" height="59.2391" rx="4.375" ry="4.375" style="stroke:#A04000;stroke-width:0.7292;" width="283.2286" x="681.6946" y="413.8676"/><text fill="#000000" font-family="sans-serif" font-size="17.5" font-style="italic" lengthAdjust="spacing" textLength="176.803" x="734.9074" y="438.0782">&#171;onroerende-zaken&#187;</text><text fill="#000000" font-family="sans-serif" font-size="20.4167" lengthAdjust="spacing" textLength="274.4786" x="686.0696" y="461.5084">Appartementsrechtsplitsing</text></g><!--class AdresseerbaarObject--><g class="entity" data-qualified-name="AdresseerbaarObject" data-source-line="45" id="ent0011"><rect fill="#E8F5E9" height="59.2391" rx="4.375" ry="4.375" style="stroke:#2E7D32;stroke-width:0.7292;" width="225.5375" x="388.4434" y="806.3131"/><text fill="#000000" font-family="sans-serif" font-size="17.5" font-style="italic" lengthAdjust="spacing" textLength="222.6208" x="389.9017" y="830.5237">&#171;adressen-en-gebouwen&#187;</text><text fill="#000000" font-family="sans-serif" font-size="20.4167" lengthAdjust="spacing" textLength="206.7287" x="397.8478" y="853.9539">AdresseerbaarObject</text></g><!--class ZakelijkRecht--><g class="entity" data-qualified-name="ZakelijkRecht" data-source-line="49" id="ent0013"><rect fill="#FDE8D6" height="59.2391" rx="4.375" ry="4.375" style="stroke:#A04000;stroke-width:0.7292;" width="179.7196" x="759.0977" y="213.7227"/><text fill="#000000" font-family="sans-serif" font-size="17.5" font-style="italic" lengthAdjust="spacing" textLength="176.803" x="760.556" y="237.9333">&#171;onroerende-zaken&#187;</text><text fill="#000000" font-family="sans-serif" font-size="20.4167" lengthAdjust="spacing" textLength="131.9208" x="782.9971" y="261.3635">ZakelijkRecht</text></g><!--class Zekerheidsrecht--><g class="entity" data-qualified-name="Zekerheidsrecht" data-source-line="50" id="ent0014"><rect fill="#FDE8D6" height="59.2391" rx="4.375" ry="4.375" style="stroke:#A04000;stroke-width:0.7292;" width="179.7196" x="341.3251" y="213.7227"/><text fill="#000000" font-family="sans-serif" font-size="17.5" font-style="italic" lengthAdjust="spacing" textLength="176.803" x="342.7834" y="237.9333">&#171;onroerende-zaken&#187;</text><text fill="#000000" font-family="sans-serif" font-size="20.4167" lengthAdjust="spacing" textLength="159.0765" x="351.6466" y="261.3635">Zekerheidsrecht</text></g><!--class Tenaamstelling--><g class="entity" data-qualified-name="Tenaamstelling" data-source-line="51" id="ent0015"><rect fill="#FDE8D6" height="59.2391" rx="4.375" ry="4.375" style="stroke:#A04000;stroke-width:0.7292;" width="179.7196" x="131.0903" y="17.5"/><text fill="#000000" font-family="sans-serif" font-size="17.5" font-style="italic" lengthAdjust="spacing" textLength="176.803" x="132.5486" y="41.7106">&#171;onroerende-zaken&#187;</text><text fill="#000000" font-family="sans-serif" font-size="20.4167" lengthAdjust="spacing" textLength="151.0913" x="145.4044" y="65.1408">Tenaamstelling</text></g><!--class Aantekening--><g class="entity" data-qualified-name="Aantekening" data-source-line="60" id="ent0020"><rect fill="#FDE8D6" height="59.2391" rx="4.375" ry="4.375" style="stroke:#A04000;stroke-width:0.7292;" width="179.7196" x="550.2114" y="213.7227"/><text fill="#000000" font-family="sans-serif" font-size="17.5" font-style="italic" lengthAdjust="spacing" textLength="176.803" x="551.6697" y="237.9333">&#171;onroerende-zaken&#187;</text><text fill="#000000" font-family="sans-serif" font-size="20.4167" lengthAdjust="spacing" textLength="124.3243" x="577.909" y="261.3635">Aantekening</text></g><!--class PubliekrechtelijkeBeperking--><g class="entity" data-qualified-name="PubliekrechtelijkeBeperking" data-source-line="61" id="ent0021"><rect fill="#FDE8D6" height="59.2391" rx="4.375" ry="4.375" style="stroke:#A04000;stroke-width:0.7292;" width="282.7899" x="967.984" y="213.7227"/><text fill="#000000" font-family="sans-serif" font-size="17.5" font-style="italic" lengthAdjust="spacing" textLength="176.803" x="1020.9775" y="237.9333">&#171;onroerende-zaken&#187;</text><text fill="#000000" font-family="sans-serif" font-size="20.4167" lengthAdjust="spacing" textLength="274.0399" x="972.359" y="261.3635">PubliekrechtelijkeBeperking</text></g><g class="entity" data-qualified-name="GMN24" data-source-line="68" id="ent0025"><path d="M35.3112,443.4871 L35.3112,471.6484 A4.375,4.375 0 0 0 39.6862,476.0234 L342.3074,476.0234 A4.375,4.375 0 0 0 346.6824,471.6484 L346.6824,453.6955 L332.0991,439.1121 L39.6862,439.1121 A4.375,4.375 0 0 0 35.3112,443.4871" fill="#FFFCD8" style="stroke:#181818;stroke-width:0.7292;"/><path d="M332.0991,439.1121 L332.0991,451.508 A2.1875,2.1875 0 0 0 334.2866,453.6955 L346.6824,453.6955 L332.0991,439.1121" fill="#FFFCD8" style="stroke:#181818;stroke-width:1.4583;"/><text fill="#000000" font-family="sans-serif" font-size="18.9583" lengthAdjust="spacing" textLength="280.7463" x="44.0612" y="464.7327">Supertype uit het hoofdmodel.</text></g><g class="entity" data-qualified-name="GMN27" data-source-line="72" id="ent0028"><path d="M643.1475,810.6881 L643.1475,861.1772 A4.375,4.375 0 0 0 647.5225,865.5522 L1036.4653,865.5522 A4.375,4.375 0 0 0 1040.8403,861.1772 L1040.8403,820.8964 L1026.257,806.3131 L647.5225,806.3131 A4.375,4.375 0 0 0 643.1475,810.6881" fill="#FFFCD8" style="stroke:#181818;stroke-width:0.7292;"/><path d="M1026.257,806.3131 L1026.257,818.7089 A2.1875,2.1875 0 0 0 1028.4445,820.8964 L1040.8403,820.8964 L1026.257,806.3131" fill="#FFFCD8" style="stroke:#181818;stroke-width:1.4583;"/><text fill="#000000" font-family="sans-serif" font-size="18.9583" lengthAdjust="spacing" textLength="178.947" x="651.8975" y="831.9336">Gebouwen via Pand</text><text fill="#000000" font-family="sans-serif" font-size="18.9583" lengthAdjust="spacing" textLength="367.0678" x="651.8975" y="854.2615">(zie deelmodel Adressen en gebouwen).</text></g><g class="entity" data-qualified-name="GMN30" data-source-line="77" id="ent0031"><path d="M994.845,421.1593 L994.845,493.9762 A4.375,4.375 0 0 0 999.22,498.3512 L1313.8012,498.3512 A4.375,4.375 0 0 0 1318.1762,493.9762 L1318.1762,431.3676 L1303.5929,416.7843 L999.22,416.7843 A4.375,4.375 0 0 0 994.845,421.1593" fill="#FFFCD8" style="stroke:#181818;stroke-width:0.7292;"/><path d="M1303.5929,416.7843 L1303.5929,429.1801 A2.1875,2.1875 0 0 0 1305.7804,431.3676 L1318.1762,431.3676 L1303.5929,416.7843" fill="#FFFCD8" style="stroke:#181818;stroke-width:1.4583;"/><text fill="#000000" font-family="sans-serif" font-size="18.9583" lengthAdjust="spacing" textLength="292.7063" x="1003.595" y="442.4048">Beperkingen uit bestuursbesluit</text><text fill="#000000" font-family="sans-serif" font-size="18.9583" lengthAdjust="spacing" textLength="280.9684" x="1003.595" y="464.7327">(gemeente, provincie, notaris).</text><text fill="#000000" font-family="sans-serif" font-size="18.9583" lengthAdjust="spacing" textLength="188.093" x="1003.595" y="487.0605">Gekoppeld aan KOZ.</text></g><line style="stroke:#444444;stroke-width:1.4583;" x1="560.3017" x2="560.3017" y1="498.3512" y2="512.9346"/><line style="stroke:#444444;stroke-width:1.4583;" x1="560.3017" x2="812.0407" y1="512.9346" y2="512.9346"/><line style="stroke:#444444;stroke-width:1.4583;" x1="812.0407" x2="812.0407" y1="512.9346" y2="610.0903"/><polygon fill="#FFFFFF" points="560.3017,498.3512,550.0933,526.0596,570.51,526.0596,560.3017,498.3512" style="stroke:#444444;stroke-width:1.4583;"/><line style="stroke:#444444;stroke-width:1.4583;" x1="468.0754" x2="468.0754" y1="498.3512" y2="610.0903"/><polygon fill="#FFFFFF" points="468.0754,498.3512,457.8671,526.0596,478.2837,526.0596,468.0754,498.3512" style="stroke:#444444;stroke-width:1.4583;"/><line style="stroke:#444444;stroke-width:1.4583;" x1="776.1042" x2="776.1042" y1="473.1067" y2="570.2625"/><line style="stroke:#444444;stroke-width:1.4583;" x1="776.1042" x2="534.3489" y1="570.2625" y2="570.2625"/><line style="stroke:#444444;stroke-width:1.4583;" x1="534.3489" x2="534.3489" y1="570.2625" y2="610.0903"/><polygon fill="#444444" points="534.3489,610.0903,540.1822,596.9653,534.3489,602.7987,528.5155,596.9653,534.3489,610.0903" style="stroke:#444444;stroke-width:1.4583;"/><text fill="#333333" font-family="sans-serif" font-size="18.9583" lengthAdjust="spacing" textLength="79.6472" x="690.6236" y="548.7634">splitst in</text><text fill="#333333" font-family="sans-serif" font-size="18.9583" lengthAdjust="spacing" textLength="11.9878" x="780.4792" y="494.3522">1</text><text fill="#333333" font-family="sans-serif" font-size="18.9583" lengthAdjust="spacing" textLength="33.1215" x="538.7239" y="603.1746">1..*</text><line style="stroke:#444444;stroke-width:1.4583;" x1="870.5137" x2="870.5137" y1="473.1067" y2="512.9346"/><line style="stroke:#444444;stroke-width:1.4583;" x1="870.5137" x2="871.9472" y1="512.9346" y2="512.9346"/><line style="stroke:#444444;stroke-width:1.4583;" x1="871.9472" x2="871.9472" y1="512.9346" y2="610.0903"/><polygon fill="#444444" points="871.9472,610.0903,877.7805,596.9653,871.9472,602.7987,866.1139,596.9653,871.9472,610.0903" style="stroke:#444444;stroke-width:1.4583;"/><text fill="#333333" font-family="sans-serif" font-size="18.9583" lengthAdjust="spacing" textLength="23.5776" x="842.5363" y="548.7634">op</text><text fill="#333333" font-family="sans-serif" font-size="18.9583" lengthAdjust="spacing" textLength="11.9878" x="874.8887" y="494.3522">1</text><text fill="#333333" font-family="sans-serif" font-size="18.9583" lengthAdjust="spacing" textLength="33.1215" x="876.3222" y="603.1746">1..*</text><line style="stroke:#444444;stroke-width:1.4583;" x1="501.2121" x2="501.2121" y1="669.3294" y2="806.3131"/><polygon fill="#444444" points="501.2121,806.3131,507.0455,793.1881,501.2121,799.0214,495.3788,793.1881,501.2121,806.3131" style="stroke:#444444;stroke-width:1.4583;"/><text fill="#333333" font-family="sans-serif" font-size="18.9583" lengthAdjust="spacing" textLength="61.9663" x="433.4124" y="744.9862">betreft</text><text fill="#333333" font-family="sans-serif" font-size="18.9583" lengthAdjust="spacing" textLength="35.9727" x="505.5871" y="690.575">0..1</text><text fill="#333333" font-family="sans-serif" font-size="18.9583" lengthAdjust="spacing" textLength="35.9727" x="505.5871" y="799.3974">0..1</text><line style="stroke:#444444;stroke-width:1.4583;" x1="848.9575" x2="848.9575" y1="272.9618" y2="384.7009"/><line style="stroke:#444444;stroke-width:1.4583;" x1="848.9575" x2="541.8564" y1="384.7009" y2="384.7009"/><line style="stroke:#444444;stroke-width:1.4583;" x1="541.8564" x2="541.8564" y1="384.7009" y2="439.1121"/><polygon fill="#444444" points="541.8564,439.1121,547.6898,425.9871,541.8564,431.8205,536.0231,425.9871,541.8564,439.1121" style="stroke:#444444;stroke-width:1.4583;"/><text fill="#333333" font-family="sans-serif" font-size="18.9583" lengthAdjust="spacing" textLength="23.5776" x="819.5466" y="348.6186">op</text><text fill="#333333" font-family="sans-serif" font-size="18.9583" lengthAdjust="spacing" textLength="11.9878" x="853.3325" y="294.2074">1</text><text fill="#333333" font-family="sans-serif" font-size="18.9583" lengthAdjust="spacing" textLength="33.1215" x="546.2314" y="432.1965">1..*</text><line style="stroke:#444444;stroke-width:1.4583;" x1="431.1849" x2="431.1849" y1="272.9618" y2="439.1121"/><polygon fill="#444444" points="431.1849,439.1121,437.0182,425.9871,431.1849,431.8205,425.3515,425.9871,431.1849,439.1121" style="stroke:#444444;stroke-width:1.4583;"/><text fill="#333333" font-family="sans-serif" font-size="18.9583" lengthAdjust="spacing" textLength="23.5776" x="401.774" y="348.6186">op</text><text fill="#333333" font-family="sans-serif" font-size="18.9583" lengthAdjust="spacing" textLength="11.9878" x="435.5599" y="294.2074">1</text><text fill="#333333" font-family="sans-serif" font-size="18.9583" lengthAdjust="spacing" textLength="33.1215" x="435.5599" y="432.1965">1..*</text><line style="stroke:#444444;stroke-width:1.4583;" x1="250.9034" x2="250.9034" y1="76.7391" y2="116.567"/><line style="stroke:#444444;stroke-width:1.4583;" x1="250.9034" x2="848.9575" y1="116.567" y2="116.567"/><line style="stroke:#444444;stroke-width:1.4583;" x1="848.9575" x2="848.9575" y1="116.567" y2="213.7227"/><polygon fill="#444444" points="848.9575,213.7227,854.7908,200.5977,848.9575,206.4311,843.1242,200.5977,848.9575,213.7227" style="stroke:#444444;stroke-width:1.4583;"/><text fill="#333333" font-family="sans-serif" font-size="18.9583" lengthAdjust="spacing" textLength="40.8604" x="856.2492" y="152.3958">voor</text><text fill="#333333" font-family="sans-serif" font-size="18.9583" lengthAdjust="spacing" textLength="9.1367" x="255.2784" y="97.9846">*</text><text fill="#333333" font-family="sans-serif" font-size="18.9583" lengthAdjust="spacing" textLength="11.9878" x="853.3325" y="206.807">1</text><line style="stroke:#444444;stroke-width:1.4583;" x1="190.9968" x2="190.9968" y1="76.7391" y2="213.7227"/><polygon fill="#444444" points="190.9968,213.7227,196.8301,200.5977,190.9968,206.4311,185.1635,200.5977,190.9968,213.7227" style="stroke:#444444;stroke-width:1.4583;"/><text fill="#333333" font-family="sans-serif" font-size="18.9583" lengthAdjust="spacing" textLength="164.7468" x="20.4167" y="152.3958">tenaamgesteld op</text><text fill="#333333" font-family="sans-serif" font-size="18.9583" lengthAdjust="spacing" textLength="9.1367" x="195.3718" y="97.9846">*</text><text fill="#333333" font-family="sans-serif" font-size="18.9583" lengthAdjust="spacing" textLength="11.9878" x="195.3718" y="206.807">1</text><line style="stroke:#444444;stroke-width:1.4583;" x1="640.0712" x2="640.0712" y1="272.9618" y2="370.1176"/><line style="stroke:#444444;stroke-width:1.4583;" x1="640.0712" x2="486.5207" y1="370.1176" y2="370.1176"/><line style="stroke:#444444;stroke-width:1.4583;" x1="486.5207" x2="486.5207" y1="370.1176" y2="439.1121"/><polygon fill="#444444" points="486.5207,439.1121,492.354,425.9871,486.5207,431.8205,480.6873,425.9871,486.5207,439.1121" style="stroke:#444444;stroke-width:1.4583;"/><text fill="#333333" font-family="sans-serif" font-size="18.9583" lengthAdjust="spacing" textLength="23.5776" x="610.6603" y="348.6186">op</text><text fill="#333333" font-family="sans-serif" font-size="18.9583" lengthAdjust="spacing" textLength="9.1367" x="644.4462" y="294.2074">*</text><text fill="#333333" font-family="sans-serif" font-size="18.9583" lengthAdjust="spacing" textLength="11.9878" x="490.8957" y="432.1965">1</text><line style="stroke:#444444;stroke-width:1.4583;" x1="1062.2473" x2="1062.2473" y1="272.9618" y2="399.2843"/><line style="stroke:#444444;stroke-width:1.4583;" x1="1062.2473" x2="597.1922" y1="399.2843" y2="399.2843"/><line style="stroke:#444444;stroke-width:1.4583;" x1="597.1922" x2="597.1922" y1="399.2843" y2="439.1121"/><polygon fill="#444444" points="597.1922,439.1121,603.0255,425.9871,597.1922,431.8205,591.3589,425.9871,597.1922,439.1121" style="stroke:#444444;stroke-width:1.4583;"/><text fill="#333333" font-family="sans-serif" font-size="18.9583" lengthAdjust="spacing" textLength="23.5776" x="1032.8364" y="348.6186">op</text><text fill="#333333" font-family="sans-serif" font-size="18.9583" lengthAdjust="spacing" textLength="9.1367" x="1066.6223" y="294.2074">*</text><text fill="#333333" font-family="sans-serif" font-size="18.9583" lengthAdjust="spacing" textLength="11.9878" x="601.5672" y="432.1965">1</text><line style="stroke:#444444;stroke-width:1.4583;stroke-dasharray:10.2083,10.2083;" x1="190.9968" x2="190.9968" y1="272.9618" y2="439.1121"/><line style="stroke:#444444;stroke-width:1.4583;stroke-dasharray:10.2083,10.2083;" x1="841.9939" x2="841.9939" y1="669.3294" y2="806.3131"/><line style="stroke:#444444;stroke-width:1.4583;stroke-dasharray:10.2083,10.2083;" x1="1156.5106" x2="1156.5106" y1="272.9618" y2="416.7843"/><?plantuml-src bLNRRjim37tNLt3PmxfY2T9BkZOe2gGPiWu5rc7TKzveYt5Kov8XoItQhQ_xWdtXlcJo9ONds6xhEB137V8SKgJo9ZKO9GWIxtNcW6JCc8s5Ij5W0ZmLi7Suhbb2YTREd3CYo1nz2RMw5Wy4TOXT8zTtGaMmGccfjc9qflXS6qK6ZchsUHxq7CCugX1I6tYxcEMVBPWsd4m5cHHN3J8pHjzLYuV5rLnSQEKgm45nrG1VjQDj6Ol5_DCnMmjEG4dgxY6X921ZIrCeJ2Y9DKjqUeeoeeH8dPt1JmQm5NTrG9FL95-fPtI4Uy49Uki5eRTsUJssy753rf8Q-ZkYG6TttTnql9hGIPDxdpxoW_rkxighXLiheycGuZHymBWdPqx7_AZ9Y-F3yNZSatFfzSWmiCvWw4fQ-8R6YHkebvenfoDoQzzWkO26moLop0sIhfu4Bn5ZQCl0krSqP48YsG-QfRuWpgjGpXeAr-wLS9jAuMm-DAr-ZunrY_yr76v4FeFQecKzGWPx0nWEp_npDDeTj6GuXHBiGAXN1DhKSmewPUmTp8ssTiYzAT6SvBI5wU_lFp0h-vjCW6YkWXlosxgJ2RTPKE3lJUE_PrMTMvowHcKx1HYCHwED-FArBU0K0dA6LgxHVQM4fTz2AMxYxyztnP9YCciI_2Kjz8CKOc8TITdNDl_JDxQYirkAlMdAUPLpGzvWT-CxQ5Ha2hTQcpvyDUTJS0KceXp5Y-vfgVSCbVF2LMTHdkOw2wIWkCYjq4Fdb9A9-wfP3rwNs5-BFgQNHs7A_ps14P4lcbvLLV7PN6S-bhjF2V9fM9F_QhtYnJ2Dc8y1kMFb7cZdT5BuLoS6mETg1E1Me0-hkBVjF0Y2fvbidx6-uDqPvwV_vjr7opK7VaUpp5Z_bFvtJbyUw8u-G6hqhL2XyA-U18smdZWN7UiqpVi0KS7brRAcvXy0?></g></svg>