<svg xmlns="http://www.w3.org/2000/svg" xmlns:xlink="http://www.w3.org/1999/xlink" contentStyleType="text/css" data-diagram-type="CLASS" height="491.5625px" preserveAspectRatio="none" style="width:1621px;height:491px;background:#FFFFFF;" version="1.1" viewBox="0 0 1621 491" width="1621.3542px" zoomAndPan="magnify"><?plantuml 1.2026.3?><defs/><g><!--class Partij--><g class="entity" data-qualified-name="Partij" data-source-line="67" id="ent0002"><rect fill="#F3E5F5" height="46.545" rx="3.4375" ry="3.4375" style="stroke:#6A1B9A;stroke-width:0.5729;" width="81.193" x="1270.5024" y="106.1283"/><text fill="#000000" font-family="sans-serif" font-size="13.75" font-style="italic" lengthAdjust="spacing" textLength="78.9014" x="1271.6482" y="125.151">&#171;algemeen&#187;</text><text fill="#000000" font-family="sans-serif" font-size="16.0417" font-style="italic" lengthAdjust="spacing" textLength="39.8065" x="1291.1956" y="143.5604">Partij</text></g><!--class NatuurlijkPersoon--><g class="entity" data-qualified-name="NatuurlijkPersoon" data-source-line="68" id="ent0003"><rect fill="#E8F0FE" height="46.545" rx="3.4375" ry="3.4375" style="stroke:#1967D2;stroke-width:0.5729;" width="145.7983" x="797.0256" y="325.26"/><text fill="#000000" font-family="sans-serif" font-size="13.75" font-style="italic" lengthAdjust="spacing" textLength="76.5314" x="831.659" y="344.2826">&#171;personen&#187;</text><text fill="#000000" font-family="sans-serif" font-size="16.0417" lengthAdjust="spacing" textLength="138.9233" x="800.4631" y="362.6921">NatuurlijkPersoon</text></g><!--class Verbintenis--><g class="entity" data-qualified-name="Verbintenis" data-source-line="69" id="ent0004"><rect fill="#E8F0FE" height="46.545" rx="3.4375" ry="3.4375" style="stroke:#1967D2;stroke-width:0.5729;" width="95.2608" x="846.594" y="429.0967"/><text fill="#000000" font-family="sans-serif" font-size="13.75" font-style="italic" lengthAdjust="spacing" textLength="76.5314" x="855.9588" y="448.1193">&#171;personen&#187;</text><text fill="#000000" font-family="sans-serif" font-size="16.0417" lengthAdjust="spacing" textLength="88.3858" x="850.0315" y="466.5287">Verbintenis</text></g><!--class NietNatuurlijkPersoon--><g class="entity" data-qualified-name="NietNatuurlijkPersoon" data-source-line="70" id="ent0005"><rect fill="#FFF4E5" height="46.545" rx="3.4375" ry="3.4375" style="stroke:#E67E22;stroke-width:0.5729;" width="188.4135" x="13.75" y="209.965"/><text fill="#000000" font-family="sans-serif" font-size="13.75" font-style="italic" lengthAdjust="spacing" textLength="186.1218" x="14.8958" y="228.9876">&#171;bedrijven-en-instellingen&#187;</text><text fill="#000000" font-family="sans-serif" font-size="16.0417" font-style="italic" lengthAdjust="spacing" textLength="170.3487" x="22.7824" y="247.3971">NietNatuurlijkPersoon</text></g><!--class Vestiging--><g class="entity" data-qualified-name="Vestiging" data-source-line="71" id="ent0006"><rect fill="#FFF4E5" height="46.545" rx="3.4375" ry="3.4375" style="stroke:#E67E22;stroke-width:0.5729;" width="188.4135" x="13.75" y="325.26"/><text fill="#000000" font-family="sans-serif" font-size="13.75" font-style="italic" lengthAdjust="spacing" textLength="186.1218" x="14.8958" y="344.2826">&#171;bedrijven-en-instellingen&#187;</text><text fill="#000000" font-family="sans-serif" font-size="16.0417" lengthAdjust="spacing" textLength="72.8376" x="71.5379" y="362.6921">Vestiging</text></g><!--class Adres--><g class="entity" data-qualified-name="Adres" data-source-line="75" id="ent0007"><rect fill="#E8F5E9" height="46.545" rx="3.4375" ry="3.4375" style="stroke:#2E7D32;stroke-width:0.5729;" width="177.208" x="234.9193" y="429.0967"/><text fill="#000000" font-family="sans-serif" font-size="13.75" font-style="italic" lengthAdjust="spacing" textLength="174.9164" x="236.0652" y="448.1193">&#171;adressen-en-gebouwen&#187;</text><text fill="#000000" font-family="sans-serif" font-size="16.0417" font-style="italic" lengthAdjust="spacing" textLength="44.843" x="301.1018" y="466.5287">Adres</text></g><!--class AdresseerbaarObject--><g class="entity" data-qualified-name="AdresseerbaarObject" data-source-line="76" id="ent0008"><rect fill="#E8F5E9" height="46.545" rx="3.4375" ry="3.4375" style="stroke:#2E7D32;stroke-width:0.5729;" width="177.208" x="234.9193" y="325.26"/><text fill="#000000" font-family="sans-serif" font-size="13.75" font-style="italic" lengthAdjust="spacing" textLength="174.9164" x="236.0652" y="344.2826">&#171;adressen-en-gebouwen&#187;</text><text fill="#000000" font-family="sans-serif" font-size="16.0417" font-style="italic" lengthAdjust="spacing" textLength="162.4297" x="242.3085" y="362.6921">AdresseerbaarObject</text></g><!--class Pand--><g class="entity" data-qualified-name="Pand" data-source-line="77" id="ent0009"><rect fill="#E8F5E9" height="46.545" rx="3.4375" ry="3.4375" style="stroke:#2E7D32;stroke-width:0.5729;" width="177.208" x="1060.6683" y="325.26"/><text fill="#000000" font-family="sans-serif" font-size="13.75" font-style="italic" lengthAdjust="spacing" textLength="174.9164" x="1061.8141" y="344.2826">&#171;adressen-en-gebouwen&#187;</text><text fill="#000000" font-family="sans-serif" font-size="16.0417" lengthAdjust="spacing" textLength="37.7778" x="1130.3834" y="362.6921">Pand</text></g><!--class KadastraleOnroerendeZaak--><g class="entity" data-qualified-name="KadastraleOnroerendeZaak" data-source-line="82" id="ent0010"><rect fill="#FDE8D6" height="46.545" rx="3.4375" ry="3.4375" style="stroke:#A04000;stroke-width:0.5729;" width="217.3905" x="1200.9628" y="429.0967"/><text fill="#000000" font-family="sans-serif" font-size="13.75" font-style="italic" lengthAdjust="spacing" textLength="138.9166" x="1240.1998" y="448.1193">&#171;onroerende-zaken&#187;</text><text fill="#000000" font-family="sans-serif" font-size="16.0417" font-style="italic" lengthAdjust="spacing" textLength="210.5155" x="1204.4003" y="466.5287">KadastraleOnroerendeZaak</text></g><!--class Tenaamstelling--><g class="entity" data-qualified-name="Tenaamstelling" data-source-line="83" id="ent0011"><rect fill="#FDE8D6" height="46.545" rx="3.4375" ry="3.4375" style="stroke:#A04000;stroke-width:0.5729;" width="141.2083" x="1260.793" y="209.965"/><text fill="#000000" font-family="sans-serif" font-size="13.75" font-style="italic" lengthAdjust="spacing" textLength="138.9166" x="1261.9388" y="228.9876">&#171;onroerende-zaken&#187;</text><text fill="#000000" font-family="sans-serif" font-size="16.0417" lengthAdjust="spacing" textLength="118.7146" x="1272.0399" y="247.3971">Tenaamstelling</text></g><!--class ZakelijkRecht--><g class="entity" data-qualified-name="ZakelijkRecht" data-source-line="84" id="ent0012"><rect fill="#FDE8D6" height="46.545" rx="3.4375" ry="3.4375" style="stroke:#A04000;stroke-width:0.5729;" width="141.2083" x="1260.793" y="325.26"/><text fill="#000000" font-family="sans-serif" font-size="13.75" font-style="italic" lengthAdjust="spacing" textLength="138.9166" x="1261.9388" y="344.2826">&#171;onroerende-zaken&#187;</text><text fill="#000000" font-family="sans-serif" font-size="16.0417" lengthAdjust="spacing" textLength="103.652" x="1279.5711" y="362.6921">ZakelijkRecht</text></g><!--class WOZWaarde--><g class="entity" data-qualified-name="WOZWaarde" data-source-line="88" id="ent0013"><rect fill="#FCE4EC" height="46.545" rx="3.4375" ry="3.4375" style="stroke:#AD1457;stroke-width:0.5729;" width="196.8864" x="225.0802" y="209.965"/><text fill="#000000" font-family="sans-serif" font-size="13.75" font-style="italic" lengthAdjust="spacing" textLength="194.5947" x="226.226" y="228.9876">&#171;waarde-onroerende-zaken&#187;</text><text fill="#000000" font-family="sans-serif" font-size="16.0417" lengthAdjust="spacing" textLength="92.921" x="277.0628" y="247.3971">WOZWaarde</text></g><!--class AuthentiekInkomen--><g class="entity" data-qualified-name="AuthentiekInkomen" data-source-line="92" id="ent0014"><rect fill="#EDE7F6" height="46.545" rx="3.4375" ry="3.4375" style="stroke:#4527A0;stroke-width:0.5729;" width="159.3727" x="472.3832" y="209.965"/><text fill="#000000" font-family="sans-serif" font-size="13.75" font-style="italic" lengthAdjust="spacing" textLength="91.7181" x="506.2105" y="228.9876">&#171;belastingen&#187;</text><text fill="#000000" font-family="sans-serif" font-size="16.0417" lengthAdjust="spacing" textLength="152.4977" x="475.8207" y="247.3971">AuthentiekInkomen</text></g><!--class LoonBestanddeel--><g class="entity" data-qualified-name="LoonBestanddeel" data-source-line="93" id="ent0015"><rect fill="#EDE7F6" height="46.545" rx="3.4375" ry="3.4375" style="stroke:#4527A0;stroke-width:0.5729;" width="138.9524" x="353.0591" y="13.75"/><text fill="#000000" font-family="sans-serif" font-size="13.75" font-style="italic" lengthAdjust="spacing" textLength="91.7181" x="376.6763" y="32.7726">&#171;belastingen&#187;</text><text fill="#000000" font-family="sans-serif" font-size="16.0417" lengthAdjust="spacing" textLength="132.0774" x="356.4966" y="51.182">LoonBestanddeel</text></g><!--class Aftrekpost--><g class="entity" data-qualified-name="Aftrekpost" data-source-line="94" id="ent0016"><rect fill="#EDE7F6" height="46.545" rx="3.4375" ry="3.4375" style="stroke:#4527A0;stroke-width:0.5729;" width="94.0098" x="973.9326" y="209.965"/><text fill="#000000" font-family="sans-serif" font-size="13.75" font-style="italic" lengthAdjust="spacing" textLength="91.7181" x="975.0784" y="228.9876">&#171;belastingen&#187;</text><text fill="#000000" font-family="sans-serif" font-size="16.0417" font-style="italic" lengthAdjust="spacing" textLength="81.9707" x="979.9521" y="247.3971">Aftrekpost</text></g><!--class Arbeidsverhouding--><g class="entity" data-qualified-name="Arbeidsverhouding" data-source-line="99" id="ent0017"><rect fill="#FFE9C2" height="46.545" rx="3.4375" ry="3.4375" style="stroke:#B87A00;stroke-width:0.5729;" width="154.7121" x="345.1793" y="106.1283"/><text fill="#000000" font-family="sans-serif" font-size="13.75" font-style="italic" lengthAdjust="spacing" textLength="136.4526" x="354.309" y="125.151">&#171;werk-en-inkomen&#187;</text><text fill="#000000" font-family="sans-serif" font-size="16.0417" lengthAdjust="spacing" textLength="147.8371" x="348.6168" y="143.5604">Arbeidsverhouding</text></g><!--class Uitkering--><g class="entity" data-qualified-name="Uitkering" data-source-line="100" id="ent0018"><rect fill="#FFE9C2" height="46.545" rx="3.4375" ry="3.4375" style="stroke:#B87A00;stroke-width:0.5729;" width="138.7443" x="654.6725" y="209.965"/><text fill="#000000" font-family="sans-serif" font-size="13.75" font-style="italic" lengthAdjust="spacing" textLength="136.4526" x="655.8184" y="228.9876">&#171;werk-en-inkomen&#187;</text><text fill="#000000" font-family="sans-serif" font-size="16.0417" font-style="italic" lengthAdjust="spacing" textLength="71.2241" x="688.4327" y="247.3971">Uitkering</text></g><!--class KredietOvereenkomst--><g class="entity" data-qualified-name="KredietOvereenkomst" data-source-line="105" id="ent0019"><rect fill="#E1F0FA" height="46.545" rx="3.4375" ry="3.4375" style="stroke:#1E6091;stroke-width:0.5729;" width="174.9992" x="1424.918" y="209.965"/><text fill="#000000" font-family="sans-serif" font-size="13.75" font-style="italic" lengthAdjust="spacing" textLength="61.1633" x="1481.8359" y="228.9876">&#171;krediet&#187;</text><text fill="#000000" font-family="sans-serif" font-size="16.0417" font-style="italic" lengthAdjust="spacing" textLength="168.1242" x="1428.3555" y="247.3971">KredietOvereenkomst</text></g><!--class AchterstandRegistratie--><g class="entity" data-qualified-name="AchterstandRegistratie" data-source-line="106" id="ent0020"><rect fill="#E1F0FA" height="46.545" rx="3.4375" ry="3.4375" style="stroke:#1E6091;stroke-width:0.5729;" width="183.5997" x="1420.6177" y="106.1283"/><text fill="#000000" font-family="sans-serif" font-size="13.75" font-style="italic" lengthAdjust="spacing" textLength="61.1633" x="1481.8359" y="125.151">&#171;krediet&#187;</text><text fill="#000000" font-family="sans-serif" font-size="16.0417" lengthAdjust="spacing" textLength="176.7247" x="1424.0552" y="143.5604">AchterstandRegistratie</text></g><!--class StudieLening--><g class="entity" data-qualified-name="StudieLening" data-source-line="110" id="ent0021"><rect fill="#FFF8E1" height="46.545" rx="3.4375" ry="3.4375" style="stroke:#B08800;stroke-width:0.5729;" width="107.1824" x="816.3335" y="209.965"/><text fill="#000000" font-family="sans-serif" font-size="13.75" font-style="italic" lengthAdjust="spacing" textLength="79.0894" x="830.38" y="228.9876">&#171;onderwijs&#187;</text><text fill="#000000" font-family="sans-serif" font-size="16.0417" lengthAdjust="spacing" textLength="100.3074" x="819.771" y="247.3971">StudieLening</text></g><line style="stroke:#444444;stroke-width:1.1458;" x1="1311.0989" x2="1311.0989" y1="152.6733" y2="175.59"/><line style="stroke:#444444;stroke-width:1.1458;" x1="1311.0989" x2="949.8701" y1="175.59" y2="175.59"/><line style="stroke:#444444;stroke-width:1.1458;" x1="949.8701" x2="949.8701" y1="175.59" y2="290.885"/><line style="stroke:#444444;stroke-width:1.1458;" x1="949.8701" x2="888.1495" y1="290.885" y2="290.885"/><line style="stroke:#444444;stroke-width:1.1458;" x1="888.1495" x2="888.1495" y1="290.885" y2="325.26"/><polygon fill="#FFFFFF" points="1311.0989,152.6733,1303.0781,174.4442,1319.1197,174.4442,1311.0989,152.6733" style="stroke:#444444;stroke-width:1.1458;"/><line style="stroke:#444444;stroke-width:1.1458;" x1="1290.8006" x2="1290.8006" y1="152.6733" y2="164.1317"/><line style="stroke:#444444;stroke-width:1.1458;" x1="1290.8006" x2="937.2659" y1="164.1317" y2="164.1317"/><line style="stroke:#444444;stroke-width:1.1458;" x1="937.2659" x2="937.2659" y1="164.1317" y2="198.5067"/><line style="stroke:#444444;stroke-width:1.1458;" x1="937.2659" x2="139.359" y1="198.5067" y2="198.5067"/><line style="stroke:#444444;stroke-width:1.1458;" x1="139.359" x2="139.359" y1="198.5067" y2="209.965"/><polygon fill="#FFFFFF" points="1290.8006,152.6733,1282.7798,174.4442,1298.8215,174.4442,1290.8006,152.6733" style="stroke:#444444;stroke-width:1.1458;"/><line style="stroke:#444444;stroke-width:1.1458;" x1="894.2244" x2="894.2244" y1="371.805" y2="429.0967"/><polygon fill="#444444" points="894.2244,429.0967,898.8078,418.7842,894.2244,423.3675,889.6411,418.7842,894.2244,429.0967" style="stroke:#444444;stroke-width:1.1458;"/><line style="stroke:#444444;stroke-width:1.1458;" x1="107.9567" x2="107.9567" y1="256.51" y2="325.26"/><polygon fill="#444444" points="107.9567,325.26,112.5401,314.9475,107.9567,319.5308,103.3734,314.9475,107.9567,325.26" style="stroke:#444444;stroke-width:1.1458;"/><line style="stroke:#444444;stroke-width:1.1458;" x1="845.625" x2="845.625" y1="371.805" y2="406.18"/><line style="stroke:#444444;stroke-width:1.1458;" x1="845.625" x2="367.8254" y1="406.18" y2="406.18"/><line style="stroke:#444444;stroke-width:1.1458;" x1="367.8254" x2="367.8254" y1="406.18" y2="429.0967"/><polygon fill="#444444" points="367.8254,429.0967,372.4087,418.7842,367.8254,423.3675,363.242,418.7842,367.8254,429.0967" style="stroke:#444444;stroke-width:1.1458;"/><line style="stroke:#444444;stroke-width:1.1458;" x1="107.9567" x2="107.9567" y1="371.805" y2="406.18"/><line style="stroke:#444444;stroke-width:1.1458;" x1="107.9567" x2="279.2213" y1="406.18" y2="406.18"/><line style="stroke:#444444;stroke-width:1.1458;" x1="279.2213" x2="279.2213" y1="406.18" y2="429.0967"/><polygon fill="#444444" points="279.2213,429.0967,283.8047,418.7842,279.2213,423.3675,274.638,418.7842,279.2213,429.0967" style="stroke:#444444;stroke-width:1.1458;"/><line style="stroke:#444444;stroke-width:1.1458;" x1="323.5234" x2="323.5234" y1="371.805" y2="429.0967"/><polygon fill="#444444" points="323.5234,429.0967,328.1067,418.7842,323.5234,423.3675,318.94,418.7842,323.5234,429.0967" style="stroke:#444444;stroke-width:1.1458;"/><line style="stroke:#444444;stroke-width:1.1458;" x1="1149.2723" x2="1149.2723" y1="371.805" y2="406.18"/><line style="stroke:#444444;stroke-width:1.1458;" x1="1149.2723" x2="1287.9191" y1="406.18" y2="406.18"/><line style="stroke:#444444;stroke-width:1.1458;" x1="1287.9191" x2="1287.9191" y1="406.18" y2="429.0967"/><polygon fill="#444444" points="1287.9191,429.0967,1292.5024,418.7842,1287.9191,423.3675,1283.3357,418.7842,1287.9191,429.0967" style="stroke:#444444;stroke-width:1.1458;"/><line style="stroke:#444444;stroke-width:1.1458;" x1="1331.3972" x2="1331.3972" y1="371.805" y2="429.0967"/><polygon fill="#444444" points="1331.3972,429.0967,1335.9805,418.7842,1331.3972,423.3675,1326.8138,418.7842,1331.3972,429.0967" style="stroke:#444444;stroke-width:1.1458;"/><line style="stroke:#444444;stroke-width:1.1458;" x1="1331.3972" x2="1331.3972" y1="256.51" y2="325.26"/><polygon fill="#444444" points="1331.3972,325.26,1335.9805,314.9475,1331.3972,319.5308,1326.8138,314.9475,1331.3972,325.26" style="stroke:#444444;stroke-width:1.1458;"/><line style="stroke:#444444;stroke-width:1.1458;" x1="1331.3972" x2="1331.3972" y1="152.6733" y2="209.965"/><polygon fill="#444444" points="1331.3972,209.965,1335.9805,199.6525,1331.3972,204.2358,1326.8138,199.6525,1331.3972,209.965" style="stroke:#444444;stroke-width:1.1458;"/><line style="stroke:#444444;stroke-width:1.1458;" x1="323.5234" x2="323.5234" y1="256.51" y2="325.26"/><polygon fill="#444444" points="323.5234,325.26,328.1067,314.9475,323.5234,319.5308,318.94,314.9475,323.5234,325.26" style="stroke:#444444;stroke-width:1.1458;"/><line style="stroke:#444444;stroke-width:1.1458;" x1="552.0695" x2="552.0695" y1="256.51" y2="302.3433"/><line style="stroke:#444444;stroke-width:1.1458;" x1="552.0695" x2="833.4751" y1="302.3433" y2="302.3433"/><line style="stroke:#444444;stroke-width:1.1458;" x1="833.4751" x2="833.4751" y1="302.3433" y2="325.26"/><polygon fill="#444444" points="833.4751,325.26,838.0585,314.9475,833.4751,319.5308,828.8918,314.9475,833.4751,325.26" style="stroke:#444444;stroke-width:1.1458;"/><line style="stroke:#444444;stroke-width:1.1458;" x1="422.5354" x2="422.5354" y1="60.295" y2="106.1283"/><polygon fill="#444444" points="422.5354,106.1283,427.1187,95.8158,422.5354,100.3992,417.952,95.8158,422.5354,106.1283" style="stroke:#444444;stroke-width:1.1458;"/><line style="stroke:#444444;stroke-width:1.1458;" x1="1005.2692" x2="1005.2692" y1="256.51" y2="302.3433"/><line style="stroke:#444444;stroke-width:1.1458;" x1="1005.2692" x2="906.3743" y1="302.3433" y2="302.3433"/><line style="stroke:#444444;stroke-width:1.1458;" x1="906.3743" x2="906.3743" y1="302.3433" y2="325.26"/><polygon fill="#444444" points="906.3743,325.26,910.9576,314.9475,906.3743,319.5308,901.791,314.9475,906.3743,325.26" style="stroke:#444444;stroke-width:1.1458;"/><line style="stroke:#444444;stroke-width:1.1458;" x1="1036.6058" x2="1036.6058" y1="256.51" y2="417.6383"/><line style="stroke:#444444;stroke-width:1.1458;" x1="1036.6058" x2="1244.4409" y1="417.6383" y2="417.6383"/><line style="stroke:#444444;stroke-width:1.1458;" x1="1244.4409" x2="1244.4409" y1="417.6383" y2="429.0967"/><polygon fill="#444444" points="1244.4409,429.0967,1249.0243,418.7842,1244.4409,423.3675,1239.8576,418.7842,1244.4409,429.0967" style="stroke:#444444;stroke-width:1.1458;"/><line style="stroke:#444444;stroke-width:1.1458;" x1="448.3207" x2="448.3207" y1="152.6733" y2="313.8017"/><line style="stroke:#444444;stroke-width:1.1458;" x1="448.3207" x2="815.2503" y1="313.8017" y2="313.8017"/><line style="stroke:#444444;stroke-width:1.1458;" x1="815.2503" x2="815.2503" y1="313.8017" y2="325.26"/><polygon fill="#444444" points="815.2503,325.26,819.8337,314.9475,815.2503,319.5308,810.667,314.9475,815.2503,325.26" style="stroke:#444444;stroke-width:1.1458;"/><line style="stroke:#444444;stroke-width:1.1458;" x1="396.75" x2="396.75" y1="152.6733" y2="164.1317"/><line style="stroke:#444444;stroke-width:1.1458;" x1="396.75" x2="76.5545" y1="164.1317" y2="164.1317"/><line style="stroke:#444444;stroke-width:1.1458;" x1="76.5545" x2="76.5545" y1="164.1317" y2="209.965"/><polygon fill="#444444" points="76.5545,209.965,81.1378,199.6525,76.5545,204.2358,71.9712,199.6525,76.5545,209.965" style="stroke:#444444;stroke-width:1.1458;"/><line style="stroke:#444444;stroke-width:1.1458;" x1="724.0447" x2="724.0447" y1="256.51" y2="290.885"/><line style="stroke:#444444;stroke-width:1.1458;" x1="724.0447" x2="851.6999" y1="290.885" y2="290.885"/><line style="stroke:#444444;stroke-width:1.1458;" x1="851.6999" x2="851.6999" y1="290.885" y2="325.26"/><polygon fill="#444444" points="851.6999,325.26,856.2833,314.9475,851.6999,319.5308,847.1166,314.9475,851.6999,325.26" style="stroke:#444444;stroke-width:1.1458;"/><line style="stroke:#444444;stroke-width:1.1458;" x1="1483.251" x2="1483.251" y1="256.51" y2="313.8017"/><line style="stroke:#444444;stroke-width:1.1458;" x1="1483.251" x2="924.5991" y1="313.8017" y2="313.8017"/><line style="stroke:#444444;stroke-width:1.1458;" x1="924.5991" x2="924.5991" y1="313.8017" y2="325.26"/><polygon fill="#444444" points="924.5991,325.26,929.1824,314.9475,924.5991,319.5308,920.0158,314.9475,924.5991,325.26" style="stroke:#444444;stroke-width:1.1458;"/><line style="stroke:#444444;stroke-width:1.1458;" x1="1541.5841" x2="1541.5841" y1="256.51" y2="406.18"/><line style="stroke:#444444;stroke-width:1.1458;" x1="1541.5841" x2="1374.8753" y1="406.18" y2="406.18"/><line style="stroke:#444444;stroke-width:1.1458;" x1="1374.8753" x2="1374.8753" y1="406.18" y2="429.0967"/><polygon fill="#444444" points="1374.8753,429.0967,1379.4586,418.7842,1374.8753,423.3675,1370.2919,418.7842,1374.8753,429.0967" style="stroke:#444444;stroke-width:1.1458;"/><line style="stroke:#444444;stroke-width:1.1458;" x1="1512.4176" x2="1512.4176" y1="152.6733" y2="209.965"/><polygon fill="#444444" points="1512.4176,209.965,1517.0009,199.6525,1512.4176,204.2358,1507.8342,199.6525,1512.4176,209.965" style="stroke:#444444;stroke-width:1.1458;"/><line style="stroke:#444444;stroke-width:1.1458;" x1="869.9247" x2="869.9247" y1="256.51" y2="325.26"/><polygon fill="#444444" points="869.9247,325.26,874.5081,314.9475,869.9247,319.5308,865.3414,314.9475,869.9247,325.26" style="stroke:#444444;stroke-width:1.1458;"/><?plantuml-src ZLPjRzew5FwUN-7fVbYd2GqehrTJ9TZKRM8QLNjBfNvpuWEO11lPPgYxj_zz9t4IGkBuBgr4Op_dFEVreMyEYcxsb2JqHHuDWIGE0XrpSQ2AxWaxSDBhTIidKKArdXcZU7Wqy2sIue7_0bA5w2rbyiJ5Xgnfeg5oe-HHi4zI2L1aL3d_b3gTqoZUv8X4AlBNxIpzQS2aOg1oo31xAf2PKlAKNmwoftvvAuN90TVPum9aEM7UMyw0mFvWNiWUzY4eROyYhg84WdfTFdwaoGRs0EBcXlmR4DB8QNqDm_KmlQccCQAzS4hnz2jGF6spUcto7J0aAThvOBBkhg7ErvkEngpVpfTREVX2O8hlVeBeu2yNsa2IOASz2Q_N0sWa3ACnz3q1v5QE02XJeBNbtq0eZoTlyaEOrhdxC6RN_kHJAmUt54g20i6Wyul6dfmPJDYepakxWswtwydPMZbuJvIYdyuVqqSmWAX1ptg3uTX3RwsSFSTFu-qoC1Yl6naFXlqnzMISMpaeOmMCWscbw-5yqiPKmwWxxNdeh9MpiOW_yPtsJF44UdN2i3kPU3jghLmT1HNR3OhbthSyC8tw3Te9LjLBcrcz1i5Rqi67F1nH9ipB0SXxaWc65BeJWnBaQdv_HpwGnMhnBeC6DDH6qSZOGCaTLORlI5NN0dlpWvhZKILy5zzPZwGgHZbe1Ihame3W-lAwHlC3U-row56RaW4dSvD-r_ZHHIbMECaR2UnlCfzziIaRkG6pnM-aj0Mrm6Qfsf0srMd1Qy2qSMMNuGxmncDT55cmTjIh8_O5PVWtXepzAphdIyFY5KrWMMh8CwKnSMbQ6TS_82ZT5sNqOv_nFUtTFKHRuuQw4dbQFjlehHTyVSgqZdX4htHpotL4QO95A0GADGFRxYf8tfuZ7WZ38Vvc5u_KrAr4ViS1dEDiOMiOGEB0rJk_DWhYWzIcWJqd_eHhJv0rNtjozVYqmlLxMCqzCQiGEDC_GMtbaTb6DEIZ6SyZDxZXRV1pI0khj5Z4nVsVJ9A5Bp4SL0Dqb-LRolKvQXm3NEEqVlUmuQaFBFi5z1p3if1VSlNvSVckEX4F1dE6xwWW-GIMGbrQVm7yTv8cN6SCcMqXM__XTKDNBczTobEwlYl4Kc53qRksxfjIrUdSLCKkS0kQHUM2LPBacY5Gd4jDSjjcoE0iUUSpb-wSRpE1IL_RTA2C1UK4moYtydAhlHvgOf5YBwoBggSNbzZWlFLbo9UfE3R-SpubpOrEVJGxMj_dZAc-MK5bYTrkQe3_hQThuOl86tlTGkd6EUVslFHkNvwbTosssqaRihKOBLgGsJHz-LNXGW_SyVq6?></g></svg>