<svg xmlns="http://www.w3.org/2000/svg" xmlns:xlink="http://www.w3.org/1999/xlink" contentStyleType="text/css" data-diagram-type="CLASS" height="1155px" preserveAspectRatio="none" style="width:4036px;height:1155px;background:#FFFFFF;" version="1.1" viewBox="0 0 4036 1155" width="4036.6667px" zoomAndPan="magnify"><?plantuml 1.2026.3?><defs/><g><!--class Partij--><g class="entity" data-qualified-name="Partij" data-source-line="51" id="ent0002"><rect fill="#F3E5F5" height="59.2391" rx="4.375" ry="4.375" style="stroke:#6A1B9A;stroke-width:0.7292;" width="103.3366" x="965.2792" y="17.5"/><text fill="#000000" font-family="sans-serif" font-size="17.5" font-style="italic" lengthAdjust="spacing" textLength="100.4199" x="966.7376" y="41.7106">&#171;algemeen&#187;</text><text fill="#000000" font-family="sans-serif" font-size="20.4167" font-style="italic" lengthAdjust="spacing" textLength="50.6628" x="991.6161" y="65.1408">Partij</text></g><!--class NatuurlijkPersoon--><g class="entity" data-qualified-name="NatuurlijkPersoon" data-source-line="52" id="ent0003"><rect fill="#E8F0FE" height="59.2391" rx="4.375" ry="4.375" style="stroke:#1967D2;stroke-width:0.7292;" width="185.5615" x="906.944" y="135.0724"/><text fill="#000000" font-family="sans-serif" font-size="17.5" font-style="italic" lengthAdjust="spacing" textLength="97.4036" x="951.023" y="159.283">&#171;personen&#187;</text><text fill="#000000" font-family="sans-serif" font-size="20.4167" lengthAdjust="spacing" textLength="176.8115" x="911.319" y="182.7132">NatuurlijkPersoon</text></g><!--class NietNatuurlijkPersoon--><g class="entity" data-qualified-name="NietNatuurlijkPersoon" data-source-line="53" id="ent0004"><rect fill="#E8F0FE" height="59.2391" rx="4.375" ry="4.375" style="stroke:#1967D2;stroke-width:0.7292;" width="225.5575" x="2102.7892" y="135.0724"/><text fill="#000000" font-family="sans-serif" font-size="17.5" font-style="italic" lengthAdjust="spacing" textLength="97.4036" x="2166.8661" y="159.283">&#171;personen&#187;</text><text fill="#000000" font-family="sans-serif" font-size="20.4167" lengthAdjust="spacing" textLength="216.8075" x="2107.1642" y="182.7132">NietNatuurlijkPersoon</text></g><!--class Onderneming--><g class="entity" data-qualified-name="Onderneming" data-source-line="54" id="ent0005"><rect fill="#FFF4E5" height="59.2391" rx="4.375" ry="4.375" style="stroke:#E67E22;stroke-width:0.7292;" width="239.799" x="3628.0623" y="360.4618"/><text fill="#000000" font-family="sans-serif" font-size="17.5" font-style="italic" lengthAdjust="spacing" textLength="236.8823" x="3629.5206" y="384.6724">&#171;bedrijven-en-instellingen&#187;</text><text fill="#000000" font-family="sans-serif" font-size="20.4167" lengthAdjust="spacing" textLength="135.5196" x="3680.202" y="408.1026">Onderneming</text></g><!--class KadastraalOnroerendeZaak--><g class="entity" data-qualified-name="KadastraalOnroerendeZaak" data-source-line="55" id="ent0006"><rect fill="#FDE8D6" height="59.2391" rx="4.375" ry="4.375" style="stroke:#A04000;stroke-width:0.7292;" width="276.5792" x="75.8025" y="360.4618"/><text fill="#000000" font-family="sans-serif" font-size="17.5" font-style="italic" lengthAdjust="spacing" textLength="176.803" x="125.6906" y="384.6724">&#171;onroerende-zaken&#187;</text><text fill="#000000" font-family="sans-serif" font-size="20.4167" lengthAdjust="spacing" textLength="267.8292" x="80.1775" y="408.1026">KadastraalOnroerendeZaak</text></g><!--class FinancieleVerplichting--><g class="entity" data-qualified-name="FinancieleVerplichting" data-source-line="57" id="ent0007"><rect fill="#E1F0FA" height="59.2391" rx="4.375" ry="4.375" style="stroke:#1E6091;stroke-width:0.7292;" width="227.0229" x="1772.8273" y="135.0724"/><text fill="#000000" font-family="sans-serif" font-size="17.5" font-style="italic" lengthAdjust="spacing" textLength="77.8442" x="1847.4166" y="159.283">&#171;krediet&#187;</text><text fill="#000000" font-family="sans-serif" font-size="20.4167" font-style="italic" lengthAdjust="spacing" textLength="218.2729" x="1777.2023" y="182.7132">FinancieleVerplichting</text></g><!--class KredietOvereenkomst--><g class="entity" data-qualified-name="KredietOvereenkomst" data-source-line="58" id="ent0008"><rect fill="#E1F0FA" height="59.2391" rx="4.375" ry="4.375" style="stroke:#1E6091;stroke-width:0.7292;" width="222.7262" x="1772.4034" y="360.4618"/><text fill="#000000" font-family="sans-serif" font-size="17.5" font-style="italic" lengthAdjust="spacing" textLength="77.8442" x="1844.8444" y="384.6724">&#171;krediet&#187;</text><text fill="#000000" font-family="sans-serif" font-size="20.4167" font-style="italic" lengthAdjust="spacing" textLength="213.9762" x="1776.7784" y="408.1026">KredietOvereenkomst</text></g><!--class KredietFeit--><g class="entity" data-qualified-name="KredietFeit" data-source-line="59" id="ent0009"><rect fill="#CDE8D6" height="59.2391" rx="4.375" ry="4.375" style="stroke:#2C7A3F;stroke-width:0.7292;" width="118.6747" x="3897.0279" y="360.4618"/><text fill="#000000" font-family="sans-serif" font-size="17.5" font-style="italic" lengthAdjust="spacing" textLength="115.7581" x="3898.4863" y="384.6724">&#171;krediet-feit&#187;</text><text fill="#000000" font-family="sans-serif" font-size="20.4167" font-style="italic" lengthAdjust="spacing" textLength="106.6791" x="3903.0258" y="408.1026">KredietFeit</text></g><!--class AflopendKrediet--><g class="entity" data-qualified-name="AflopendKrediet" data-source-line="62" id="ent0010"><rect fill="#E1F0FA" height="59.2391" rx="4.375" ry="4.375" style="stroke:#1E6091;stroke-width:0.7292;" width="169.3518" x="1461.109" y="687.9346"/><text fill="#000000" font-family="sans-serif" font-size="17.5" font-style="italic" lengthAdjust="spacing" textLength="77.8442" x="1506.8628" y="712.1452">&#171;krediet&#187;</text><text fill="#000000" font-family="sans-serif" font-size="20.4167" lengthAdjust="spacing" textLength="160.6018" x="1465.484" y="735.5754">AflopendKrediet</text></g><!--class DoorlopendKrediet--><g class="entity" data-qualified-name="DoorlopendKrediet" data-source-line="63" id="ent0011"><rect fill="#E1F0FA" height="59.2391" rx="4.375" ry="4.375" style="stroke:#1E6091;stroke-width:0.7292;" width="196.4876" x="2714.3165" y="687.9346"/><text fill="#000000" font-family="sans-serif" font-size="17.5" font-style="italic" lengthAdjust="spacing" textLength="77.8442" x="2773.6382" y="712.1452">&#171;krediet&#187;</text><text fill="#000000" font-family="sans-serif" font-size="20.4167" lengthAdjust="spacing" textLength="187.7376" x="2718.6915" y="735.5754">DoorlopendKrediet</text></g><!--class Saneringskrediet--><g class="entity" data-qualified-name="Saneringskrediet" data-source-line="64" id="ent0012"><rect fill="#E1F0FA" height="59.2391" rx="4.375" ry="4.375" style="stroke:#1E6091;stroke-width:0.7292;" width="174.5557" x="1659.6275" y="687.9346"/><text fill="#000000" font-family="sans-serif" font-size="17.5" font-style="italic" lengthAdjust="spacing" textLength="77.8442" x="1707.9832" y="712.1452">&#171;krediet&#187;</text><text fill="#000000" font-family="sans-serif" font-size="20.4167" lengthAdjust="spacing" textLength="165.8057" x="1664.0025" y="735.5754">Saneringskrediet</text></g><!--class KortKrediet--><g class="entity" data-qualified-name="KortKrediet" data-source-line="65" id="ent0013"><rect fill="#E1F0FA" height="59.2391" rx="4.375" ry="4.375" style="stroke:#1E6091;stroke-width:0.7292;" width="121.4305" x="2563.7194" y="687.9346"/><text fill="#000000" font-family="sans-serif" font-size="17.5" font-style="italic" lengthAdjust="spacing" textLength="77.8442" x="2585.5125" y="712.1452">&#171;krediet&#187;</text><text fill="#000000" font-family="sans-serif" font-size="20.4167" lengthAdjust="spacing" textLength="112.6805" x="2568.0944" y="735.5754">KortKrediet</text></g><!--class HypothecairKredietEigenWoning--><g class="entity" data-qualified-name="HypothecairKredietEigenWoning" data-source-line="69" id="ent0014"><rect fill="#E1F0FA" height="59.2391" rx="4.375" ry="4.375" style="stroke:#1E6091;stroke-width:0.7292;" width="326.0258" x="685.317" y="697.8313"/><text fill="#000000" font-family="sans-serif" font-size="17.5" font-style="italic" lengthAdjust="spacing" textLength="77.8442" x="809.4078" y="722.0419">&#171;krediet&#187;</text><text fill="#000000" font-family="sans-serif" font-size="20.4167" lengthAdjust="spacing" textLength="317.2758" x="689.692" y="745.4721">HypothecairKredietEigenWoning</text></g><!--class HypothecairKredietOverigeOnroerendeZaken--><g class="entity" data-qualified-name="HypothecairKredietOverigeOnroerendeZaken" data-source-line="70" id="ent0015"><rect fill="#E1F0FA" height="59.2391" rx="4.375" ry="4.375" style="stroke:#1E6091;stroke-width:0.7292;" width="451.4866" x="17.5" y="687.9346"/><text fill="#000000" font-family="sans-serif" font-size="17.5" font-style="italic" lengthAdjust="spacing" textLength="77.8442" x="204.3212" y="712.1452">&#171;krediet&#187;</text><text fill="#000000" font-family="sans-serif" font-size="20.4167" lengthAdjust="spacing" textLength="442.7366" x="21.875" y="735.5754">HypothecairKredietOverigeOnroerendeZaken</text></g><!--class RestschuldHypothecairKredietZonderNHG--><g class="entity" data-qualified-name="RestschuldHypothecairKredietZonderNHG" data-source-line="71" id="ent0016"><rect fill="#E1F0FA" height="59.2391" rx="4.375" ry="4.375" style="stroke:#1E6091;stroke-width:0.7292;" width="420.5625" x="708.1424" y="915.2352"/><text fill="#000000" font-family="sans-serif" font-size="17.5" font-style="italic" lengthAdjust="spacing" textLength="77.8442" x="879.5015" y="939.4458">&#171;krediet&#187;</text><text fill="#000000" font-family="sans-serif" font-size="20.4167" lengthAdjust="spacing" textLength="411.8125" x="712.5174" y="962.876">RestschuldHypothecairKredietZonderNHG</text></g><!--class RestschuldHypothecairKredietMetNHG--><g class="entity" data-qualified-name="RestschuldHypothecairKredietMetNHG" data-source-line="72" id="ent0017"><rect fill="#E1F0FA" height="59.2391" rx="4.375" ry="4.375" style="stroke:#1E6091;stroke-width:0.7292;" width="387.0266" x="1157.8716" y="915.2352"/><text fill="#000000" font-family="sans-serif" font-size="17.5" font-style="italic" lengthAdjust="spacing" textLength="77.8442" x="1312.4627" y="939.4458">&#171;krediet&#187;</text><text fill="#000000" font-family="sans-serif" font-size="20.4167" lengthAdjust="spacing" textLength="378.2766" x="1162.2466" y="962.876">RestschuldHypothecairKredietMetNHG</text></g><!--class OperationalAutolease--><g class="entity" data-qualified-name="OperationalAutolease" data-source-line="76" id="ent0018"><rect fill="#E1F0FA" height="59.2391" rx="4.375" ry="4.375" style="stroke:#1E6091;stroke-width:0.7292;" width="221.6595" x="2312.8932" y="687.9346"/><text fill="#000000" font-family="sans-serif" font-size="17.5" font-style="italic" lengthAdjust="spacing" textLength="77.8442" x="2384.8008" y="712.1452">&#171;krediet&#187;</text><text fill="#000000" font-family="sans-serif" font-size="20.4167" lengthAdjust="spacing" textLength="212.9095" x="2317.2682" y="735.5754">OperationalAutolease</text></g><!--class OverigeFinancieleVerplichtingPrive--><g class="entity" data-qualified-name="OverigeFinancieleVerplichtingPrive" data-source-line="77" id="ent0019"><rect fill="#E1F0FA" height="59.2391" rx="4.375" ry="4.375" style="stroke:#1E6091;stroke-width:0.7292;" width="350.6694" x="2939.9708" y="687.9346"/><text fill="#000000" font-family="sans-serif" font-size="17.5" font-style="italic" lengthAdjust="spacing" textLength="77.8442" x="3076.3834" y="712.1452">&#171;krediet&#187;</text><text fill="#000000" font-family="sans-serif" font-size="20.4167" lengthAdjust="spacing" textLength="341.9194" x="2944.3458" y="735.5754">OverigeFinancieleVerplichtingPrive</text></g><!--class ZakelijkKrediet--><g class="entity" data-qualified-name="ZakelijkKrediet" data-source-line="78" id="ent0020"><rect fill="#E1F0FA" height="59.2391" rx="4.375" ry="4.375" style="stroke:#1E6091;stroke-width:0.7292;" width="156.4419" x="3319.8068" y="687.9346"/><text fill="#000000" font-family="sans-serif" font-size="17.5" font-style="italic" lengthAdjust="spacing" textLength="77.8442" x="3359.1056" y="712.1452">&#171;krediet&#187;</text><text fill="#000000" font-family="sans-serif" font-size="20.4167" lengthAdjust="spacing" textLength="147.6919" x="3324.1818" y="735.5754">ZakelijkKrediet</text></g><!--class ZakelijkeOverigeFinancieleVerplichting--><g class="entity" data-qualified-name="ZakelijkeOverigeFinancieleVerplichting" data-source-line="79" id="ent0021"><rect fill="#E1F0FA" height="59.2391" rx="4.375" ry="4.375" style="stroke:#1E6091;stroke-width:0.7292;" width="391.4329" x="1040.5094" y="687.9346"/><text fill="#000000" font-family="sans-serif" font-size="17.5" font-style="italic" lengthAdjust="spacing" textLength="77.8442" x="1197.3038" y="712.1452">&#171;krediet&#187;</text><text fill="#000000" font-family="sans-serif" font-size="20.4167" lengthAdjust="spacing" textLength="382.6829" x="1044.8844" y="735.5754">ZakelijkeOverigeFinancieleVerplichting</text></g><!--class AchterstandRegistratie--><g class="entity" data-qualified-name="AchterstandRegistratie" data-source-line="83" id="ent0022"><rect fill="#CDE8D6" height="59.2391" rx="4.375" ry="4.375" style="stroke:#2C7A3F;stroke-width:0.7292;" width="233.6723" x="3505.4153" y="696.1818"/><text fill="#000000" font-family="sans-serif" font-size="17.5" font-style="italic" lengthAdjust="spacing" textLength="115.7581" x="3564.3725" y="720.3925">&#171;krediet-feit&#187;</text><text fill="#000000" font-family="sans-serif" font-size="20.4167" lengthAdjust="spacing" textLength="224.9223" x="3509.7903" y="743.8226">AchterstandRegistratie</text></g><!--class HerstelMelding--><g class="entity" data-qualified-name="HerstelMelding" data-source-line="84" id="ent0023"><rect fill="#CDE8D6" height="59.2391" rx="4.375" ry="4.375" style="stroke:#2C7A3F;stroke-width:0.7292;" width="157.8176" x="3530.7002" y="915.2352"/><text fill="#000000" font-family="sans-serif" font-size="17.5" font-style="italic" lengthAdjust="spacing" textLength="115.7581" x="3551.73" y="939.4458">&#171;krediet-feit&#187;</text><text fill="#000000" font-family="sans-serif" font-size="20.4167" lengthAdjust="spacing" textLength="149.0676" x="3535.0752" y="962.876">HerstelMelding</text></g><!--class BijzonderheidsCodering--><g class="entity" data-qualified-name="BijzonderheidsCodering" data-source-line="85" id="ent0024"><rect fill="#CDE8D6" height="59.2391" rx="4.375" ry="4.375" style="stroke:#2C7A3F;stroke-width:0.7292;" width="245.8545" x="3717.6845" y="915.2352"/><text fill="#000000" font-family="sans-serif" font-size="17.5" font-style="italic" lengthAdjust="spacing" textLength="115.7581" x="3782.7327" y="939.4458">&#171;krediet-feit&#187;</text><text fill="#000000" font-family="sans-serif" font-size="20.4167" lengthAdjust="spacing" textLength="237.1045" x="3722.0595" y="962.876">BijzonderheidsCodering</text></g><!--class SchuldhulpverleningTraject--><g class="entity" data-qualified-name="SchuldhulpverleningTraject" data-source-line="88" id="ent0025"><rect fill="#E1F0FA" height="59.2391" rx="4.375" ry="4.375" style="stroke:#1E6091;stroke-width:0.7292;" width="278.1543" x="930.1862" y="360.4618"/><text fill="#000000" font-family="sans-serif" font-size="17.5" font-style="italic" lengthAdjust="spacing" textLength="77.8442" x="1030.3412" y="384.6724">&#171;krediet&#187;</text><text fill="#000000" font-family="sans-serif" font-size="20.4167" lengthAdjust="spacing" textLength="269.4043" x="934.5612" y="408.1026">SchuldhulpverleningTraject</text></g><!--class BorgstellingRol--><g class="entity" data-qualified-name="BorgstellingRol" data-source-line="89" id="ent0026"><rect fill="#F1E0E0" height="59.2391" rx="4.375" ry="4.375" style="stroke:#8B3A3A;stroke-width:0.7292;" width="157.997" x="498.1533" y="687.9346"/><text fill="#000000" font-family="sans-serif" font-size="17.5" font-style="italic" lengthAdjust="spacing" textLength="110.9387" x="521.6824" y="712.1452">&#171;krediet-rol&#187;</text><text fill="#000000" font-family="sans-serif" font-size="20.4167" lengthAdjust="spacing" textLength="149.247" x="502.5283" y="735.5754">BorgstellingRol</text></g><g class="entity" data-qualified-name="GMN61" data-source-line="129" id="ent0062"><path d="M1918.7665,667.065 L1918.7665,784.5378 A4.375,4.375 0 0 0 1923.1415,788.9128 L2279.3515,788.9128 A4.375,4.375 0 0 0 2283.7265,784.5378 L2283.7265,677.2734 L2269.1432,662.69 L1923.1415,662.69 A4.375,4.375 0 0 0 1918.7665,667.065" fill="#FFFCD8" style="stroke:#181818;stroke-width:0.7292;"/><path d="M2269.1432,662.69 L2269.1432,675.0859 A2.1875,2.1875 0 0 0 2271.3307,677.2734 L2283.7265,677.2734 L2269.1432,662.69" fill="#FFFCD8" style="stroke:#181818;stroke-width:1.4583;"/><text fill="#000000" font-family="sans-serif" font-size="18.9583" lengthAdjust="spacing" textLength="264.2225" x="1927.5165" y="688.3105">Wat in CKI wordt vastgelegd.</text><text fill="#000000" font-family="sans-serif" font-size="18.9583" lengthAdjust="spacing" textLength="221.0201" x="1927.5165" y="710.6384">Niet-CKI-verplichtingen</text><text fill="#000000" font-family="sans-serif" font-size="18.9583" lengthAdjust="spacing" textLength="334.335" x="1927.5165" y="732.9663">(BNPL, huurschuld, energierekening,</text><text fill="#000000" font-family="sans-serif" font-size="18.9583" lengthAdjust="spacing" textLength="305.4162" x="1927.5165" y="755.2942">belastingschuld) vallen buiten dit</text><text fill="#000000" font-family="sans-serif" font-size="18.9583" lengthAdjust="spacing" textLength="102.1973" x="1927.5165" y="777.6221">objecttype.</text></g><g class="entity" data-qualified-name="GMN64" data-source-line="137" id="ent0065"><path d="M309.2761,894.3656 L309.2761,989.5105 A4.375,4.375 0 0 0 313.6511,993.8855 L674.6007,993.8855 A4.375,4.375 0 0 0 678.9757,989.5105 L678.9757,904.574 L664.3924,889.9906 L313.6511,889.9906 A4.375,4.375 0 0 0 309.2761,894.3656" fill="#FFFCD8" style="stroke:#181818;stroke-width:0.7292;"/><path d="M664.3924,889.9906 L664.3924,902.3865 A2.1875,2.1875 0 0 0 666.5799,904.574 L678.9757,904.574 L664.3924,889.9906" fill="#FFFCD8" style="stroke:#181818;stroke-width:1.4583;"/><text fill="#000000" font-family="sans-serif" font-size="18.9583" lengthAdjust="spacing" textLength="339.0746" x="318.0261" y="915.6112">Alleen negatieve betalingservaringen</text><text fill="#000000" font-family="sans-serif" font-size="18.9583" lengthAdjust="spacing" textLength="296.2702" x="318.0261" y="937.939">worden in CKI gemeld; reguliere</text><text fill="#000000" font-family="sans-serif" font-size="18.9583" lengthAdjust="spacing" textLength="277.5433" x="318.0261" y="960.2669">registratie van het krediet zelf</text><text fill="#000000" font-family="sans-serif" font-size="18.9583" lengthAdjust="spacing" textLength="95.4859" x="318.0261" y="982.5948">ontbreekt.</text></g><g class="entity" data-qualified-name="GMN67" data-source-line="144" id="ent0068"><path d="M3672.6467,1056.5938 L3672.6467,1129.4108 A4.375,4.375 0 0 0 3677.0217,1133.7858 L4004.2018,1133.7858 A4.375,4.375 0 0 0 4008.5768,1129.4108 L4008.5768,1066.8022 L3993.9934,1052.2188 L3677.0217,1052.2188 A4.375,4.375 0 0 0 3672.6467,1056.5938" fill="#FFFCD8" style="stroke:#181818;stroke-width:0.7292;"/><path d="M3993.9934,1052.2188 L3993.9934,1064.6147 A2.1875,2.1875 0 0 0 3996.1809,1066.8022 L4008.5768,1066.8022 L3993.9934,1052.2188" fill="#FFFCD8" style="stroke:#181818;stroke-width:1.4583;"/><text fill="#000000" font-family="sans-serif" font-size="18.9583" lengthAdjust="spacing" textLength="216.8174" x="3681.3967" y="1077.8394">Codes 1 t/m 5 conform</text><text fill="#000000" font-family="sans-serif" font-size="18.9583" lengthAdjust="spacing" textLength="305.3051" x="3681.3967" y="1100.1672">art. 13 Algemeen Reglement CKI.</text><text fill="#000000" font-family="sans-serif" font-size="18.9583" lengthAdjust="spacing" textLength="267.9253" x="3681.3967" y="1122.4951">Combinaties zijn toegestaan.</text></g><line style="stroke:#444444;stroke-width:1.4583;" x1="999.7248" x2="999.7248" y1="76.7391" y2="135.0724"/><polygon fill="#FFFFFF" points="999.7248,76.7391,989.5164,104.4474,1009.9331,104.4474,999.7248,76.7391" style="stroke:#444444;stroke-width:1.4583;"/><line style="stroke:#444444;stroke-width:1.4583;" x1="1034.1703" x2="1034.1703" y1="76.7391" y2="91.3224"/><line style="stroke:#444444;stroke-width:1.4583;" x1="1034.1703" x2="2215.5679" y1="91.3224" y2="91.3224"/><line style="stroke:#444444;stroke-width:1.4583;" x1="2215.5679" x2="2215.5679" y1="91.3224" y2="135.0724"/><polygon fill="#FFFFFF" points="1034.1703,76.7391,1023.962,104.4474,1044.3786,104.4474,1034.1703,76.7391" style="stroke:#444444;stroke-width:1.4583;"/><line style="stroke:#444444;stroke-width:1.4583;" x1="2271.9573" x2="2271.9573" y1="194.3115" y2="234.1394"/><line style="stroke:#444444;stroke-width:1.4583;" x1="2271.9573" x2="3747.9618" y1="234.1394" y2="234.1394"/><line style="stroke:#444444;stroke-width:1.4583;" x1="3747.9618" x2="3747.9618" y1="234.1394" y2="360.4618"/><polygon fill="#FFFFFF" points="2271.9573,194.3115,2261.749,222.0199,2282.1656,222.0199,2271.9573,194.3115" style="stroke:#444444;stroke-width:1.4583;"/><line style="stroke:#444444;stroke-width:1.4583;" x1="1924.1759" x2="1924.1759" y1="194.3115" y2="234.1394"/><line style="stroke:#444444;stroke-width:1.4583;" x1="1924.1759" x2="1883.7665" y1="234.1394" y2="234.1394"/><line style="stroke:#444444;stroke-width:1.4583;" x1="1883.7665" x2="1883.7665" y1="234.1394" y2="360.4618"/><polygon fill="#FFFFFF" points="1924.1759,194.3115,1913.9676,222.0199,1934.3842,222.0199,1924.1759,194.3115" style="stroke:#444444;stroke-width:1.4583;"/><line style="stroke:#444444;stroke-width:1.4583;" x1="1848.5016" x2="1848.5016" y1="194.3115" y2="291.4673"/><line style="stroke:#444444;stroke-width:1.4583;" x1="1848.5016" x2="1069.2633" y1="291.4673" y2="291.4673"/><line style="stroke:#444444;stroke-width:1.4583;" x1="1069.2633" x2="1069.2633" y1="291.4673" y2="360.4618"/><polygon fill="#FFFFFF" points="1848.5016,194.3115,1838.2933,222.0199,1858.7099,222.0199,1848.5016,194.3115" style="stroke:#444444;stroke-width:1.4583;"/><line style="stroke:#444444;stroke-width:1.4583;" x1="1842.0053" x2="1842.0053" y1="419.7009" y2="517.8621"/><line style="stroke:#444444;stroke-width:1.4583;" x1="1842.0053" x2="1545.7849" y1="517.8621" y2="517.8621"/><line style="stroke:#444444;stroke-width:1.4583;" x1="1545.7849" x2="1545.7849" y1="517.8621" y2="687.9346"/><polygon fill="#FFFFFF" points="1842.0053,419.7009,1831.797,447.4093,1852.2136,447.4093,1842.0053,419.7009" style="stroke:#444444;stroke-width:1.4583;"/><line style="stroke:#444444;stroke-width:1.4583;" x1="1939.448" x2="1939.448" y1="419.7009" y2="503.2788"/><line style="stroke:#444444;stroke-width:1.4583;" x1="1939.448" x2="2812.5603" y1="503.2788" y2="503.2788"/><line style="stroke:#444444;stroke-width:1.4583;" x1="2812.5603" x2="2812.5603" y1="503.2788" y2="687.9346"/><polygon fill="#FFFFFF" points="1939.448,419.7009,1929.2397,447.4093,1949.6564,447.4093,1939.448,419.7009" style="stroke:#444444;stroke-width:1.4583;"/><line style="stroke:#444444;stroke-width:1.4583;" x1="1855.9257" x2="1855.9257" y1="419.7009" y2="532.4455"/><line style="stroke:#444444;stroke-width:1.4583;" x1="1855.9257" x2="1746.9053" y1="532.4455" y2="532.4455"/><line style="stroke:#444444;stroke-width:1.4583;" x1="1746.9053" x2="1746.9053" y1="532.4455" y2="687.9346"/><polygon fill="#FFFFFF" points="1855.9257,419.7009,1845.7174,447.4093,1866.134,447.4093,1855.9257,419.7009" style="stroke:#444444;stroke-width:1.4583;"/><line style="stroke:#444444;stroke-width:1.4583;" x1="1925.5276" x2="1925.5276" y1="419.7009" y2="517.8621"/><line style="stroke:#444444;stroke-width:1.4583;" x1="1925.5276" x2="2624.4346" y1="517.8621" y2="517.8621"/><line style="stroke:#444444;stroke-width:1.4583;" x1="2624.4346" x2="2624.4346" y1="517.8621" y2="687.9346"/><polygon fill="#FFFFFF" points="1925.5276,419.7009,1915.3193,447.4093,1935.736,447.4093,1925.5276,419.7009" style="stroke:#444444;stroke-width:1.4583;"/><line style="stroke:#444444;stroke-width:1.4583;" x1="1814.1645" x2="1814.1645" y1="419.7009" y2="488.6955"/><line style="stroke:#444444;stroke-width:1.4583;" x1="1814.1645" x2="949.0804" y1="488.6955" y2="488.6955"/><line style="stroke:#444444;stroke-width:1.4583;" x1="949.0804" x2="949.0804" y1="488.6955" y2="648.1067"/><line style="stroke:#444444;stroke-width:1.4583;" x1="949.0804" x2="902.6675" y1="648.1067" y2="648.1067"/><line style="stroke:#444444;stroke-width:1.4583;" x1="902.6675" x2="902.6675" y1="648.1067" y2="697.8313"/><polygon fill="#FFFFFF" points="1814.1645,419.7009,1803.9562,447.4093,1824.3729,447.4093,1814.1645,419.7009" style="stroke:#444444;stroke-width:1.4583;"/><line style="stroke:#444444;stroke-width:1.4583;" x1="1786.3238" x2="1786.3238" y1="419.7009" y2="459.5288"/><line style="stroke:#444444;stroke-width:1.4583;" x1="1786.3238" x2="863.0117" y1="459.5288" y2="459.5288"/><line style="stroke:#444444;stroke-width:1.4583;" x1="863.0117" x2="863.0117" y1="459.5288" y2="618.94"/><line style="stroke:#444444;stroke-width:1.4583;" x1="863.0117" x2="318.4911" y1="618.94" y2="618.94"/><line style="stroke:#444444;stroke-width:1.4583;" x1="318.4911" x2="318.4911" y1="618.94" y2="687.9346"/><polygon fill="#FFFFFF" points="1786.3238,419.7009,1776.1154,447.4093,1796.5321,447.4093,1786.3238,419.7009" style="stroke:#444444;stroke-width:1.4583;"/><line style="stroke:#444444;stroke-width:1.4583;" x1="1869.8461" x2="1869.8461" y1="419.7009" y2="459.5288"/><line style="stroke:#444444;stroke-width:1.4583;" x1="1869.8461" x2="1867.7248" y1="459.5288" y2="459.5288"/><line style="stroke:#444444;stroke-width:1.4583;" x1="1867.7248" x2="1867.7248" y1="459.5288" y2="860.824"/><line style="stroke:#444444;stroke-width:1.4583;" x1="1867.7248" x2="988.5174" y1="860.824" y2="860.824"/><line style="stroke:#444444;stroke-width:1.4583;" x1="988.5174" x2="988.5174" y1="860.824" y2="915.2352"/><polygon fill="#FFFFFF" points="1869.8461,419.7009,1859.6378,447.4093,1880.0544,447.4093,1869.8461,419.7009" style="stroke:#444444;stroke-width:1.4583;"/><line style="stroke:#444444;stroke-width:1.4583;" x1="1883.7665" x2="1883.7665" y1="419.7009" y2="875.4073"/><line style="stroke:#444444;stroke-width:1.4583;" x1="1883.7665" x2="1415.8893" y1="875.4073" y2="875.4073"/><line style="stroke:#444444;stroke-width:1.4583;" x1="1415.8893" x2="1415.8893" y1="875.4073" y2="915.2352"/><polygon fill="#FFFFFF" points="1883.7665,419.7009,1873.5581,447.4093,1893.9748,447.4093,1883.7665,419.7009" style="stroke:#444444;stroke-width:1.4583;"/><line style="stroke:#444444;stroke-width:1.4583;" x1="1911.6073" x2="1911.6073" y1="419.7009" y2="532.4455"/><line style="stroke:#444444;stroke-width:1.4583;" x1="1911.6073" x2="2423.7229" y1="532.4455" y2="532.4455"/><line style="stroke:#444444;stroke-width:1.4583;" x1="2423.7229" x2="2423.7229" y1="532.4455" y2="687.9346"/><polygon fill="#FFFFFF" points="1911.6073,419.7009,1901.3989,447.4093,1921.8156,447.4093,1911.6073,419.7009" style="stroke:#444444;stroke-width:1.4583;"/><line style="stroke:#444444;stroke-width:1.4583;" x1="1953.3684" x2="1953.3684" y1="419.7009" y2="488.6955"/><line style="stroke:#444444;stroke-width:1.4583;" x1="1953.3684" x2="3115.3055" y1="488.6955" y2="488.6955"/><line style="stroke:#444444;stroke-width:1.4583;" x1="3115.3055" x2="3115.3055" y1="488.6955" y2="687.9346"/><polygon fill="#FFFFFF" points="1953.3684,419.7009,1943.1601,447.4093,1963.5768,447.4093,1953.3684,419.7009" style="stroke:#444444;stroke-width:1.4583;"/><line style="stroke:#444444;stroke-width:1.4583;" x1="1967.2888" x2="1967.2888" y1="419.7009" y2="474.1121"/><line style="stroke:#444444;stroke-width:1.4583;" x1="1967.2888" x2="3371.9541" y1="474.1121" y2="474.1121"/><line style="stroke:#444444;stroke-width:1.4583;" x1="3371.9541" x2="3371.9541" y1="474.1121" y2="687.9346"/><polygon fill="#FFFFFF" points="1967.2888,419.7009,1957.0805,447.4093,1977.4972,447.4093,1967.2888,419.7009" style="stroke:#444444;stroke-width:1.4583;"/><line style="stroke:#444444;stroke-width:1.4583;" x1="1828.0849" x2="1828.0849" y1="419.7009" y2="503.2788"/><line style="stroke:#444444;stroke-width:1.4583;" x1="1828.0849" x2="1236.2259" y1="503.2788" y2="503.2788"/><line style="stroke:#444444;stroke-width:1.4583;" x1="1236.2259" x2="1236.2259" y1="503.2788" y2="687.9346"/><polygon fill="#FFFFFF" points="1828.0849,419.7009,1817.8766,447.4093,1838.2933,447.4093,1828.0849,419.7009" style="stroke:#444444;stroke-width:1.4583;"/><line style="stroke:#444444;stroke-width:1.4583;" x1="3956.3653" x2="3956.3653" y1="419.7009" y2="618.94"/><line style="stroke:#444444;stroke-width:1.4583;" x1="3956.3653" x2="3661.1969" y1="618.94" y2="618.94"/><line style="stroke:#444444;stroke-width:1.4583;" x1="3661.1969" x2="3661.1969" y1="618.94" y2="696.1818"/><polygon fill="#FFFFFF" points="3956.3653,419.7009,3946.157,447.4093,3966.5736,447.4093,3956.3653,419.7009" style="stroke:#444444;stroke-width:1.4583;"/><line style="stroke:#444444;stroke-width:1.4583;" x1="3926.6966" x2="3926.6966" y1="419.7009" y2="459.5288"/><line style="stroke:#444444;stroke-width:1.4583;" x1="3926.6966" x2="3815.6777" y1="459.5288" y2="459.5288"/><line style="stroke:#444444;stroke-width:1.4583;" x1="3815.6777" x2="3815.6777" y1="459.5288" y2="860.824"/><line style="stroke:#444444;stroke-width:1.4583;" x1="3815.6777" x2="3635.912" y1="860.824" y2="860.824"/><line style="stroke:#444444;stroke-width:1.4583;" x1="3635.912" x2="3635.912" y1="860.824" y2="915.2352"/><polygon fill="#FFFFFF" points="3926.6966,419.7009,3916.4883,447.4093,3936.9049,447.4093,3926.6966,419.7009" style="stroke:#444444;stroke-width:1.4583;"/><line style="stroke:#444444;stroke-width:1.4583;" x1="3986.034" x2="3986.034" y1="419.7009" y2="459.5288"/><line style="stroke:#444444;stroke-width:1.4583;" x1="3986.034" x2="3972.407" y1="459.5288" y2="459.5288"/><line style="stroke:#444444;stroke-width:1.4583;" x1="3972.407" x2="3972.407" y1="459.5288" y2="860.824"/><line style="stroke:#444444;stroke-width:1.4583;" x1="3972.407" x2="3881.5875" y1="860.824" y2="860.824"/><line style="stroke:#444444;stroke-width:1.4583;" x1="3881.5875" x2="3881.5875" y1="860.824" y2="915.2352"/><polygon fill="#FFFFFF" points="3986.034,419.7009,3975.8256,447.4093,3996.2423,447.4093,3986.034,419.7009" style="stroke:#444444;stroke-width:1.4583;"/><line style="stroke:#444444;stroke-width:1.4583;" x1="1046.1151" x2="1046.1151" y1="194.3115" y2="234.1394"/><line style="stroke:#444444;stroke-width:1.4583;" x1="1046.1151" x2="1828.0849" y1="234.1394" y2="234.1394"/><line style="stroke:#444444;stroke-width:1.4583;" x1="1828.0849" x2="1828.0849" y1="234.1394" y2="360.4618"/><polygon fill="#444444" points="1046.1151,194.3115,1040.2818,207.4365,1046.1151,201.6032,1051.9485,207.4365,1046.1151,194.3115" style="stroke:#444444;stroke-width:1.4583;"/><text fill="#333333" font-family="sans-serif" font-size="18.9583" lengthAdjust="spacing" textLength="144.8628" x="1677.3888" y="269.9683">aangegaanDoor</text><text fill="#333333" font-family="sans-serif" font-size="18.9583" lengthAdjust="spacing" textLength="11.9878" x="1050.4901" y="215.557">1</text><text fill="#333333" font-family="sans-serif" font-size="18.9583" lengthAdjust="spacing" textLength="33.1215" x="1832.4599" y="353.5461">0..*</text><line style="stroke:#444444;stroke-width:1.4583;" x1="2215.5679" x2="2215.5679" y1="194.3115" y2="320.634"/><line style="stroke:#444444;stroke-width:1.4583;" x1="2215.5679" x2="1939.448" y1="320.634" y2="320.634"/><line style="stroke:#444444;stroke-width:1.4583;" x1="1939.448" x2="1939.448" y1="320.634" y2="360.4618"/><polygon fill="#444444" points="2215.5679,194.3115,2209.7346,207.4365,2215.5679,201.6032,2221.4013,207.4365,2215.5679,194.3115" style="stroke:#444444;stroke-width:1.4583;"/><text fill="#333333" font-family="sans-serif" font-size="18.9583" lengthAdjust="spacing" textLength="126.6265" x="2083.1081" y="269.9683">verstrektDoor</text><text fill="#333333" font-family="sans-serif" font-size="18.9583" lengthAdjust="spacing" textLength="11.9878" x="2219.9429" y="215.557">1</text><text fill="#333333" font-family="sans-serif" font-size="18.9583" lengthAdjust="spacing" textLength="33.1215" x="1943.823" y="353.5461">0..*</text><line style="stroke:#444444;stroke-width:1.4583;" x1="260.1886" x2="260.1886" y1="419.7009" y2="459.5288"/><line style="stroke:#444444;stroke-width:1.4583;" x1="260.1886" x2="793.9922" y1="459.5288" y2="459.5288"/><line style="stroke:#444444;stroke-width:1.4583;" x1="793.9922" x2="793.9922" y1="459.5288" y2="697.8313"/><polygon fill="#444444" points="260.1886,419.7009,254.3553,432.8259,260.1886,426.9926,266.0219,432.8259,260.1886,419.7009" style="stroke:#444444;stroke-width:1.4583;"/><text fill="#333333" font-family="sans-serif" font-size="18.9583" lengthAdjust="spacing" textLength="115.407" x="672.7519" y="582.8577">gevestigdOp</text><text fill="#333333" font-family="sans-serif" font-size="18.9583" lengthAdjust="spacing" textLength="11.9878" x="264.5636" y="440.9465">1</text><text fill="#333333" font-family="sans-serif" font-size="18.9583" lengthAdjust="spacing" textLength="33.1215" x="798.3672" y="690.9156">0..*</text><line style="stroke:#444444;stroke-width:1.4583;" x1="167.9955" x2="167.9955" y1="419.7009" y2="687.9346"/><polygon fill="#444444" points="167.9955,419.7009,162.1622,432.8259,167.9955,426.9926,173.8289,432.8259,167.9955,419.7009" style="stroke:#444444;stroke-width:1.4583;"/><text fill="#333333" font-family="sans-serif" font-size="18.9583" lengthAdjust="spacing" textLength="115.407" x="46.7552" y="582.8577">gevestigdOp</text><text fill="#333333" font-family="sans-serif" font-size="18.9583" lengthAdjust="spacing" textLength="11.9878" x="172.3705" y="440.9465">1</text><text fill="#333333" font-family="sans-serif" font-size="18.9583" lengthAdjust="spacing" textLength="33.1215" x="172.3705" y="681.0189">0..*</text><line style="stroke:#444444;stroke-width:1.4583;" x1="848.3299" x2="848.3299" y1="757.0704" y2="915.2352"/><polygon fill="#444444" points="848.3299,757.0704,842.4965,770.1954,848.3299,764.3621,854.1632,770.1954,848.3299,757.0704" style="stroke:#444444;stroke-width:1.4583;"/><text fill="#333333" font-family="sans-serif" font-size="18.9583" lengthAdjust="spacing" textLength="158.7946" x="683.702" y="839.325">voortgekomenUit</text><text fill="#333333" font-family="sans-serif" font-size="18.9583" lengthAdjust="spacing" textLength="11.9878" x="852.7049" y="778.3159">1</text><text fill="#333333" font-family="sans-serif" font-size="18.9583" lengthAdjust="spacing" textLength="35.9727" x="852.7049" y="908.3195">0..1</text><line style="stroke:#444444;stroke-width:1.4583;" x1="929.8363" x2="929.8363" y1="757.0704" y2="803.4961"/><line style="stroke:#444444;stroke-width:1.4583;" x1="929.8363" x2="1286.8804" y1="803.4961" y2="803.4961"/><line style="stroke:#444444;stroke-width:1.4583;" x1="1286.8804" x2="1286.8804" y1="803.4961" y2="915.2352"/><polygon fill="#444444" points="929.8363,757.0704,924.003,770.1954,929.8363,764.3621,935.6697,770.1954,929.8363,757.0704" style="stroke:#444444;stroke-width:1.4583;"/><text fill="#333333" font-family="sans-serif" font-size="18.9583" lengthAdjust="spacing" textLength="158.7946" x="1122.2525" y="839.325">voortgekomenUit</text><text fill="#333333" font-family="sans-serif" font-size="18.9583" lengthAdjust="spacing" textLength="11.9878" x="934.2113" y="778.3159">1</text><text fill="#333333" font-family="sans-serif" font-size="18.9583" lengthAdjust="spacing" textLength="35.9727" x="1291.2554" y="908.3195">0..1</text><line style="stroke:#444444;stroke-width:1.4583;" x1="3747.9618" x2="3747.9618" y1="419.7009" y2="604.3567"/><line style="stroke:#444444;stroke-width:1.4583;" x1="3747.9618" x2="3424.1014" y1="604.3567" y2="604.3567"/><line style="stroke:#444444;stroke-width:1.4583;" x1="3424.1014" x2="3424.1014" y1="604.3567" y2="687.9346"/><polygon fill="#444444" points="3747.9618,419.7009,3742.1284,432.8259,3747.9618,426.9926,3753.7951,432.8259,3747.9618,419.7009" style="stroke:#444444;stroke-width:1.4583;"/><text fill="#333333" font-family="sans-serif" font-size="18.9583" lengthAdjust="spacing" textLength="139.864" x="3602.2644" y="582.8577">tenBehoeveVan</text><text fill="#333333" font-family="sans-serif" font-size="18.9583" lengthAdjust="spacing" textLength="11.9878" x="3752.3368" y="440.9465">1</text><text fill="#333333" font-family="sans-serif" font-size="18.9583" lengthAdjust="spacing" textLength="33.1215" x="3428.4764" y="681.0189">0..*</text><line style="stroke:#444444;stroke-width:1.4583;" x1="1981.2092" x2="1981.2092" y1="419.7009" y2="459.5288"/><line style="stroke:#444444;stroke-width:1.4583;" x1="1981.2092" x2="3583.3061" y1="459.5288" y2="459.5288"/><line style="stroke:#444444;stroke-width:1.4583;" x1="3583.3061" x2="3583.3061" y1="459.5288" y2="696.1818"/><polygon fill="#444444" points="3583.3061,696.1818,3589.1394,683.0568,3583.3061,688.8902,3577.4728,683.0568,3583.3061,696.1818" style="stroke:#444444;stroke-width:1.4583;"/><text fill="#333333" font-family="sans-serif" font-size="18.9583" lengthAdjust="spacing" textLength="40.4994" x="3536.9734" y="582.8577">kent</text><text fill="#333333" font-family="sans-serif" font-size="18.9583" lengthAdjust="spacing" textLength="11.9878" x="1985.5842" y="440.9465">1</text><text fill="#333333" font-family="sans-serif" font-size="18.9583" lengthAdjust="spacing" textLength="33.1215" x="3587.6811" y="689.2662">0..*</text><line style="stroke:#444444;stroke-width:1.4583;" x1="3583.3061" x2="3583.3061" y1="755.4209" y2="915.2352"/><polygon fill="#444444" points="3583.3061,915.2352,3589.1394,902.1102,3583.3061,907.9435,3577.4728,902.1102,3583.3061,915.2352" style="stroke:#444444;stroke-width:1.4583;"/><text fill="#333333" font-family="sans-serif" font-size="18.9583" lengthAdjust="spacing" textLength="125.0898" x="3452.3829" y="839.325">opgelostDoor</text><text fill="#333333" font-family="sans-serif" font-size="18.9583" lengthAdjust="spacing" textLength="11.9878" x="3587.6811" y="776.6665">1</text><text fill="#333333" font-family="sans-serif" font-size="18.9583" lengthAdjust="spacing" textLength="35.9727" x="3587.6811" y="908.3195">0..1</text><line style="stroke:#444444;stroke-width:1.4583;" x1="3661.1969" x2="3661.1969" y1="755.4209" y2="803.4961"/><line style="stroke:#444444;stroke-width:1.4583;" x1="3661.1969" x2="3799.636" y1="803.4961" y2="803.4961"/><line style="stroke:#444444;stroke-width:1.4583;" x1="3799.636" x2="3799.636" y1="803.4961" y2="915.2352"/><polygon fill="#444444" points="3799.636,915.2352,3805.4693,902.1102,3799.636,907.9435,3793.8027,902.1102,3799.636,915.2352" style="stroke:#444444;stroke-width:1.4583;"/><text fill="#333333" font-family="sans-serif" font-size="18.9583" lengthAdjust="spacing" textLength="123.5809" x="3670.2217" y="839.325">begeleidDoor</text><text fill="#333333" font-family="sans-serif" font-size="18.9583" lengthAdjust="spacing" textLength="11.9878" x="3665.5719" y="776.6665">1</text><text fill="#333333" font-family="sans-serif" font-size="18.9583" lengthAdjust="spacing" textLength="33.1215" x="3804.011" y="908.3195">0..*</text><line style="stroke:#444444;stroke-width:1.4583;" x1="999.7248" x2="999.7248" y1="194.3115" y2="360.4618"/><polygon fill="#444444" points="999.7248,194.3115,993.8914,207.4365,999.7248,201.6032,1005.5581,207.4365,999.7248,194.3115" style="stroke:#444444;stroke-width:1.4583;"/><text fill="#333333" font-family="sans-serif" font-size="18.9583" lengthAdjust="spacing" textLength="132.3381" x="861.5534" y="269.9683">toegekendAan</text><text fill="#333333" font-family="sans-serif" font-size="18.9583" lengthAdjust="spacing" textLength="11.9878" x="1004.0998" y="215.557">1</text><text fill="#333333" font-family="sans-serif" font-size="18.9583" lengthAdjust="spacing" textLength="33.1215" x="1004.0998" y="353.5461">0..*</text><line style="stroke:#444444;stroke-width:1.4583;" x1="2159.1786" x2="2159.1786" y1="194.3115" y2="234.1394"/><line style="stroke:#444444;stroke-width:1.4583;" x1="2159.1786" x2="2064.1498" y1="234.1394" y2="234.1394"/><line style="stroke:#444444;stroke-width:1.4583;" x1="2064.1498" x2="2064.1498" y1="234.1394" y2="306.0506"/><line style="stroke:#444444;stroke-width:1.4583;" x1="2064.1498" x2="1138.8019" y1="306.0506" y2="306.0506"/><line style="stroke:#444444;stroke-width:1.4583;" x1="1138.8019" x2="1138.8019" y1="306.0506" y2="360.4618"/><polygon fill="#444444" points="2159.1786,194.3115,2153.3452,207.4365,2159.1786,201.6032,2165.0119,207.4365,2159.1786,194.3115" style="stroke:#444444;stroke-width:1.4583;"/><text fill="#333333" font-family="sans-serif" font-size="18.9583" lengthAdjust="spacing" textLength="155.5916" x="1902.7248" y="269.9683">beschikkingDoor</text><text fill="#333333" font-family="sans-serif" font-size="18.9583" lengthAdjust="spacing" textLength="11.9878" x="2163.5536" y="215.557">1</text><text fill="#333333" font-family="sans-serif" font-size="18.9583" lengthAdjust="spacing" textLength="33.1215" x="1143.1769" y="353.5461">0..*</text><line style="stroke:#444444;stroke-width:1.4583;" x1="953.3344" x2="953.3344" y1="194.3115" y2="234.1394"/><line style="stroke:#444444;stroke-width:1.4583;" x1="953.3344" x2="842.595" y1="234.1394" y2="234.1394"/><line style="stroke:#444444;stroke-width:1.4583;" x1="842.595" x2="842.595" y1="234.1394" y2="604.3567"/><line style="stroke:#444444;stroke-width:1.4583;" x1="842.595" x2="550.819" y1="604.3567" y2="604.3567"/><line style="stroke:#444444;stroke-width:1.4583;" x1="550.819" x2="550.819" y1="604.3567" y2="687.9346"/><polygon fill="#444444" points="953.3344,194.3115,947.5011,207.4365,953.3344,201.6032,959.1677,207.4365,953.3344,194.3115" style="stroke:#444444;stroke-width:1.4583;"/><text fill="#333333" font-family="sans-serif" font-size="18.9583" lengthAdjust="spacing" textLength="131.94" x="704.8217" y="397.2463">gedragenDoor</text><text fill="#333333" font-family="sans-serif" font-size="18.9583" lengthAdjust="spacing" textLength="11.9878" x="957.7094" y="215.557">1</text><text fill="#333333" font-family="sans-serif" font-size="18.9583" lengthAdjust="spacing" textLength="33.1215" x="555.194" y="681.0189">0..*</text><line style="stroke:#444444;stroke-width:1.4583;" x1="1800.2441" x2="1800.2441" y1="419.7009" y2="474.1121"/><line style="stroke:#444444;stroke-width:1.4583;" x1="1800.2441" x2="928.6638" y1="474.1121" y2="474.1121"/><line style="stroke:#444444;stroke-width:1.4583;" x1="928.6638" x2="928.6638" y1="474.1121" y2="633.5234"/><line style="stroke:#444444;stroke-width:1.4583;" x1="928.6638" x2="603.4846" y1="633.5234" y2="633.5234"/><line style="stroke:#444444;stroke-width:1.4583;" x1="603.4846" x2="603.4846" y1="633.5234" y2="687.9346"/><polygon fill="#444444" points="1800.2441,419.7009,1794.4108,432.8259,1800.2441,426.9926,1806.0775,432.8259,1800.2441,419.7009" style="stroke:#444444;stroke-width:1.4583;"/><text fill="#333333" font-family="sans-serif" font-size="18.9583" lengthAdjust="spacing" textLength="40.8604" x="881.97" y="582.8577">voor</text><text fill="#333333" font-family="sans-serif" font-size="18.9583" lengthAdjust="spacing" textLength="11.9878" x="1804.6191" y="440.9465">1</text><text fill="#333333" font-family="sans-serif" font-size="18.9583" lengthAdjust="spacing" textLength="33.1215" x="607.8596" y="681.0189">0..*</text><line style="stroke:#444444;stroke-width:1.4583;stroke-dasharray:10.2083,10.2083;" x1="1897.6869" x2="1897.6869" y1="419.7009" y2="547.0288"/><line style="stroke:#444444;stroke-width:1.4583;stroke-dasharray:10.2083,10.2083;" x1="1897.6869" x2="2101.2465" y1="547.0288" y2="547.0288"/><line style="stroke:#444444;stroke-width:1.4583;stroke-dasharray:10.2083,10.2083;" x1="2101.2465" x2="2101.2465" y1="547.0288" y2="662.69"/><line style="stroke:#444444;stroke-width:1.4583;stroke-dasharray:10.2083,10.2083;" x1="766.8234" x2="766.8234" y1="757.0704" y2="803.4961"/><line style="stroke:#444444;stroke-width:1.4583;stroke-dasharray:10.2083,10.2083;" x1="766.8234" x2="494.1259" y1="803.4961" y2="803.4961"/><line style="stroke:#444444;stroke-width:1.4583;stroke-dasharray:10.2083,10.2083;" x1="494.1259" x2="494.1259" y1="803.4961" y2="889.9906"/><line style="stroke:#444444;stroke-width:1.4583;stroke-dasharray:10.2083,10.2083;" x1="3840.6117" x2="3840.6117" y1="974.4743" y2="1052.2188"/><?plantuml-src hLTTK-Cs57tthxYbBss7fCa60gGCCu5joWvTODXsTsRVPElQKQn87ba90ot_lLUnmpYsPR9jmyTaf7C_TNIk_LrcMB9a8DcJNbb0cGP1dWgLCSEMm3C1mwD1PIMIBC-drXeHhYn-YBJw99uHgf1yphX-52g1cCaSApj6hnI_qaQXWN5b_SevlMHHcfG8gGryFvkwdmPC6uwcX1nlFXN8r1ZzM6uURJxrpPbMjWICDfyAu5PRRAOncrszFmtcWYFWChDFiCHbY2OlbY9X8eb1lKNdvqmck4HK5nVmLm3Gy1kFy3W-TZlLYiPi69unMhr6Hgi-gvTcl8nIqieV3q_ZGOprUCEpyGb_vuzNMhN42v4RiLYZwj6lKBb5AUdGEmgEuoDi58pZ4tpNaK1frPA0LaQZGSMnzypIZhWSJ_cu7fSDZWQ3GKVSmgebRcgG2xJUFW-fOwpHPnmFpeOTVIwi_E5wCGflpAYrn7VH2Hl5_fZHMoNsZ9RUhWvnW8DwoDDmn4PTz2siNeA0XRarBB95IBXdnee5LAzDKEpSChjQ6IaMwRrZk5PGvVeMHDdk1RmZkf3-B9qyTNAunDympboYJDwzqkqhOocqyQzHrKmefYA14Z-ZoQI8vhO8_CgXkiLDiN6t9i-eKhtCxHxm6N43wbG90giJj7CIMtU2XS4qbZgZd4l37TzRp7kjpTkeJunadAh9qmxGZJQspSbBQtBNJvccfOW9KnhzAkWmlcXLxvhVmdMEZAgdHMVJQlo0kSsZ-KhoffklsX7bzlgtRxRyI4oicRLNUqVaP5PenUHqPRL4bcDhjBAaTZBT6x5kDtE5kzlGTOXR37R6sAEOAI7fhbcc-0Ccmf7K2cnoylNW71ZbHvHy9q0TToaMpvkZcAFW-PNc6yuryPHLISlDiT1VHXL9TCpvmx05HhiDABrhasml_OEMK5E-8DZAqj-zNbE8TdVR52Zmw98pg2XHu6kxmxKeGYVUtu2WLLoSJKqL_C26DFYXTNtm8oiYuGTrQiEtcBKBXD_3NYhnxymBgV3RjYb41_fDcV3RrhJYRM2tO0GxSsd3i5PzQE9sTQ6vtwu7GT2yP0V30pWdYuD1l__JGUjWdG1ZDEqJ-k-8xRcjUpbQkxmDfdRZoFlKKFFLFV0caE2Qw2CIVfVz1v-UaRZhlZkLQWpwkj_afAvGCso2r2HKVmhx_mKfXsmpGlNvhjQO-ZoSW4LrYNDDNVZCLD1AUkUZrxlO-l2CkGbGGstWsQtweA-rqJS1dIKeTLvGPmyVb8TdB4uWHF95QmMVt-9onx2axcZoHNNnALFxNOrETo7IOOgKNZMI_PAh3sV7LsuOyQMuOvxJwlJWw184YjxpWQx4t8AEMmSim1TcGIYukla0Z_I6Os5Djy_rDk5zsdRzwD5cRrsHFHeZ03zStjx_VWXpAgvWxo4WJS94aFjqqvD3GeL83o3Efi3yIEubTGp2bI1M0XSk1nswtjcd3Fi1dGEulCliGssjNhhqkmSZm9JyaaT5CaT4ecV542rp7SdHh9dPfksA95XPidi7a_mNC9YifCkS4AP2npLJCASxj7tsVqRfNZIriY4rCRKT-NeK7C1zpM48zkSb74EaLQpDajRf8QiFmn4LKhmPaZ0aahufwrBjRooN8SqXIYo7Px5G1NNf3Z5LIUGV?></g></svg>