<svg version="1.1" id="Capa_1" xmlns="http://www.w3.org/2000/svg" xmlns:xlink="http://www.w3.org/1999/xlink" x="0px" y="0px" viewBox="0 0 508 508" style="enable-background:new 0 0 508 508;" xml:space="preserve" width="300" height="300" xmlns:svgjs="http://svgjs.dev/svgjs"><g width="100%" height="100%" transform="matrix(1,0,0,1,0,0)"><g>
	<g>
		<g>
			<path d="M467,409.7v-98.3H294.1c-3.3-16-15.9-28.7-31.9-31.9v-99.2h147.5V0H98.3v180.3h147.5v99.2c-16,3.3-28.7,15.9-31.9,31.9&#10;&#9;&#9;&#9;&#9;H41v98.3H0V508h98.3v-98.3h-41v-81.9h156.5c3.3,16,15.9,28.7,31.9,31.9v50h-41V508H303v-98.3h-41v-50c16-3.3,28.7-15.9,31.9-31.9&#10;&#9;&#9;&#9;&#9;h156.5v81.9h-41V508H508v-98.3H467z M81.9,426.1v65.5H16.4v-65.5H81.9z M114.7,163.9V16.4h278.6v147.5H114.7z M286.8,426.1v65.5&#10;&#9;&#9;&#9;&#9;h-65.5v-65.5H286.8z M254,344.1c-13.6,0-24.6-11-24.6-24.6c0-13.6,11-24.6,24.6-24.6c13.6,0,24.6,11,24.6,24.6&#10;&#9;&#9;&#9;&#9;C278.6,333.1,267.6,344.1,254,344.1z M491.6,491.6h-65.5v-65.5h65.5V491.6z" fill="#ffffff" fill-opacity="1" data-original-color="#000000ff" stroke="none" stroke-opacity="1"/>
			<rect x="139.3" y="41" width="229.4" height="16.4" fill="#ffffff" fill-opacity="1" data-original-color="#000000ff" stroke="none" stroke-opacity="1"/>
			<rect x="139.3" y="81.9" width="229.4" height="16.4" fill="#ffffff" fill-opacity="1" data-original-color="#000000ff" stroke="none" stroke-opacity="1"/>
			<rect x="188.5" y="122.9" width="131.1" height="16.4" fill="#ffffff" fill-opacity="1" data-original-color="#000000ff" stroke="none" stroke-opacity="1"/>
			<rect x="41" y="450.6" width="16.4" height="16.4" fill="#ffffff" fill-opacity="1" data-original-color="#000000ff" stroke="none" stroke-opacity="1"/>
			<rect x="245.8" y="450.6" width="16.4" height="16.4" fill="#ffffff" fill-opacity="1" data-original-color="#000000ff" stroke="none" stroke-opacity="1"/>
			<rect x="450.6" y="450.6" width="16.4" height="16.4" fill="#ffffff" fill-opacity="1" data-original-color="#000000ff" stroke="none" stroke-opacity="1"/>
		</g>
	</g>
</g><g>
</g><g>
</g><g>
</g><g>
</g><g>
</g><g>
</g><g>
</g><g>
</g><g>
</g><g>
</g><g>
</g><g>
</g><g>
</g><g>
</g><g>
</g></g></svg>