<svg id="Icon_Set" enable-background="new 0 0 64 64" viewBox="0 0 64 64" xmlns="http://www.w3.org/2000/svg"><g id="Blockchain"><g><path d="m38.5 41h-13c-1.381 0-2.5-1.119-2.5-2.5v-13c0-1.381 1.119-2.5 2.5-2.5h13c1.381 0 2.5 1.119 2.5 2.5v13c0 1.381-1.119 2.5-2.5 2.5z" fill="#ffd740"/><path d="m38.5 41.5h-13c-1.654 0-3-1.346-3-3v-13c0-1.654 1.346-3 3-3h13c1.654 0 3 1.346 3 3v13c0 1.654-1.346 3-3 3zm-13-18c-1.103 0-2 .897-2 2v13c0 1.103.897 2 2 2h13c1.103 0 2-.897 2-2v-13c0-1.103-.897-2-2-2z" fill="#263238"/></g><g><path d="m36 13h-8c-.552 0-1-.448-1-1v-8c0-.552.448-1 1-1h8c.552 0 1 .448 1 1v8c0 .552-.448 1-1 1z" fill="#40c4ff"/><path d="m36 13.5h-8c-.827 0-1.5-.673-1.5-1.5v-8c0-.827.673-1.5 1.5-1.5h8c.827 0 1.5.673 1.5 1.5v8c0 .827-.673 1.5-1.5 1.5zm-8-10c-.276 0-.5.224-.5.5v8c0 .276.224.5.5.5h8c.276 0 .5-.224.5-.5v-8c0-.276-.224-.5-.5-.5z" fill="#263238"/></g><g><path d="m36 61h-8c-.552 0-1-.448-1-1v-8c0-.552.448-1 1-1h8c.552 0 1 .448 1 1v8c0 .552-.448 1-1 1z" fill="#40c4ff"/><path d="m36 61.5h-8c-.827 0-1.5-.673-1.5-1.5v-8c0-.827.673-1.5 1.5-1.5h8c.827 0 1.5.673 1.5 1.5v8c0 .827-.673 1.5-1.5 1.5zm-8-10c-.276 0-.5.224-.5.5v8c0 .276.224.5.5.5h8c.276 0 .5-.224.5-.5v-8c0-.276-.224-.5-.5-.5z" fill="#263238"/></g><g><path d="m51 36v-8c0-.552.448-1 1-1h8c.552 0 1 .448 1 1v8c0 .552-.448 1-1 1h-8c-.552 0-1-.448-1-1z" fill="#40c4ff"/><path d="m60 37.5h-8c-.827 0-1.5-.673-1.5-1.5v-8c0-.827.673-1.5 1.5-1.5h8c.827 0 1.5.673 1.5 1.5v8c0 .827-.673 1.5-1.5 1.5zm-8-10c-.276 0-.5.224-.5.5v8c0 .276.224.5.5.5h8c.276 0 .5-.224.5-.5v-8c0-.276-.224-.5-.5-.5z" fill="#263238"/></g><g><path d="m3 36v-8c0-.552.448-1 1-1h8c.552 0 1 .448 1 1v8c0 .552-.448 1-1 1h-8c-.552 0-1-.448-1-1z" fill="#40c4ff"/><path d="m12 37.5h-8c-.827 0-1.5-.673-1.5-1.5v-8c0-.827.673-1.5 1.5-1.5h8c.827 0 1.5.673 1.5 1.5v8c0 .827-.673 1.5-1.5 1.5zm-8-10c-.276 0-.5.224-.5.5v8c0 .276.224.5.5.5h8c.276 0 .5-.224.5-.5v-8c0-.276-.224-.5-.5-.5z" fill="#263238"/></g><g><path d="m8.981 24.5c-.054 0-.109-.009-.163-.027-.261-.09-.399-.375-.31-.636.245-.71.527-1.418.837-2.104.115-.251.411-.363.662-.249s.363.411.249.662c-.298.657-.568 1.335-.803 2.017-.07.207-.264.337-.472.337z" fill="#263238"/></g><g><path d="m10.79 20.499c-.083 0-.168-.021-.247-.065-.24-.136-.324-.441-.188-.682 2.222-3.911 5.473-7.136 9.4-9.325.241-.134.546-.048.68.193.135.241.048.546-.193.68-3.769 2.101-6.887 5.194-9.019 8.946-.09.162-.26.253-.433.253z" fill="#263238"/></g><g><path d="m22 10.368c-.192 0-.375-.111-.458-.298-.111-.252.003-.548.256-.659.665-.293 1.352-.56 2.042-.792.263-.09.545.053.633.314.088.262-.052.545-.314.633-.662.223-1.321.479-1.958.76-.065.028-.133.042-.201.042z" fill="#263238"/></g><g><path d="m53.531 42.227c-.069 0-.139-.014-.206-.044-.251-.114-.363-.41-.249-.662.297-.654.567-1.333.803-2.017.09-.26.375-.399.636-.309s.399.375.309.636c-.247.712-.528 1.42-.837 2.103-.084.184-.265.293-.456.293z" fill="#263238"/></g><g><path d="m43.334 53.304c-.175 0-.346-.092-.437-.256-.135-.241-.048-.546.193-.68 3.769-2.101 6.887-5.195 9.019-8.947.135-.24.44-.326.682-.188.24.136.324.441.188.682-2.222 3.911-5.472 7.136-9.4 9.326-.079.042-.162.063-.245.063z" fill="#263238"/></g><g><path d="m39.333 55.075c-.209 0-.403-.132-.474-.34-.088-.262.052-.545.314-.633.658-.222 1.317-.478 1.958-.76.255-.112.548.004.659.256.111.253-.003.548-.256.659-.668.294-1.355.561-2.042.792-.052.018-.106.026-.159.026z" fill="#263238"/></g><g><path d="m41.56 10.468c-.069 0-.139-.014-.206-.044-.657-.298-1.336-.568-2.017-.803-.261-.09-.4-.375-.31-.636.091-.26.375-.4.636-.309.71.246 1.417.527 2.103.837.252.114.363.41.25.662-.084.184-.266.293-.456.293z" fill="#263238"/></g><g><path d="m52.637 20.666c-.175 0-.346-.092-.437-.256-2.101-3.769-5.194-6.887-8.946-9.019-.24-.136-.324-.441-.188-.682.135-.24.44-.325.682-.188 3.911 2.222 7.136 5.473 9.325 9.4.135.241.048.546-.193.68-.077.045-.16.065-.243.065z" fill="#263238"/></g><g><path d="m54.409 24.667c-.209 0-.403-.132-.474-.34-.223-.66-.478-1.319-.76-1.958-.111-.252.003-.548.256-.659s.547.004.659.256c.294.667.561 1.354.792 2.042.088.262-.052.545-.314.633-.052.018-.107.026-.159.026z" fill="#263238"/></g><g><path d="m23.833 55.019c-.054 0-.109-.009-.163-.027-.713-.246-1.42-.528-2.103-.838-.251-.114-.363-.41-.249-.662.113-.251.41-.362.662-.249.655.297 1.333.567 2.016.803.261.09.399.375.31.636-.072.207-.265.337-.473.337z" fill="#263238"/></g><g><path d="m19.832 53.21c-.083 0-.168-.021-.247-.065-3.911-2.222-7.136-5.472-9.326-9.4-.135-.241-.048-.546.193-.68.242-.134.546-.048.68.193 2.101 3.769 5.195 6.887 8.947 9.019.24.136.324.441.188.682-.092.16-.261.251-.435.251z" fill="#263238"/></g><g><path d="m9.701 42c-.192 0-.375-.111-.458-.298-.293-.666-.56-1.353-.792-2.042-.088-.262.052-.545.314-.633.263-.088.545.052.633.314.223.661.479 1.319.76 1.958.111.253-.003.548-.256.659-.065.028-.134.042-.201.042z" fill="#263238"/></g><g><path d="m23 32.5h-8c-.276 0-.5-.224-.5-.5s.224-.5.5-.5h8c.276 0 .5.224.5.5s-.224.5-.5.5z" fill="#263238"/></g><g><path d="m49 32.5h-8c-.276 0-.5-.224-.5-.5s.224-.5.5-.5h8c.276 0 .5.224.5.5s-.224.5-.5.5z" fill="#263238"/></g><g><path d="m32 23.5c-.276 0-.5-.224-.5-.5v-8c0-.276.224-.5.5-.5s.5.224.5.5v8c0 .276-.224.5-.5.5z" fill="#263238"/></g><g><path d="m32 49.5c-.276 0-.5-.224-.5-.5v-8c0-.276.224-.5.5-.5s.5.224.5.5v8c0 .276-.224.5-.5.5z" fill="#263238"/></g><g><path d="m36.5 29h-5.5c-.276 0-.5-.224-.5-.5s.224-.5.5-.5h5.5c.276 0 .5.224.5.5s-.224.5-.5.5z" fill="#263238"/></g><g><path d="m36.5 32.5h-9c-.276 0-.5-.224-.5-.5s.224-.5.5-.5h9c.276 0 .5.224.5.5s-.224.5-.5.5z" fill="#263238"/></g><g><path d="m36.5 36h-9c-.276 0-.5-.224-.5-.5s.224-.5.5-.5h9c.276 0 .5.224.5.5s-.224.5-.5.5z" fill="#263238"/></g></g></svg>